<svg width="252" height="248" viewBox="0 0 252 248" fill="none" xmlns="http://www.w3.org/2000/svg">
<path d="M204.017 172.415C201.517 171.415 186.517 158.415 186.517 158.415H208.017C210.517 158.415 214.017 157.915 214.017 157.915C214.017 157.915 206.517 173.415 204.017 172.415Z" fill="#591A2F" stroke="#591A2F" stroke-width="1.2"/>
<path d="M153.517 168.915C153.517 149.715 175.684 134.915 185.517 130.915C185.517 130.915 184.517 145.915 186.017 149.415C187.517 152.915 210.517 149.415 210.517 149.415C214.684 145.582 223.217 137.015 224.017 133.415C224.817 129.815 215.35 121.248 210.517 117.415L225.017 121.915C225.517 121.248 225.118 120.817 220.517 114.415C215.916 108.013 199.017 97.2484 191.017 93.915V85.415C186.217 75.815 166.35 69.0817 157.017 66.915H172.517C169.85 63.415 156.017 56.015 122.017 54.415C68.8168 50.015 38.8502 92.2483 30.5168 113.915C45.0168 105.582 81.7168 88.915 112.517 88.915C82.9168 90.515 42.1835 125.582 25.5168 142.915C25.5168 156.415 25.5169 172.915 38.0168 196.915C48.0168 174.915 78.0168 129.915 118.017 113.915C92.0168 131.915 56.5168 187.915 56.5168 221.915C66.1168 231.915 89.1835 240.748 99.5168 243.915C101.517 212.915 106.517 172.415 140.017 132.915C116.017 175.415 119.517 224.915 124.017 246.915C153.517 245.415 164.017 239.415 183.017 221.915C167.517 206.415 153.517 192.915 153.517 168.915Z" fill="#591A2F" stroke="#591A2F" stroke-width="1.2"/>
<path d="M179.517 91.415C178.017 90.415 170.017 87.915 164.517 87.915C165.517 91.415 172.017 97.415 179.517 100.415C175.017 94.915 177.017 93.915 179.517 91.415Z" fill="white" stroke="#F9F9F7" stroke-width="1.2"/>
<path d="M69.5168 19.915L90.5168 58.415H158.017L181.517 19.915L162.517 29.415V40.415C159.184 43.7484 151.917 50.415 149.517 50.415C147.117 50.415 139.85 43.7484 136.517 40.415V29.415L142.517 21.915L125.017 0.915039L106.017 21.915L113.517 29.415V40.415C112.517 41.915 105.517 49.415 101.017 50.415C95.8168 49.615 89.1835 43.415 86.5168 40.415V29.415L69.5168 19.915Z" fill="#591A2F" stroke="#591A2F" stroke-width="1.2"/>
<path d="M193.517 53.4976L204.017 72.915H237.767L249.517 53.4976L240.017 58.289V63.8368C238.35 65.5179 234.717 68.8803 233.517 68.8803C232.317 68.8803 228.684 65.5179 227.017 63.8368V58.289L230.017 54.5063L221.267 43.915L211.767 54.5063L215.517 58.289V63.8368C215.017 64.5933 211.517 68.3759 209.267 68.8803C206.667 68.4768 203.35 65.3498 202.017 63.8368V58.289L193.517 53.4976Z" fill="#591A2F" stroke="#591A2F" stroke-width="1.2"/>
<path d="M1.51685 53.4976L12.0168 72.915H45.7668L57.5168 53.4976L48.0168 58.289V63.8368C46.3502 65.5179 42.7168 68.8803 41.5168 68.8803C40.3168 68.8803 36.6835 65.5179 35.0168 63.8368V58.289L38.0168 54.5063L29.2668 43.915L19.7668 54.5063L23.5168 58.289V63.8368C23.0168 64.5933 19.5168 68.3759 17.2668 68.8803C14.6668 68.4768 11.3502 65.3498 10.0168 63.8368V58.289L1.51685 53.4976Z" fill="#591A2F" stroke="#591A2F" stroke-width="1.2"/>
</svg>
