<svg width="90" height="86" viewBox="0 0 90 86" fill="none" xmlns="http://www.w3.org/2000/svg">
<g clip-path="url(#clip0_15_30)">
<path d="M49.9812 63.1479C51.5077 61.6218 66.9365 45.5922 75.1419 37.3868L79.1491 33.5703C79.1491 46.9916 79.3298 78.7191 79.1771 80.7037C78.9863 83.1844 77.8134 83.3752 74.7602 83.3752H65.8195C61.3669 78.859 50.3729 67.9185 49.7623 67.1552C48.3207 65.3529 49.2178 63.9112 49.9812 63.1479Z" fill="#81B29A" stroke="#81B29A" stroke-width="0.381647" stroke-linecap="round"/>
<path d="M29.1815 55.8277C28.6091 55.2552 27.2733 55.0644 26.51 55.8277L10.29 71.666V79.6806C10.29 82.3521 11.8166 83.497 14.679 83.497H57.0417C47.9458 74.4647 29.6395 56.2856 29.1815 55.8277Z" fill="#81B29A" stroke="#81B29A" stroke-width="0.381647" stroke-linecap="round"/>
<path d="M23.5467 50.0182C24.4682 51.1352 23.9153 52.6246 23.1781 53.3693L9.90845 66.0101V36.2417C14.1474 40.4615 22.8095 49.1246 23.5467 50.0182Z" fill="#81B29A" stroke="#81B29A" stroke-width="0.381647" stroke-linecap="round"/>
<path d="M47.1189 60.4761C45.7831 61.4302 44.0657 61.621 42.3483 60.2852L12.5798 30.8984H76.8873C67.4733 40.1852 48.6147 59.4076 47.1189 60.4761Z" fill="#81B29A" stroke="#81B29A" stroke-width="0.381647" stroke-linecap="round"/>
<g filter="url(#filter0_d_15_30)">
<path d="M39.2239 5L34.7811 19.2295C34.6625 23.2138 35.0104 26.9135 34.0064 29.4748C32.1882 34.1073 25.1525 34.8425 22.6386 30.2495C21.8559 28.8187 21.8639 27.1428 21.8322 25.5538C21.7927 22.8739 21.6583 20.858 22.1168 19.3402C22.4488 17.8856 24.8441 15.1346 27.3659 11.3242C28.3857 9.7748 31.1052 5.11858 31.366 5.01581C32.3542 5.00791 37.1369 5 39.2239 5ZM38.4334 19.3007C39.1765 14.02 40.9156 8.39928 41.5955 5H48.7103C49.4771 10.8104 50.6708 14.6998 51.0819 19.7197C51.1135 21.277 51.0898 22.9213 51.0819 24.7633C51.066 27.2771 51.2162 29.6329 49.2557 31.5381C46.1015 34.5896 40.5441 33.7516 38.9077 29.4906C37.9749 27.0716 38.5045 23.1269 38.4334 19.3007ZM51.8724 5C53.904 5 56.0543 5.01581 58.8607 5.03162C59.8488 5.50594 61.9042 9.48231 62.9872 11.3242C65.509 15.6089 65.928 16.5101 67.6593 19.356C67.7779 22.0438 67.7304 22.7079 67.683 25.5538C67.6356 27.87 67.6198 29.8701 65.8569 31.633C63.0663 34.4156 56.916 34.2496 55.3744 28.7159C54.6788 26.2178 54.9871 22.7395 54.9396 19.5299C53.0819 10.929 53.0819 10.6286 51.8724 5Z" fill="#81B29A"/>
<path fill-rule="evenodd" clip-rule="evenodd" d="M19.1696 3.52372H19.5713C20.1163 3.52372 20.8334 3.52051 21.7428 3.51644C22.0664 3.51499 22.4143 3.51343 22.7874 3.51187C24.2067 3.50594 25.9836 3.5 28.1565 3.5H28.7264C28.7275 3.49849 28.7286 3.49699 28.7297 3.49549C28.7995 3.39893 28.8993 3.26471 29.0144 3.13085C29.07 3.06621 29.1677 2.95623 29.2968 2.83676C29.2986 2.83509 29.3007 2.83316 29.303 2.83099C29.3785 2.76078 29.7261 2.43745 30.2665 2.22459L30.7849 2.02036L31.342 2.01591C32.3306 2.008 37.008 2.00021 39.1361 2M39.2239 2H51.8724C53.4984 2 55.2012 2.01008 57.2396 2.02214C57.7621 2.02523 58.3066 2.02845 58.8776 2.03167L59.5514 2.03547L60.1589 2.32705C60.7594 2.61533 61.1931 3.02885 61.4313 3.27458C61.5026 3.34813 61.5723 3.42355 61.6401 3.5H62.1493C66.1206 3.5 67.9838 3.5158 69.7874 3.5557L69.721 6.55497C68.4177 6.52614 67.0781 6.50996 64.8784 6.50343L72.7071 18.8525L72.7466 18.9362C72.902 19.2649 72.9485 19.5943 72.9659 19.8261C72.9845 20.0744 72.9772 20.3291 72.9605 20.5669C72.9275 21.0384 72.846 21.5921 72.7587 22.1495C72.7356 22.2972 72.7117 22.4475 72.6874 22.6001C72.5216 23.6432 72.3384 24.7954 72.2617 25.9891C72.0794 28.8231 72.5487 31.1234 74.4849 32.2852C75.1686 32.6953 76.1651 33.0106 77.1397 33.2217C77.611 33.3238 78.0464 33.3951 78.3907 33.4403C78.5627 33.463 78.7076 33.4785 78.8192 33.4882C78.875 33.493 78.9196 33.4962 78.9531 33.498C78.9826 33.4996 78.9973 33.4999 78.9999 33.5C79.0005 33.5 79.0004 33.5 78.9999 33.5L79 36.5C78.5776 36.5 77.5865 36.3881 76.5046 36.1537C75.4188 35.9186 74.0446 35.5195 72.9414 34.8576C71.3161 33.8824 70.3675 32.5102 69.8362 31.022C69.4405 31.9508 68.8531 32.8793 67.9782 33.7543L67.9752 33.7573C65.8281 35.8983 62.5734 36.7939 59.6005 36.2428C56.9333 35.7484 54.4726 34.0877 53.1152 31.2221C52.7131 32.0743 52.1459 32.9127 51.3465 33.6896L51.3416 33.6943C47.0306 37.8648 39.291 37.16 36.4489 31.3517C34.8961 34.4131 31.8186 36.0664 28.8287 36.3117C25.5581 36.58 21.9278 35.1993 20.007 31.6899C19.9267 31.5432 19.8517 31.3944 19.7822 31.2455C19.7327 31.3702 19.6794 31.4944 19.6221 31.6179C18.8773 33.2224 17.5329 34.5429 15.4298 35.4855C13.8533 36.1921 11.6227 36.5 10 36.5V33.5C11.3774 33.5 13.1467 33.2212 14.2028 32.7479C15.7499 32.0545 16.5049 31.208 16.901 30.3547C17.3182 29.456 17.4195 28.3741 17.3349 27.0817C17.2792 26.2315 17.1609 25.4369 17.0359 24.5973C16.9606 24.0919 16.883 23.5702 16.8151 23.0103C16.6519 21.6644 16.5546 20.1209 17.0429 18.744L17.1077 18.5613L25.3181 6.5034C24.3779 6.50565 23.5404 6.50875 22.8 6.51185C22.431 6.51339 22.0856 6.51493 21.7633 6.51638C21.1133 6.51929 20.5574 6.52177 20.0918 6.52297C19.9763 6.62523 19.8349 6.75496 19.6658 6.91407C19.218 7.3355 18.6175 7.92445 17.8693 8.67017C16.9573 9.57915 15.8449 10.702 14.5483 12.0109C13.7163 12.8509 12.8083 13.7674 11.8288 14.7531L9.70081 12.6385C10.6705 11.6627 11.5745 10.7501 12.4058 9.91095C13.7093 8.59512 14.8338 7.45998 15.7515 6.54535C16.5033 5.79598 17.1291 5.18185 17.6097 4.72949C17.8494 4.50387 18.0633 4.30878 18.2447 4.15334C18.4006 4.01967 18.6114 3.84578 18.8217 3.72444L19.1696 3.52372M22.1168 19.3402C21.7306 20.6189 21.7651 22.2511 21.8092 24.336C21.8174 24.7259 21.826 25.1316 21.8322 25.5538C21.8338 25.632 21.8352 25.7104 21.8367 25.7889C21.865 27.3071 21.8945 28.8891 22.6386 30.2495C25.1525 34.8425 32.1882 34.1073 34.0064 29.4748C34.7528 27.5707 34.752 25.0375 34.7512 22.226C34.751 21.2555 34.7507 20.2519 34.7811 19.2295L39.2239 5C39.0171 5 38.7837 5.00008 38.5303 5.00023C37.8244 5.00064 36.9622 5.00159 36.0802 5.00292C34.0829 5.00593 31.9835 5.01087 31.366 5.01581C31.2043 5.07953 30.0974 6.89372 29.0365 8.63253C28.3863 9.69816 27.7534 10.7355 27.3659 11.3242C26.4534 12.7031 25.5574 13.9432 24.7697 15.0334C23.3808 16.9559 22.3287 18.412 22.1168 19.3402ZM38.9077 29.4906C40.5441 33.7516 46.1015 34.5896 49.2557 31.5381C51.0735 29.7716 51.0767 27.6178 51.0802 25.3097C51.0804 25.1285 51.0807 24.9463 51.0819 24.7633C51.0837 24.3251 51.0865 23.8981 51.0892 23.4808C51.0979 22.1439 51.1059 20.9065 51.0819 19.7197C50.8531 16.9259 50.3819 14.4823 49.8768 11.8628C49.4743 9.77558 49.0503 7.57668 48.7103 5H41.5955C41.551 5.22232 41.502 5.45414 41.4491 5.69475C41.2152 6.75738 40.9042 7.99136 40.5655 9.33498C40.1013 11.177 39.5851 13.225 39.1446 15.32C38.8667 16.6415 38.619 17.9817 38.4334 19.3007C38.4544 20.4337 38.4228 21.5771 38.3921 22.6882C38.3191 25.3293 38.2511 27.7879 38.9077 29.4906ZM54.9396 19.5299C54.9521 20.3716 54.9401 21.2317 54.9281 22.0878C54.8944 24.4964 54.8612 26.8729 55.3744 28.7159C56.916 34.2496 63.0663 34.4156 65.8569 31.633C67.5948 29.8951 67.6348 27.9267 67.681 25.6521L67.683 25.5538C67.691 25.0714 67.6991 24.6516 67.7063 24.2741C67.7417 22.4246 67.7578 21.5882 67.6593 19.356C66.7274 17.8241 66.1757 16.8557 65.4716 15.6197C64.8677 14.5596 64.1516 13.3025 62.9872 11.3242C62.7683 10.9519 62.5096 10.4924 62.2281 9.99213C61.1169 8.01781 59.6491 5.41006 58.8607 5.03162C58.2869 5.02839 57.7406 5.02516 57.2171 5.02206C56.4103 5.01729 55.6577 5.01283 54.9426 5.0092C53.852 5.00365 52.8485 5 51.8724 5C52.1297 6.19763 52.3323 7.15403 52.5097 8.0005C52.6924 8.87237 52.8484 9.62761 53.0099 10.4097C53.4285 12.4367 53.8843 14.6441 54.9396 19.5299Z" fill="#81B29A"/>
</g>
<path d="M31.1816 3.40039L31.1699 3.41797L31.3535 3.41602C32.3498 3.40805 37.1381 3.40039 39.2236 3.40039H51.8721C52.8908 3.40039 53.9398 3.40422 55.084 3.41016L58.8701 3.43164L59.2295 3.43359L59.2744 3.45605L59.2402 3.40039H62.1494C65.1278 3.40039 66.9209 3.40938 68.3926 3.43066L69.79 3.45605L69.877 3.45801L69.9629 3.46875C70.4761 3.53628 70.9006 3.80893 71.1104 3.9502C71.3824 4.13346 71.6717 4.36709 71.9619 4.61914C72.546 5.12646 73.2595 5.81906 74.0527 6.61621C74.8506 7.4181 75.7601 8.35701 76.7383 9.36328C77.7159 10.3689 78.7683 11.4488 79.8701 12.5527L80.7314 13.4082C82.6914 15.3805 84.4152 17.3027 85.2852 18.5391C85.8114 19.2203 86.0497 20.138 86.1914 20.7764C86.2737 21.1468 86.3432 21.5297 86.4062 21.877C86.4388 22.0565 86.4697 22.2258 86.5 22.3867L86.5918 22.8467L86.6133 22.9463L86.6221 23.0479C87.1448 29.2491 85.0467 33.031 81.6006 34.4111C78.3907 35.6966 74.6197 34.5911 72.4365 32.4512L72.4355 32.4502C70.3669 30.418 70.0182 27.2345 69.9551 24.875C69.9224 23.6538 69.9683 22.438 69.9775 21.5732C69.9824 21.118 69.9778 20.7639 69.957 20.4961C69.9478 20.3779 69.935 20.3017 69.9277 20.2578L69.2529 19.1943L69.2578 19.2852C69.379 22.0315 69.3304 22.7491 69.2832 25.5801L69.2822 25.5869C69.2366 27.8161 69.2678 30.4851 66.9883 32.7646L66.9863 32.7656C65.1901 34.5568 62.4112 35.34 59.8555 34.8662C57.2016 34.3742 54.7747 32.5257 53.833 29.1455C53.426 27.6841 53.3305 26.0137 53.3145 24.4053C53.3063 23.5908 53.3188 22.756 53.3301 21.9453C53.3407 21.1786 53.3481 20.4306 53.3398 19.7012C52.4339 15.5048 51.975 13.3087 51.5957 11.4746C51.2583 9.84335 50.9839 8.50541 50.5127 6.29785C50.8476 8.49992 51.2332 10.438 51.6006 12.3555C51.9918 14.3973 52.3595 16.4124 52.5879 18.627L52.6768 19.5889L52.6807 19.6377L52.6816 19.6875C52.7138 21.2709 52.6894 22.9518 52.6816 24.7705V24.7734C52.6672 27.0731 52.9066 30.2215 50.3711 32.6855L50.3682 32.6885C46.4972 36.433 39.5139 35.5318 37.4141 30.0645V30.0635C36.8301 28.5472 36.7401 26.6862 36.7471 24.917C36.7547 22.9814 36.87 21.2675 36.834 19.3301L36.8311 19.2031L36.8486 19.0781C36.9578 18.3025 37.0895 17.5214 37.2334 16.7432L36.376 19.4902C36.353 20.386 36.3513 21.2707 36.3516 22.1504C36.3518 23.0909 36.3528 24.0335 36.3252 24.9346C36.2708 26.7101 36.1039 28.508 35.4961 30.0586V30.0596C34.3262 33.0401 31.5127 34.6864 28.7139 34.916C25.8961 35.1471 22.8463 33.9608 21.2354 31.0176H21.2344C20.2253 29.1726 20.2616 27.0535 20.2324 25.5859V25.5771C20.2134 24.2902 20.1691 23.0452 20.1885 21.9824C20.2071 20.9596 20.2854 19.9512 20.5459 19.0186L19.9072 19.9561C19.6663 20.7135 19.56 21.5791 19.5146 22.5811C19.4904 23.1184 19.4841 23.6667 19.4766 24.249C19.4692 24.8215 19.4601 25.4264 19.4297 26.0293C19.3083 28.4376 18.8236 31.2068 16.2207 33.2285L16.2178 33.2305C14.598 34.4826 12.6526 35.0078 10.7021 34.9316V34.9307C8.72181 34.8556 7.15791 34.0259 6.0166 32.7451C4.9127 31.5062 4.25324 29.906 3.87305 28.2969C3.1161 25.0929 3.35463 21.3732 3.97949 18.8867L4.06738 18.5391L4.29395 18.2627C5.90158 16.3024 7.59816 14.6148 9.62891 12.5684H9.62988C12.1194 10.0631 14.1776 7.97269 15.6807 6.47461C16.4326 5.72511 17.0593 5.10964 17.541 4.65625C17.7812 4.43019 17.9967 4.234 18.1797 4.07715C18.3356 3.94354 18.5524 3.76411 18.7715 3.6377L19.1426 3.42383H19.5713C20.3099 3.42383 21.3648 3.41806 22.7871 3.41211C24.2063 3.40618 25.9834 3.40039 28.1562 3.40039H31.1816Z" fill="#81B29A" stroke="#81B29A" stroke-width="3.2" stroke-linecap="round"/>
<path d="M53 31L52.6339 19L48.6339 1" stroke="#FAFAFA" stroke-width="2" stroke-linecap="round"/>
<path d="M70 31V19L58 1" stroke="#FAFAFA" stroke-width="2" stroke-linecap="round"/>
<path d="M20 31V19L32 0" stroke="#FAFAFA" stroke-width="2" stroke-linecap="round"/>
<path d="M36.5 31.0243V19L40 0.5" stroke="#FAFAFA" stroke-width="2" stroke-linecap="round"/>
<g filter="url(#filter1_d_15_30)">
<path d="M40.8843 49.0936C40.1457 48.3551 39.6566 47.5206 39.4168 46.5903C39.1866 45.6504 39.201 44.7057 39.46 43.7562C39.7285 42.8163 40.2417 41.9674 40.9993 41.2098C41.7666 40.4425 42.625 39.9294 43.5745 39.6704C44.5336 39.421 45.4879 39.4258 46.4374 39.6848C47.3965 39.9342 48.2549 40.4377 49.0126 41.1954C49.7703 41.9531 50.2691 42.8067 50.5088 43.7562C50.7678 44.7057 50.7678 45.6552 50.5088 46.6047C50.2595 47.5638 49.7559 48.4318 48.9982 49.2087C48.9982 49.2087 47.2805 50.9264 46.7198 51.4871C46.159 52.0479 45.5048 52.889 45.0563 52.8341C44.7571 52.7956 44.6515 52.7169 44.5114 52.5769C44.1181 52.1835 41.5844 49.7937 40.8843 49.0936Z" fill="#FAFAFA"/>
<path d="M42.9503 47.1262C42.5835 46.7594 42.3406 46.345 42.2215 45.8829C42.1071 45.4161 42.1143 44.9468 42.2429 44.4752C42.3763 44.0084 42.6312 43.5868 43.0075 43.2105C43.3886 42.8294 43.8149 42.5745 44.2865 42.4459C44.7629 42.322 45.2369 42.3244 45.7085 42.453C46.1849 42.5769 46.6112 42.827 46.9876 43.2033C47.3639 43.5797 47.6116 44.0036 47.7307 44.4752C47.8593 44.9468 47.8593 45.4184 47.7307 45.8901C47.6068 46.3664 47.3568 46.7975 46.9804 47.1834C46.9804 47.1834 46.1273 48.0366 45.8487 48.3151C45.5702 48.5936 45.2453 49.0114 45.0225 48.9841C44.8739 48.965 44.8214 48.9259 44.7519 48.8563C44.5565 48.661 43.2981 47.474 42.9503 47.1262Z" fill="#81B29A"/>
</g>
<g filter="url(#filter2_d_15_30)">
<path d="M64.1617 64.9433C63.3705 64.1521 62.8464 63.2581 62.5895 62.2613C62.3429 61.2542 62.3583 60.242 62.6357 59.2247C62.9235 58.2176 63.4732 57.3082 64.285 56.4964C65.1071 55.6743 66.0268 55.1245 67.0442 54.8471C68.0718 54.5799 69.0942 54.5851 70.1116 54.8625C71.1392 55.1297 72.0589 55.6692 72.8707 56.481C73.6825 57.2928 74.2169 58.2074 74.4738 59.2247C74.7512 60.242 74.7512 61.2594 74.4738 62.2767C74.2066 63.3043 73.6671 64.2343 72.8553 65.0667C72.8553 65.0667 71.0149 66.9071 70.4141 67.5079C69.8132 68.1087 69.1123 69.0099 68.6318 68.951C68.3112 68.9098 68.198 68.8255 68.048 68.6755C67.6265 68.254 64.9119 65.6935 64.1617 64.9433Z" fill="#FAFAFA"/>
<path d="M66.3756 62.8354C65.9826 62.4424 65.7223 61.9984 65.5947 61.5033C65.4722 61.0031 65.4799 60.5004 65.6177 59.9951C65.7606 59.4949 66.0337 59.0432 66.4369 58.64C66.8452 58.2317 67.302 57.9586 67.8073 57.8208C68.3177 57.6881 68.8255 57.6906 69.3308 57.8284C69.8412 57.9612 70.298 58.2291 70.7012 58.6323C71.1044 59.0355 71.3699 59.4898 71.4975 59.9951C71.6353 60.5004 71.6353 61.0057 71.4975 61.511C71.3647 62.0214 71.0968 62.4833 70.6936 62.8967C70.6936 62.8967 69.7795 63.8108 69.4811 64.1092C69.1826 64.4076 68.8345 64.8552 68.5958 64.826C68.4366 64.8055 68.3804 64.7637 68.3059 64.6891C68.0965 64.4798 66.7482 63.208 66.3756 62.8354Z" fill="#81B29A"/>
</g>
<g filter="url(#filter3_d_15_30)">
<path d="M22.9288 74.0677C22.0497 73.1886 21.4674 72.1952 21.1819 71.0877C20.9079 69.9687 20.925 68.8441 21.2333 67.7137C21.553 66.5947 22.1638 65.5843 23.0659 64.6822C23.9793 63.7688 25.0012 63.158 26.1316 62.8497C27.2733 62.5528 28.4094 62.5585 29.5398 62.8668C30.6816 63.1637 31.7035 63.7631 32.6055 64.6651C33.5075 65.5671 34.1012 66.5833 34.3867 67.7137C34.695 68.8441 34.695 69.9744 34.3867 71.1048C34.0898 72.2466 33.4904 73.2799 32.5884 74.2047C32.5884 74.2047 30.5435 76.2496 29.8759 76.9172C29.2083 77.5848 28.4295 78.5861 27.8956 78.5207C27.5394 78.4749 27.4136 78.3812 27.2469 78.2145C26.7786 77.7462 23.7624 74.9012 22.9288 74.0677Z" fill="#FAFAFA"/>
<path d="M25.3886 71.7256C24.9519 71.289 24.6627 70.7956 24.5209 70.2455C24.3848 69.6897 24.3933 69.1311 24.5464 68.5697C24.7052 68.0139 25.0086 67.512 25.4566 67.064C25.9103 66.6103 26.4179 66.3069 26.9793 66.1538C27.5464 66.0064 28.1107 66.0092 28.6721 66.1623C29.2392 66.3098 29.7468 66.6075 30.1948 67.0555C30.6428 67.5035 30.9377 68.0083 31.0795 68.5697C31.2326 69.1311 31.2326 69.6926 31.0795 70.254C30.932 70.8211 30.6343 71.3343 30.1863 71.7937C30.1863 71.7937 29.1706 72.8094 28.839 73.1409C28.5075 73.4725 28.1206 73.9699 27.8555 73.9374C27.6785 73.9146 27.6161 73.8681 27.5333 73.7853C27.3007 73.5527 25.8025 72.1396 25.3886 71.7256Z" fill="#81B29A"/>
</g>
</g>
<defs>
<filter id="filter0_d_15_30" x="9.70081" y="2" width="69.2994" height="36.6814" filterUnits="userSpaceOnUse" color-interpolation-filters="sRGB">
<feFlood flood-opacity="0" result="BackgroundImageFix"/>
<feColorMatrix in="SourceAlpha" type="matrix" values="0 0 0 0 0 0 0 0 0 0 0 0 0 0 0 0 0 0 127 0" result="hardAlpha"/>
<feOffset dy="2.18137"/>
<feComposite in2="hardAlpha" operator="out"/>
<feColorMatrix type="matrix" values="0 0 0 0 0.364706 0 0 0 0 0.482353 0 0 0 0 0.439216 0 0 0 1 0"/>
<feBlend mode="normal" in2="BackgroundImageFix" result="effect1_dropShadow_15_30"/>
<feBlend mode="normal" in="SourceGraphic" in2="effect1_dropShadow_15_30" result="shape"/>
</filter>
<filter id="filter1_d_15_30" x="39.2544" y="39.4869" width="11.4486" height="14.4947" filterUnits="userSpaceOnUse" color-interpolation-filters="sRGB">
<feFlood flood-opacity="0" result="BackgroundImageFix"/>
<feColorMatrix in="SourceAlpha" type="matrix" values="0 0 0 0 0 0 0 0 0 0 0 0 0 0 0 0 0 0 127 0" result="hardAlpha"/>
<feOffset dy="1.14494"/>
<feComposite in2="hardAlpha" operator="out"/>
<feColorMatrix type="matrix" values="0 0 0 0 0 0 0 0 0 0 0 0 0 0 0 0 0 0 0.25 0"/>
<feBlend mode="normal" in2="BackgroundImageFix" result="effect1_dropShadow_15_30"/>
<feBlend mode="normal" in="SourceGraphic" in2="effect1_dropShadow_15_30" result="shape"/>
</filter>
<filter id="filter2_d_15_30" x="62.4154" y="54.6505" width="12.2665" height="15.4482" filterUnits="userSpaceOnUse" color-interpolation-filters="sRGB">
<feFlood flood-opacity="0" result="BackgroundImageFix"/>
<feColorMatrix in="SourceAlpha" type="matrix" values="0 0 0 0 0 0 0 0 0 0 0 0 0 0 0 0 0 0 127 0" result="hardAlpha"/>
<feOffset dy="1.14494"/>
<feComposite in2="hardAlpha" operator="out"/>
<feColorMatrix type="matrix" values="0 0 0 0 0 0 0 0 0 0 0 0 0 0 0 0 0 0 0.25 0"/>
<feBlend mode="normal" in2="BackgroundImageFix" result="effect1_dropShadow_15_30"/>
<feBlend mode="normal" in="SourceGraphic" in2="effect1_dropShadow_15_30" result="shape"/>
</filter>
<filter id="filter3_d_15_30" x="20.9885" y="62.6312" width="13.6294" height="17.0375" filterUnits="userSpaceOnUse" color-interpolation-filters="sRGB">
<feFlood flood-opacity="0" result="BackgroundImageFix"/>
<feColorMatrix in="SourceAlpha" type="matrix" values="0 0 0 0 0 0 0 0 0 0 0 0 0 0 0 0 0 0 127 0" result="hardAlpha"/>
<feOffset dy="1.14494"/>
<feComposite in2="hardAlpha" operator="out"/>
<feColorMatrix type="matrix" values="0 0 0 0 0 0 0 0 0 0 0 0 0 0 0 0 0 0 0.25 0"/>
<feBlend mode="normal" in2="BackgroundImageFix" result="effect1_dropShadow_15_30"/>
<feBlend mode="normal" in="SourceGraphic" in2="effect1_dropShadow_15_30" result="shape"/>
</filter>
<clipPath id="clip0_15_30">
<rect width="90" height="86" fill="white"/>
</clipPath>
</defs>
</svg>
