<svg width="200" height="200" viewBox="0 0 200 200" fill="none" xmlns="http://www.w3.org/2000/svg">
<circle cx="100" cy="100" r="99.25" fill="url(#paint0_linear_89_567)" stroke="#004E97" stroke-width="1.5"/>
<g filter="url(#filter0_d_89_567)">
<path d="M48.3783 73.1696C53.125 73.1696 57.041 73.763 60.1263 74.9496C63.238 76.1099 65.5586 77.8899 67.0881 80.2896C68.6176 82.6893 69.3823 85.7483 69.3823 89.4666C69.3823 92.5255 68.8286 95.0835 67.721 97.1404C66.6134 99.1709 65.1631 100.819 63.3699 102.085C61.5767 103.351 59.6648 104.326 57.6343 105.012L73.4961 131H65.6641L51.5032 106.871H39.4782V131H32.7538V73.1696H48.3783ZM47.9827 78.9843H39.4782V101.175H48.6552C53.3755 101.175 56.8432 100.213 59.0583 98.2875C61.2998 96.3624 62.4205 93.5276 62.4205 89.783C62.4205 85.8538 61.2339 83.0717 58.8605 81.4368C56.5136 79.8018 52.8876 78.9843 47.9827 78.9843ZM98.8924 131H92.1284V79.103H73.9328V73.1696H117.009V79.103H98.8924V131ZM148.853 100.7H169.066V128.745C166.033 129.774 162.908 130.539 159.691 131.04C156.5 131.541 152.927 131.791 148.971 131.791C142.959 131.791 137.883 130.591 133.743 128.192C129.629 125.792 126.504 122.377 124.368 117.947C122.232 113.49 121.164 108.203 121.164 102.085C121.164 96.0987 122.337 90.8774 124.684 86.4208C127.058 81.9642 130.473 78.5096 134.929 76.0572C139.412 73.5784 144.792 72.3389 151.068 72.3389C154.285 72.3389 157.331 72.6422 160.205 73.2487C163.106 73.8289 165.796 74.6595 168.275 75.7407L165.704 81.595C163.568 80.672 161.207 79.8809 158.623 79.2216C156.065 78.5624 153.415 78.2327 150.672 78.2327C145.952 78.2327 141.904 79.2084 138.529 81.1599C135.18 83.1113 132.609 85.867 130.815 89.427C129.049 92.987 128.165 97.2063 128.165 102.085C128.165 106.911 128.943 111.117 130.499 114.703C132.055 118.263 134.481 121.032 137.777 123.01C141.074 124.988 145.319 125.976 150.514 125.976C153.125 125.976 155.366 125.831 157.239 125.541C159.111 125.225 160.812 124.856 162.341 124.434V106.713H148.853V100.7Z" fill="white"/>
</g>
<defs>
<filter id="filter0_d_89_567" x="32.7539" y="72.3389" width="138.312" height="62.4521" filterUnits="userSpaceOnUse" color-interpolation-filters="sRGB">
<feFlood flood-opacity="0" result="BackgroundImageFix"/>
<feColorMatrix in="SourceAlpha" type="matrix" values="0 0 0 0 0 0 0 0 0 0 0 0 0 0 0 0 0 0 127 0" result="hardAlpha"/>
<feOffset dx="1" dy="2"/>
<feGaussianBlur stdDeviation="0.5"/>
<feComposite in2="hardAlpha" operator="out"/>
<feColorMatrix type="matrix" values="0 0 0 0 0 0 0 0 0 0 0 0 0 0 0 0 0 0 0.25 0"/>
<feBlend mode="normal" in2="BackgroundImageFix" result="effect1_dropShadow_89_567"/>
<feBlend mode="normal" in="SourceGraphic" in2="effect1_dropShadow_89_567" result="shape"/>
</filter>
<linearGradient id="paint0_linear_89_567" x1="100" y1="0" x2="100" y2="200" gradientUnits="userSpaceOnUse">
<stop offset="0.396821" stop-color="#6893DA"/>
<stop offset="1" stop-color="#0B5AA5"/>
</linearGradient>
</defs>
</svg>
