<svg width="539" height="540" viewBox="0 0 539 540" fill="none" xmlns="http://www.w3.org/2000/svg">
<g clip-path="url(#clip0_81_10)">
<path d="M512.497 29.3832L512.532 26.5166L509.671 23.2319L503.092 22.7917L489.422 21.362L481.415 20.8679L474.148 22.1024L460.801 21.7284L453.16 22.6512L448.025 24.2391L446.138 29.3832L441.595 40.9694L442.704 47.2152L434.73 47.8479L424.905 53.6327L421.751 54.5311L397.904 56.4339L396.649 56.693L395.096 56.1348L392.859 57.691L394.276 60.0683L396.649 72.3428L403.662 78.9735L412.157 85.9988L418.865 92.0499L424.905 97.083L427.412 88.5108L449.27 89.8963L453.16 88.3169L454.497 87.3387L480.48 86.9356L481.415 86.6515L482.05 86.6346L482.054 85.9988L482.8 84.6121L485.271 61.5541L507.195 60.1712L509.671 58.9162L510.47 58.4919L510.833 57.691L511.019 56.3408L512.083 31.7993L512.497 29.3832Z" stroke="#F9F9F7" stroke-linecap="round" stroke-linejoin="round"/>
<path d="M339.969 1.07587L339.929 1.286L340.138 4.16203L352.927 16.5713L363.767 29.3837L366.71 31.0708L368.394 31.1904L369.122 30.1135L368.841 29.3837L368.768 29.0088L370.268 2.95315L370.03 1.07587" stroke="#F9F9F7" stroke-width="1.5" stroke-linecap="round" stroke-linejoin="round"/>
<path d="M343.843 199.23L343.38 195.983L340.138 194.672L338.046 197.133L337.557 199.23L338.12 201.252L340.138 204.523L342.325 201.42L343.843 199.23Z" stroke="#F9F9F7" stroke-width="1.5" stroke-linecap="round" stroke-linejoin="round"/>
<path d="M537.926 182.142L535.982 197.283L536.274 199.231L536.437 200.723L537.926 202.926" stroke="#F9F9F7" stroke-width="1.5" stroke-linecap="round" stroke-linejoin="round"/>
<path d="M513.387 114.307L512.229 111.744L509.671 110.385L505.648 110.277L505.676 114.307L504.191 119.797L507.31 140.25L504.895 142.615L508.427 143.861L509.671 144.459L511.349 144.296L511.403 142.615L511.24 141.043L513.67 118.313L513.387 114.307Z" stroke="#F9F9F7" stroke-linecap="round" stroke-linejoin="round"/>
<path d="M517.212 29.3835L517.306 21.734L509.671 12.9691L498.543 12.2246L492.398 12.0781L481.416 11.4003L469.006 13.5083L466.383 14.3226L453.16 15.9196L442.891 19.0953L439.116 29.3835L435.108 39.6057L424.905 45.6133L415.518 48.2869L405.216 49.1089L396.649 50.8782L386.045 47.067L370.775 57.6914L374.305 63.6134L381.066 73.3037L385.581 85.9992L383.453 99.22L383.947 101.581L378.652 114.307L380.273 126.208L379.566 131.423L382.496 142.615L388.992 150.287L396.649 159.504L398.985 144.955L398.395 142.615L401.334 137.922L404.392 122.064L415.777 123.452L424.905 119.828L428.943 118.352L434.303 114.307L441.81 102.935L453.16 98.327L460.272 93.1244L474.524 92.9033L481.416 90.8094L486.093 90.6849L486.123 85.9992L491.618 75.7783L492.379 68.6751L499.133 68.2491L509.671 62.9067L513.074 61.1007L514.617 57.6914L515.408 51.9439L516.106 35.8309L517.212 29.3835Z" stroke="#F9F9F7" stroke-width="1.3" stroke-linecap="round" stroke-linejoin="round"/>
<path d="M349.909 199.231L348.688 190.665L340.139 187.207L334.618 193.7L333.328 199.231L334.815 204.564L340.139 213.193L345.905 205.008L349.909 199.231Z" stroke="#F9F9F7" stroke-width="1.5" stroke-linecap="round" stroke-linejoin="round"/>
<path d="M336.379 1.07578L335.484 5.73839L336.978 26.2171L335.776 29.3836L332.241 37.2961L336.226 53.7713L319.848 49.7119L311.883 53.2493L310.041 55.8464L309.137 57.6914L307.311 62.2722L311.883 71.5156L320.128 65.9519L335.992 61.8458L340.138 60.16L342.82 60.3778L358.013 57.6914L365.623 54.9158L368.394 55.1126L378.767 39.7764L374.762 29.3836L373.723 24.0449L374.682 7.37564L373.883 1.07578" stroke="#F9F9F7" stroke-width="1.5" stroke-linecap="round" stroke-linejoin="round"/>
<path d="M317.632 114.307L313.788 112.399L311.883 110.109L309.454 111.874L310.529 114.307L310.732 115.46L311.883 116.586L314.143 116.571L317.632 114.307Z" stroke="#F9F9F7" stroke-width="1.5" stroke-linecap="round" stroke-linejoin="round"/>
<path d="M297.261 85.9996L288.128 81.4911L283.628 83.3058L281.727 84.0953L280.654 85.9996L281.633 87.9981L283.628 92.0072L291.065 93.4512L297.261 85.9996Z" stroke="#F9F9F7" stroke-width="1.5" stroke-linecap="round" stroke-linejoin="round"/>
<path d="M1.07367 61.1953L3.68739 60.3103L5.36548 57.6917L3.02678 55.735L1.07367 55.6867" stroke="#F9F9F7" stroke-width="1.5" stroke-linecap="round" stroke-linejoin="round"/>
<path d="M537.926 166.207L532.673 165.66L532.881 170.923L534.036 174.82L531.702 192.995L532.638 199.231L533.159 204.007L537.926 211.059" stroke="#F9F9F7" stroke-width="1.5" stroke-linecap="round" stroke-linejoin="round"/>
<path d="M517.381 114.307L514.977 108.99L509.671 106.171L501.326 105.946L501.383 114.307L498.303 125.696L499.298 132.223L488.684 142.614L504.205 148.09L509.671 150.718L517.046 150.003L517.284 142.614L516.567 135.705L517.966 122.617L517.381 114.307Z" stroke="#F9F9F7" stroke-linecap="round" stroke-linejoin="round"/>
<path d="M429.315 1.07592L441.448 12.8096L453.16 9.18784L460.386 8.31508L480.386 2.10756L481.415 1.93266L482.327 1.98889L508.146 2.60405L509.671 2.70611L522.08 16.9513L521.926 29.3837L520.13 39.8622L519.797 47.5468L518.401 57.6916L515.678 63.7094L509.671 66.8971L497.01 73.3154L490.192 85.9994L490.135 94.7351L481.415 94.9673L468.568 98.8709L466.047 98.9101L453.16 108.337L448.919 110.059L446.115 114.307L434.018 123.437L424.905 126.767L413.575 131.265L406.468 142.615L409.786 155.776L409.406 158.142L420.606 170.923L401.583 175.866L396.649 175.744L390.873 176.71L371.946 174.482L368.394 175.691L355.808 183.532L361.052 170.923L353.54 157.497L340.139 147.365L337.736 145.022L327.753 142.615L317.997 136.489L311.883 136.529L300.661 125.55L298.682 114.307L294.062 103.853L283.628 101.828L278.372 91.2649L275.793 85.9994L278.62 80.9823L283.628 78.9022L295.484 74.1209L304.439 78.5413L300.01 69.5871L304.751 57.6916L307.101 52.9003L311.883 46.1561L323.482 41.0046L328.675 29.3837L331.833 21.0629L331.04 10.1911L332.789 1.07592" stroke="#F9F9F7" stroke-width="1.5" stroke-linecap="round" stroke-linejoin="round"/>
<path d="M423.677 1.07528L423.55 2.43268L424.905 6.13629L436.272 17.9942L432.093 29.3831L430.066 34.5541L424.905 37.5931L413.455 40.8543L409.625 42.3827L396.649 45.0625L385.131 40.923L380.684 29.3831L378.677 19.0805L379.096 11.7978L377.737 1.07528" stroke="#F9F9F7" stroke-width="1.5" stroke-linecap="round" stroke-linejoin="round"/>
<path d="M372.406 85.9996L371.352 83.0364L368.394 78.7973L359.994 77.584L351.717 74.3997L340.139 73.4595L331.235 77.0792L319.434 85.9996L329.128 97.0304L340.139 103.847L354.251 100.138L354.313 100.106L368.394 94.5905L371.848 89.4605L372.406 85.9996Z" stroke="#F9F9F7" stroke-width="1.5" stroke-linecap="round" stroke-linejoin="round"/>
<path d="M355.975 199.23L353.996 185.347L340.138 179.742L331.19 190.266L329.099 199.23L331.509 207.875L340.138 221.862L349.485 208.594L355.975 199.23Z" stroke="#F9F9F7" stroke-width="1.5" stroke-linecap="round" stroke-linejoin="round"/>
<path d="M142.56 114.307L142.573 114.084L142.351 113.444L142.057 114.012L142.009 114.307L142.023 114.635L138.328 138.585L138.446 142.614L139.944 145.026L142.351 146.953L146.443 146.714L148.147 142.614L146.165 138.793L142.656 114.612L142.56 114.307Z" stroke="#F9F9F7" stroke-width="1.5" stroke-linecap="round" stroke-linejoin="round"/>
<path d="M44.9099 1.07543L48.9732 9.70268L57.5844 18.6201L65.3294 8.83484L68.4727 1.07543" stroke="#F9F9F7" stroke-width="1.5" stroke-linecap="round" stroke-linejoin="round"/>
<path d="M59.7102 57.6912L59.577 55.6949L57.5844 50.5567L54.6665 54.7679L52.9371 57.6912L55.3911 59.8886L57.5844 59.8906L58.8571 58.9662L59.7102 57.6912Z" stroke="#F9F9F7" stroke-width="1.5" stroke-linecap="round" stroke-linejoin="round"/>
<path d="M1.07374 71.6992L11.5241 68.1608L18.2334 57.6911L8.88268 49.8677L1.07374 49.6745" stroke="#F9F9F7" stroke-width="1.5" stroke-linecap="round" stroke-linejoin="round"/>
<path d="M537.926 159.486L525.187 158.16L525.69 170.923L528.493 180.373L527.423 188.708L529.001 199.231L529.881 207.291L537.926 219.191" stroke="#F9F9F7" stroke-width="1.5" stroke-linecap="round" stroke-linejoin="round"/>
<path d="M521.374 114.307L517.726 106.237L509.671 101.958L497.003 101.616L497.091 114.307L493.749 126.663L481.415 138.9L476.812 138.003L474.974 142.615L478.176 145.861L481.415 145.519L486.276 147.484L499.984 152.32L509.671 156.978L522.742 155.711L523.165 142.615L521.894 130.369L522.263 126.923L521.374 114.307Z" stroke="#F9F9F7" stroke-width="1.5" stroke-linecap="round" stroke-linejoin="round"/>
<path d="M449.104 1.07621L451.168 3.07227L453.16 2.45616L454.389 2.30768L458.357 1.07621" stroke="#F9F9F7" stroke-width="1.5" stroke-linecap="round" stroke-linejoin="round"/>
<path d="M329.199 1.07581L326.596 14.6435L326.688 15.9084L321.573 29.3836L318.577 36.0898L311.883 39.0627L304.16 49.954L300.366 57.6915L295.589 69.675L283.628 74.4986L275.513 77.8694L270.931 85.9993L275.111 94.5318L283.628 111.648L285.851 112.08L286.835 114.307L287.522 118.208L283.628 127.555L282.089 141.073L281.647 142.615L281.962 144.284L283.628 144.296L285.945 144.937L307.546 146.96L311.883 148.965L323.331 154.084L327.651 155.125L340.138 167.306L342.196 168.862L343.349 170.923L342.405 173.193L340.138 172.277L327.763 186.832L324.871 199.231L328.204 211.187L335.303 222.694L337.626 227.538L338.369 229.311L340.138 231.953L341.968 229.372L342.261 227.538L347.304 220.359L353.065 212.181L362.041 199.231L360.983 191.806L368.394 187.19L380.513 183.064L384.108 183.487L396.649 181.391L407.361 181.655L416.585 179.258L424.905 179.632L429.9 175.927L436.192 170.923L431.775 164.04L424.905 159.672L416.631 150.904L414.54 142.615L418.536 136.234L424.905 133.706L438.903 128.591L439.121 128.55L453.16 119.336L456.851 118.005L455.972 114.307L469.788 102.658L481.415 99.1248L494.177 98.7849L494.261 85.9993L499.655 75.9648L509.671 70.8871L518.281 66.3177L522.185 57.6915L524.092 43.8316L524.301 43.0342L526.641 29.3836L526.779 18.2161L537.926 6.0752" stroke="#F9F9F7" stroke-width="1.7" stroke-linecap="round" stroke-linejoin="round"/>
<path d="M418.17 1.07606L417.471 8.52384L424.905 28.8452L425.168 29.12L425.071 29.3839L425.024 29.5037L424.905 29.5741L424.639 29.6497L404.813 37.5621L396.649 39.248L389.403 36.6438L386.605 29.3839L384.17 16.8818L383.288 14.4622L381.591 1.07606" stroke="#F9F9F7" stroke-width="1.5" stroke-linecap="round" stroke-linejoin="round"/>
<path d="M427.859 425.693L425.913 424.683L424.905 424.85L423.809 424.595L410.822 425.693L423.921 426.678L424.905 427.094L426.61 427.402L427.859 425.693Z" stroke="#F9F9F7" stroke-width="1.5" stroke-linecap="round" stroke-linejoin="round"/>
<path d="M400.7 340.77L401.826 335.584L396.649 321.942L390.592 318.53L388.237 312.462L371.426 309.424L368.394 309.649L365.851 309.914L361.516 312.462L361.486 319.383L362.093 334.457L362.063 340.77L365.932 343.237L368.394 347.564L377.208 349.6L387.834 349.602L396.649 353.378L401.355 345.484L400.7 340.77Z" stroke="#F9F9F7" stroke-width="1.5" stroke-linecap="round" stroke-linejoin="round"/>
<path d="M172.273 170.923L171.984 169.542L170.606 165.384L164.07 164.375L167.295 170.923L169.389 172.142L170.606 173.475L171.616 171.934L172.273 170.923Z" stroke="#F9F9F7" stroke-width="1.5" stroke-linecap="round" stroke-linejoin="round"/>
<path d="M143.216 57.6916L143.087 56.9538L142.351 56.301L141.839 57.1793L141.861 57.6916L141.69 58.3531L142.351 84.7188L143.207 58.5493L143.216 57.6916Z" stroke="#F9F9F7" stroke-width="1.5" stroke-linecap="round" stroke-linejoin="round"/>
<path d="M149.193 114.307L149.631 107.012L142.351 86.0684L132.733 104.671L131.169 114.307L131.63 125.047L130.718 130.96L131.059 142.614L135.39 149.588L142.351 155.162L154.186 154.472L159.115 142.614L153.382 131.562L152.329 124.303L149.193 114.307Z" stroke="#F9F9F7" stroke-width="1.5" stroke-linecap="round" stroke-linejoin="round"/>
<path d="M105.438 1.07552L111.622 3.55371L114.095 3.19431L116.176 3.15958L119.522 1.07552" stroke="#F9F9F7" stroke-width="1.5" stroke-linecap="round" stroke-linejoin="round"/>
<path d="M59.791 227.538L59.871 225.247L57.5845 217.452L51.0906 221.032L42.9379 227.538L53.5092 231.621L57.5845 233.624L59.9895 229.948L59.791 227.538Z" stroke="#F9F9F7" stroke-width="1.5" stroke-linecap="round" stroke-linejoin="round"/>
<path d="M1.07379 43.6632L14.7386 44.0012L20.3537 48.6991L29.3292 50.6006L36.9895 37.058L42.1477 29.3835L35.8997 22.8009L29.6049 1.35192L29.4748 1.07568" stroke="#F9F9F7" stroke-width="1.5" stroke-linecap="round" stroke-linejoin="round"/>
<path d="M1.0737 82.2037L6.79572 80.2662L28.3476 85.9988L29.2186 86.1095L29.3291 86.1377L29.4184 86.0883L29.6865 85.9988L44.4457 72.8357L57.5845 72.848L66.355 66.4778L72.2342 57.691L71.3165 43.9336L70.8136 42.6368L69.1661 29.3832L76.1136 19.6388L78.9273 8.00087L81.7327 1.07538" stroke="#F9F9F7" stroke-width="1.5" stroke-linecap="round" stroke-linejoin="round"/>
<path d="M537.926 152.765L528.749 151.809L529.046 142.615L528.016 132.686L526.195 126.06L525.368 114.307L520.474 103.484L509.671 97.7445L498.255 97.4364L498.33 85.9994L502.3 78.6144L509.671 74.8775L520.885 68.9264L525.969 57.6916L527.418 47.1637L529.993 37.3314L531.356 29.3838L531.436 22.8818L537.926 15.8132" stroke="#F9F9F7" stroke-width="1.5" stroke-linecap="round" stroke-linejoin="round"/>
<path d="M510.753 482.309L510.594 481.384L509.671 480.371L508.277 480.912L506.858 482.309L508.819 483.163L509.671 484.56L510.904 483.544L510.753 482.309Z" stroke="#F9F9F7" stroke-width="1.5" stroke-linecap="round" stroke-linejoin="round"/>
<path d="M325.61 1.07531L323.396 12.6098L316.06 25.1981L314.472 29.3831L313.671 31.1747L311.883 31.9689L301.219 47.0073L295.981 57.691L292.455 66.5348L283.628 70.0947L272.406 74.756L266.07 85.9988L271.85 97.7983L276.522 107.188L280.046 114.307L279.042 118.901L277.088 136.063L275.213 142.614L276.549 149.706L283.628 149.758L293.474 152.479L301.305 153.212L311.883 158.105L320.729 162.06L329.724 170.922L322.359 181.417L323.313 187.779L320.642 199.23L324.036 211.406L324.357 215.041L330.351 227.538L333.244 234.445L340.138 244.738L347.267 234.68L348.409 227.538L356.664 215.786L367.458 200.168L368.108 199.23L368.06 198.896L368.394 198.688L369.214 198.409L386.219 188.78L396.649 187.037L408.528 187.33L415.172 189.479L424.905 189.917L435.799 181.837L449.521 170.922L442.969 160.713L440.563 155.235L435.204 152.933L424.905 146.385L423.075 144.447L422.613 142.614L423.497 141.204L424.905 140.645L427.999 139.514L446.637 136.079L453.16 131.798L465.997 127.167L462.94 114.307L472.972 105.847L481.415 103.282L492.72 102.981L492.798 114.307L490.371 123.279L481.415 132.165L468.466 129.64L463.296 142.614L472.302 151.745L481.415 150.783L495.087 156.311L495.762 156.549L509.671 163.236L518.164 162.413L518.5 170.922L522.233 183.507L523.315 185.561L525.365 199.23L526.603 210.575L537.926 227.324" stroke="#F9F9F7" stroke-width="2.5" stroke-linecap="round" stroke-linejoin="round"/>
<path d="M455.384 369.077L455.448 366.785L453.16 356.682L447.694 363.601L428.162 365.814L424.905 367.158L411.028 354.672L409.098 340.77L411.922 327.763L424.905 316.427L427.006 314.567L426.515 312.462L426.613 310.751L424.905 303.503L419.73 307.277L404.957 304.139L396.649 305.928L390.878 306.68L376.719 304.121L368.394 304.738L361.413 305.468L349.512 312.462L349.471 321.811L348.972 331.92L348.929 340.77L360.824 348.353L368.394 361.658L374.412 363.048L384.46 369.077L390.995 374.743L396.649 382.498L402.858 375.298L421.912 372.076L424.905 370.786L428.125 372.304L447.744 374.504L453.16 387.749L454.839 370.76L455.384 369.077Z" stroke="#F9F9F7" stroke-width="1.5" stroke-linecap="round" stroke-linejoin="round"/>
<path d="M454.679 425.693L454.255 424.595L453.16 410.341L447.342 419.864L436.394 414.182L424.905 416.077L412.413 413.178L408.839 413.48L396.649 406.7L389.421 418.451L388.11 425.693L392.926 429.423L396.649 433.684L407.379 436.442L413.7 436.918L424.905 441.659L435.343 443.543L439.681 454L442.54 464.64L442.506 471.635L444.356 482.308L444.938 490.546L453.16 499.997L457.888 487.045L464.644 482.308L462.775 472.675L462.735 463.593L461.385 454L459.288 447.861L455.261 427.797L454.679 425.693Z" stroke="#F9F9F7" stroke-width="1.5" stroke-linecap="round" stroke-linejoin="round"/>
<path d="M385.445 1.07582L386.707 11.036L391.527 24.2519L392.526 29.3837L393.675 32.3636L396.649 33.4326L400 32.7406L408.412 29.3837L412.103 16.5579L411.391 14.614L412.662 1.07582" stroke="#F9F9F7" stroke-width="1.5" stroke-linecap="round" stroke-linejoin="round"/>
<path d="M258.262 170.922L258.949 167.339L255.372 167.377L253.753 169.3L253.49 170.922L253.484 172.814L255.372 175.228L257.21 172.764L258.262 170.922Z" stroke="#F9F9F7" stroke-width="1.5" stroke-linecap="round" stroke-linejoin="round"/>
<path d="M178.812 170.923L177.39 164.126L170.606 143.65L169.71 143.512L170.083 142.615L169.518 141.525L159.36 125.574L155.825 114.307L156.666 100.341L157.073 99.557L159.144 85.9991L159.267 74.6387L159.203 69.1157L159.321 57.6913L156.93 43.9898L157.819 42.1945L151.283 38.3329L142.351 30.4133L132.32 47.6425L132.741 57.6913L129.396 70.6696L129.457 73.0814L122.014 85.9991L120.16 92.0752L121.54 106.849L120.33 114.307L120.61 120.834L123.399 133.294L123.671 142.615L130.837 154.15L142.351 163.372L150.353 162.905L154.302 170.923L164.613 176.927L170.606 183.488L175.579 175.904L178.812 170.923Z" stroke="#F9F9F7" stroke-width="1.5" stroke-linecap="round" stroke-linejoin="round"/>
<path d="M1.07368 91.5606L8.07757 93.0164L20.7215 94.623L29.3291 96.8174L36.2852 92.9685L57.1745 85.9994L57.3914 85.806L57.5845 85.8062L58.2859 85.2968L75.0401 75.1796L82.558 60.9796L84.758 57.6917L84.6805 56.5301L85.8399 51.1169L90.2263 33.7784L94.1002 29.3838L104.765 20.0358L114.095 18.6801L124.96 18.4987L140.079 27.1076L142.351 26.9582L153.546 12.2918L153.958 1.076" stroke="#F9F9F7" stroke-linecap="round" stroke-linejoin="round"/>
<path d="M1.07374 37.652L9.53549 37.8613L20.8679 29.3839L13.8108 16.6232L1.07374 7.42361" stroke="#F9F9F7" stroke-width="1.5" stroke-linecap="round" stroke-linejoin="round"/>
<path d="M-0.5 166L4.5 164L6.5 158L4.5 155L-1 154" stroke="#F9F9F7" stroke-width="2" stroke-linecap="round" stroke-linejoin="round"/>
<path d="M62.8962 227.538L63.0891 222.023L57.5845 203.256L48.6486 208.183L41.6276 211.552L29.3291 220.893L27.064 225.269L27.0748 227.538L27.7401 229.13L29.3291 230.065L33.7235 231.941L47.7737 237.367L57.5845 242.189L63.3743 233.339L62.8962 227.538Z" stroke="#F9F9F7" stroke-width="1.5" stroke-linecap="round" stroke-linejoin="round"/>
<path d="M537.926 236.599L532.877 232.597L526.955 227.538L522.582 214.603L523.208 212.793L521.729 199.23L520.153 188.728L512.003 173.258L511.31 170.922L511.247 169.343L509.671 169.496L506.933 168.179L491.993 160.325L481.415 156.048L467.983 157.465L458.942 170.922L457.533 175.303L453.16 178.875L441.793 187.842L426.27 199.23L426.015 200.343L424.905 201.09L423.749 200.388L422.775 199.23L403.027 192.841L396.649 192.683L391.049 193.62L381.14 199.23L375.039 205.888L368.394 207.65L360.273 219.402L354.558 227.538L352.567 239.989L344.241 251.735L342.4 255.846L341.178 256.887L340.138 257.557L339.343 256.643L338.772 255.846L336.721 252.422L328.119 239.58L323.076 227.538L319.443 219.964L318.169 205.528L316.413 199.23L317.795 193.307L314.889 173.933L317.002 170.922L314.421 168.38L311.883 167.245L305.065 164.092L295.912 158.615L283.628 155.22L271.136 155.129L268.779 142.615L272.087 131.053L272.753 125.201L275.133 114.307L268.583 101.072L266.833 97.4813L261.209 85.9989L268.777 72.5697L268.846 71.1899L269.986 71.3576L283.628 65.6914L289.321 63.3953L291.595 57.6911L298.279 44.0613L300.845 40.4416L308.136 29.3833L309.181 26.6761L311.883 24.183L320.385 9.5934L322.02 1.07548" stroke="#F9F9F7" stroke-width="1.5" stroke-linecap="round" stroke-linejoin="round"/>
<path d="M537.926 507.993L532.165 504.845L528.775 510.617L532.748 515.804L537.926 517.698" stroke="#F9F9F7" stroke-width="1.5" stroke-linecap="round" stroke-linejoin="round"/>
<path d="M537.926 146.043L534.826 145.72L534.926 142.614L534.578 139.26L529.926 122.322L529.361 114.307L523.223 100.73L509.671 93.5301L502.351 93.3325L502.398 85.9988L504.944 81.2632L509.671 78.867L523.488 71.5341L529.753 57.691L530.744 50.4949L535.686 31.6278L536.071 29.3831L536.093 27.5468L537.926 25.5503" stroke="#F9F9F7" stroke-width="1.5" stroke-linecap="round" stroke-linejoin="round"/>
<path d="M519.311 482.309L517.89 474.075L509.671 465.051L497.254 469.869L484.611 482.309L502.077 489.917L509.671 502.36L520.653 493.312L519.311 482.309Z" stroke="#F9F9F7" stroke-width="1.5" stroke-linecap="round" stroke-linejoin="round"/>
<path d="M488.505 114.307L488.457 107.253L481.415 107.44L476.156 109.038L469.907 114.307L472.121 123.619L481.415 125.431L486.994 119.896L488.505 114.307Z" stroke="#F9F9F7" stroke-width="1.5" stroke-linecap="round" stroke-linejoin="round"/>
<path d="M441.025 397.385L434.487 387.785L424.905 383.27L415.052 387.514L405.974 397.385L416.866 405.439L424.905 407.305L433.407 405.903L441.025 397.385Z" stroke="#F9F9F7" stroke-width="1.5" stroke-linecap="round" stroke-linejoin="round"/>
<path d="M461.478 340.769L455.875 338.049L453.16 336.977L446.731 334.329L441.389 340.769L433.648 349.529L424.905 353.138L418.401 347.285L417.496 340.769L418.82 334.673L424.905 329.36L433.861 321.434L431.769 312.461L432.183 305.169L427.949 287.204L428.279 284.154L426.69 282.365L424.905 281.545L423.216 282.461L419.777 284.154L407.448 294.972L396.649 297.298L383.256 299.043L382.012 298.818L368.394 299.828L356.974 301.021L343.873 308.72L340.139 309.716L339.153 311.474L339.068 312.461L338.914 313.688L338.369 338.997L338.086 340.769L338.981 341.929L340.139 342.738L347.738 348.382L355.717 353.47L359.563 360.23L365.661 369.077L365.647 371.829L368.394 379.413L377.89 387.871L385.249 397.385L380.496 409.509L380.929 413.134L378.655 425.693L388.804 433.552L396.649 442.532L405.759 444.874L421.927 454.001L422.897 456.012L424.905 458.897L431.898 475.302L433.113 482.308L433.737 491.157L424.905 505.332L422.577 508.284L420.925 510.616L423.063 512.462L424.905 512.658L426.869 512.584L448.384 515.401L453.16 515.272L455.796 513.257L456.2 510.616L460.05 503.713L463.927 493.095L479.309 482.308L478.801 479.689L473.186 462.245L472.026 454.001L467.217 439.918L467.181 439.739L463.296 425.693L460.47 418.369L459.333 403.569L457.818 397.385L459.209 391.325L460.665 376.596L463.099 369.077L463.387 358.832L461.096 348.72L461.478 340.769Z" stroke="#F9F9F7" stroke-width="1.5" stroke-linecap="round" stroke-linejoin="round"/>
<path d="M389.299 1.07599L390.127 7.61021L396.649 25.4951L406.252 10.696L407.154 1.07599" stroke="#F9F9F7" stroke-width="1.5" stroke-linecap="round" stroke-linejoin="round"/>
<path d="M365.761 538.924L364.919 535.442L366.104 512.91L364.842 510.616L366.428 508.647L368.394 508.66L370.537 508.469L374.577 510.616L374.055 516.288L375.881 531.423L375.416 538.924" stroke="#F9F9F7" stroke-width="1.5" stroke-linecap="round" stroke-linejoin="round"/>
<path d="M259.008 29.3837L258.328 26.4221L255.372 20.4562L250.847 24.8503L235.971 29.3837L247.24 37.5312L255.372 38.2988L259.163 33.1816L259.008 29.3837Z" stroke="#F9F9F7" stroke-width="1.5" stroke-linecap="round" stroke-linejoin="round"/>
<path d="M264.808 170.922L267.051 159.222L255.372 159.347L250.083 165.623L249.225 170.922L249.207 177.099L255.372 184.98L261.374 176.935L264.808 170.922Z" stroke="#F9F9F7" stroke-width="1.5" stroke-linecap="round" stroke-linejoin="round"/>
<path d="M183.54 1.07569L190.287 9.6662L198.861 14.7845L203.196 25.0413L216.887 29.3835L209.647 40.1893L198.861 56.764L198.279 57.1079L197.367 57.6913L183.653 70.7626L183.716 72.8653L179.447 85.9991L174.577 89.9773L170.606 91.8373L162.921 106.608L162.458 114.307L164.407 120.518L170.606 130.253L177.078 136.131L178.235 142.615L180.87 152.898L182.796 158.71L185.351 170.923L179.541 179.875L170.606 193.502L159.837 181.712L143.797 172.371L142.351 171.41L141.904 171.371L141.009 170.923L125.264 159.733L119.891 148.421L116.284 142.615L116.222 140.484L114.095 130.983L112.151 116.255L111.778 114.307L109.603 109.806L108.421 91.6838L86.8946 87.0558L85.8399 86.4302L85.2035 86.6367L63.0559 91.4807L57.5845 93.9146L44.0658 99.5429L43.152 99.8478L29.3291 107.496L20.2105 105.172L12.6797 102.679L1.07366 100.267" stroke="#F9F9F7" stroke-width="1.8" stroke-linecap="round" stroke-linejoin="round"/>
<path d="M123.622 57.6918L123.238 48.532L114.095 35.8427L103.632 47.2092L99.0228 57.6918L101.622 70.1883L114.095 75.5459L121.667 65.2771L123.622 57.6918Z" stroke="#F9F9F7" stroke-width="1.5" stroke-linecap="round" stroke-linejoin="round"/>
<path d="M1.07373 31.6401L3.38318 31.6973L6.47607 29.3835L4.55 25.9008L1.07373 23.39" stroke="#F9F9F7" stroke-width="1.5" stroke-linecap="round" stroke-linejoin="round"/>
<path d="M0 213.5L6 215.5L8.5 216L13.5 218.591L17.5 223L20.4408 227.538L23.0641 233.815L29.3291 237.503L42.1692 242.982L47.6082 245.851L57.5845 250.755L66.759 236.73L66.0016 227.538L66.3071 218.8L61.8088 203.463L62.1098 199.231L62.5813 194.225L57.787 171.126L57.8252 170.923L57.6657 170.841L57.5845 170.814L57.3858 170.724L34.558 165.684L29.3291 159.666L19.1721 152.791L17.4523 142.615L12.1551 131.513L3 126.5" stroke="#F9F9F7" stroke-width="2.4" stroke-linecap="round" stroke-linejoin="round"/>
<path d="M-4.5 206L3.5 209L10 210L17.5 215.5L22.5 218L28 217L39 209L51.5 202.5L57.8252 198.5L59 194.225L55.5 174.5L31.5 168.5L25.5 161.5L16.5 157.5L14.5 154L10.5 156.5L9.5 162.5L9 166L5.5 169L1.5 170.5H-0.5" stroke="#F9F9F7" stroke-width="2" stroke-linecap="round" stroke-linejoin="round"/>
<path d="M537.926 134.132L533.656 118.585L533.354 114.307L529.569 105.934L530.663 93.2758L516.72 93.0618L509.671 89.3167L506.446 89.2297L506.467 85.999L507.589 83.913L509.671 82.8574L516.339 79.3189L531.045 79.1053L529.897 65.7353L533.538 57.6913L534.069 53.8271L537.926 39.1028" stroke="#F9F9F7" stroke-width="1.5" stroke-linecap="round" stroke-linejoin="round"/>
<path d="M537.926 496.186L528.964 491.287L527.868 482.308L525.767 470.126L527.876 464.069L520.205 454L512.206 451.46L509.671 451.179L506.04 450.363L483.214 452.198L481.415 451.273L473.975 433.147L471.913 425.693L466.685 412.143L466.584 410.834L463.289 397.385L466.315 384.205L466.49 382.432L470.814 369.077L471.104 358.746L474.342 347.856L474.682 340.769L460.185 333.731L453.16 330.956L440.078 325.568L437.022 312.461L437.754 299.588L436.964 296.235L438.27 284.153L431.977 277.068L424.905 273.821L418.215 277.451L404.593 284.153L400.359 287.87L396.649 288.669L391.469 289.343L378.398 294.176L368.394 294.917L356.399 296.17L350.416 294.45L340.138 297.189L334.657 306.97L334.185 312.461L333.328 319.285L333.019 333.636L331.879 340.769L335.481 345.435L340.138 348.694L351.822 357.372L359.89 369.077L359.847 377.639L366.205 395.191L366.181 397.385L365.113 400.672L368.394 416.471L369.379 424.706L369.2 425.693L384.682 437.682L396.649 451.38L398.731 451.915L402.425 454L407.818 465.19L409.533 469.4L417.859 482.308L408.567 494.248L398.434 508.828L397.167 510.616L412.068 523.477L424.905 524.842L438.593 524.329L439.37 524.431L453.16 524.059L460.77 518.24L461.936 510.616L468.919 498.097L481.415 488.009L495.416 496.589L505.818 510.616L504.874 515.422L505.96 535.206L504.562 538.924" stroke="#F9F9F7" stroke-width="1.5" stroke-linecap="round" stroke-linejoin="round"/>
<path d="M519.581 369.077L513.483 365.258L509.671 364.861L505.735 365.133L504.147 369.077L507.774 370.977L509.671 371.135L512.729 372.141L519.581 369.077Z" stroke="#F9F9F7" stroke-width="1.5" stroke-linecap="round" stroke-linejoin="round"/>
<path d="M484.213 114.306L484.194 111.523L481.416 111.597L479.34 112.228L476.875 114.306L477.748 117.98L481.416 118.695L483.616 116.512L484.213 114.306Z" stroke="#F9F9F7" stroke-width="1.5" stroke-linecap="round" stroke-linejoin="round"/>
<path d="M426.769 397.385L426.013 396.275L424.905 395.753L423.765 396.244L422.716 397.385L423.975 398.317L424.905 398.532L425.888 398.37L426.769 397.385Z" stroke="#F9F9F7" stroke-width="1.5" stroke-linecap="round" stroke-linejoin="round"/>
<path d="M393.153 1.07547L393.547 4.18372L396.649 12.6914L401.217 5.65161L401.646 1.07547" stroke="#F9F9F7" stroke-width="1.5" stroke-linecap="round" stroke-linejoin="round"/>
<path d="M360.305 538.924L357.72 528.23L358.104 520.925L352.436 510.616L359.561 501.767L368.394 501.827L378.022 500.97L396.178 510.616L396.13 511.136L390.354 532.617L389.963 538.924" stroke="#F9F9F7" stroke-width="1.5" stroke-linecap="round" stroke-linejoin="round"/>
<path d="M318.43 1.07605L317.374 6.57738L311.883 16.0001L304.929 22.4166L302.24 29.3839L294.836 40.6131L290.669 50.6376L287.21 57.6917L286.187 60.2562L283.628 61.2885L277.495 63.836L258.754 61.08L257.612 83.7556L256.348 85.9995L257.287 87.9181L265.299 104.362L270.221 114.307L267.555 126.513L265.146 132.823L262.344 142.615L263.966 151.225L255.372 151.317L246.414 161.948L244.961 170.923L244.93 181.385L255.372 194.734L265.538 181.107L271.354 170.923L273.332 160.608L283.628 160.682L291.639 162.897L305.053 170.923L307.469 175.346L311.883 196.211L312.277 198.836L312.185 199.231L312.302 199.65L314.529 224.887L315.801 227.539L318.633 234.301L322.182 245.528L328.364 255.846L333.281 262.717L340.138 270.591L349.098 264.822L359.627 255.846L362.343 249.784L359.239 236.71L360.706 227.539L363.881 223.018L368.394 216.488L382.013 212.876L394.517 199.231L395.879 198.459L396.649 198.331L397.526 198.352L400.241 199.231L411.521 212.639L424.905 220.766L437.764 212.114L440.721 199.231L447.902 193.963L453.16 189.815L463.548 181.33L466.896 170.923L472.737 162.229L481.415 161.313L488.249 164.076L501.272 170.923L504.207 176.397L509.671 178.001L516.992 191.896L518.092 199.231L519.126 208.703L514.165 223.036L515.688 227.539L527.69 237.793L537.926 245.906" stroke="#F9F9F7" stroke-width="1.5" stroke-linecap="round" stroke-linejoin="round"/>
<path d="M-0.5 218.5L4.5 220.5L7.5 221.5L10 222.5L12 225L13.8067 227.539L18.388 238.5L29.3291 244.94L36.9635 248.198L51.4631 255.847L54.586 258.851L57.5845 259.609L64.8476 263.123L69.1992 255.847L64.1786 249.24L70.1438 240.121L69.1069 227.539L69.5252 215.576L67.705 209.37L68.4262 199.231L69.5559 187.237L68.4237 181.782L70.4716 170.923L61.933 166.567L57.5845 165.119L46.9435 160.262L41.2293 159.001L29.3291 145.304L27.7276 144.22L27.4564 142.615L25.7413 139.021L29.3291 132.97L32.3559 117.34L34.7158 114.307L48.8713 105.578L57.5845 101.95L68.6102 97.0457L76.5469 95.3098L85.8399 92.2935L99.6413 100.481L106.323 114.307L107.573 120.842L109.892 138.404L110.621 142.615L109.654 147.065L114.095 157.798L118.32 166.691L124.275 170.923L136.326 176.959L142.351 177.491L155.395 186.162L167.586 199.231L169.061 200.779L170.606 202.632L172.542 201.171L173.427 199.231L178.796 191.026L183.504 183.845L191.89 170.923L190.041 162.086L188.823 152.672L186.246 142.615L183.873 129.323L170.606 117.273L169.453 115.462L169.091 114.307L169.177 112.876L170.606 110.129L178.439 106.46L187.825 103.25L198.862 94.8687L202.235 89.3791L205.181 85.9996L214.331 73.1897L227.117 62.1006L232.154 62.7386L237.392 57.6918L250.008 52.3177L255.372 52.824L265.339 39.3695L264.931 29.384L263.145 21.5972L255.372 5.91147L243.475 17.4644L237.064 19.418L227.117 24.2001L214.94 17.1844L211.977 16.2446L210.49 12.726L202.906 1.07614" stroke="#F9F9F7" stroke-width="1.5" stroke-linecap="round" stroke-linejoin="round"/>
<path d="M114.502 57.6912L114.486 57.3003L114.095 56.7588L113.649 57.2438L113.452 57.6912L113.563 58.2245L114.095 58.4531L114.419 58.0149L114.502 57.6912Z" stroke="#F9F9F7" stroke-width="1.5" stroke-linecap="round" stroke-linejoin="round"/>
<path d="M3 126.5L8.51792 121.765L18.8291 114.307L5.4823 109.89L1.07371 108.974" stroke="#F9F9F7" stroke-width="2.4" stroke-linecap="round" stroke-linejoin="round"/>
<path d="M537.926 55.1307L537.395 57.1588L537.322 57.691L536.82 58.799L537.926 71.6777" stroke="#F9F9F7" stroke-width="1.5" stroke-linecap="round" stroke-linejoin="round"/>
<path d="M537.926 101.011L536.869 113.248L537.348 114.307L537.386 114.848L537.926 116.815" stroke="#F9F9F7" stroke-width="1.5" stroke-linecap="round" stroke-linejoin="round"/>
<path d="M537.926 446.173L528.61 444.667L521.304 442.346L509.671 441.054L497.145 438.241L486.304 430.59L481.415 428.075L480.723 426.387L480.531 425.693L479.973 424.247L471.255 407.565L468.76 397.385L471.127 387.077L477.143 373.357L478.529 369.077L478.608 366.264L481.415 356.822L491.789 358.685L487.605 369.077L502.094 376.668L509.671 377.297L521.886 381.315L528.794 378.226L527.016 386.454L532.882 397.385L533.098 402.222L537.926 406.943" stroke="#F9F9F7" stroke-width="1.5" stroke-linecap="round" stroke-linejoin="round"/>
<path d="M537.926 475.283L536.112 480.492L536.426 482.309L536.589 483.648L537.926 484.379" stroke="#F9F9F7" stroke-width="1.5" stroke-linecap="round" stroke-linejoin="round"/>
<path d="M354.849 538.924L351.981 527.059L340.138 510.707L340.057 510.698L339.812 510.616L340.033 510.51L336.025 486.429L337.367 482.308L337.344 479.508L339.739 454.4L339.735 454L339.765 453.627L336.757 429.08L336.943 425.693L336.637 422.184L340.138 415.018L350.326 407.591L353.642 397.385L353.789 383.709L354.05 383.014L354.119 369.077L348.408 360.792L340.138 354.649L331.981 348.942L325.672 340.769L327.668 328.276L327.741 324.882L329.302 312.461L330.162 302.466L340.138 284.663L340.54 284.556L361.871 290.688L368.394 290.007L373.834 289.604L388.577 284.153L391.811 279.306L396.649 280.705L403.635 277.154L413.214 272.441L424.905 266.097L437.264 271.771L448.261 284.153L447.666 289.658L442.862 302.144L442.275 312.461L444.336 321.301L453.16 324.936L464.495 329.413L475.331 334.674L481.415 337.41L484.208 337.971L491.319 340.769L497.377 353.086L509.671 352.235L522.444 353.566L526.422 352.295L537.926 355.637" stroke="#F9F9F7" stroke-width="1.5" stroke-linecap="round" stroke-linejoin="round"/>
<path d="M418.584 538.924L422.786 536.801L424.905 537.027L426.872 536.953L447.252 533.005L453.16 532.846L465.744 523.224L467.672 510.616L472.599 501.783L481.416 494.666L491.294 500.72L498.632 510.616L495.927 524.385L495.972 525.199L490.812 538.924" stroke="#F9F9F7" stroke-width="1.5" stroke-linecap="round" stroke-linejoin="round"/>
<path d="M537.926 255.212L534.898 252.812L522.454 243.039L509.671 232.184L506.673 230.542L504.481 227.538L504.714 222.572L509.671 220.135L515.043 204.613L514.456 199.23L513.831 195.063L509.671 187.168L497.13 183.487L490.394 170.923L484.506 167.827L481.415 166.577L477.491 166.991L474.85 170.923L471.728 180.628L473.188 190.987L459.06 199.23L456.526 202.602L461.691 218.991L460.134 227.538L457.467 231.853L453.16 235.112L444.759 235.954L433.188 235.837L424.905 236.9L419.261 233.193L398.682 229.574L396.649 228.84L394.115 230.077L385.403 227.538L371.399 224.527L368.394 225.325L367.49 226.633L366.854 227.538L366.56 229.376L368.394 237.1L373.95 250.28L371.926 255.846L373.327 260.788L368.394 264.105L357.454 273.194L341.618 282.671L340.138 283.624L327.219 268.789L317.956 255.846L315.678 252.044L311.883 240.039L308.827 230.6L308.872 227.538L308.279 223.928L306.12 205.004L305.051 199.23L301.334 188.662L300.082 182.745L293.625 170.923L287.366 167.177L283.628 166.144L278.823 166.109L277.901 170.923L270.241 184.334L269.731 185.308L259.785 199.23L258.257 202.121L255.372 204.885L246.992 207.626L235.878 199.23L236.106 190.225L240.656 184.487L240.696 170.923L242.744 158.271L255.372 143.286L256.035 143.279L255.91 142.615L256.126 141.86L263.525 122.475L265.309 114.307L262.015 107.652L255.372 94.0167L247.688 93.6976L228.405 85.9991L227.896 85.2188L227.117 85.1202L226.647 85.528L226.31 85.9991L220.745 92.3824L213.437 100.602L204.379 114.307L202.887 118.339L198.861 124.914L193.253 136.996L194.256 142.615L195.197 146.286L198.314 170.374L198.429 170.923L197.625 172.162L187.48 187.828L180.02 199.23L177.067 205.704L170.606 210.58L165.45 204.396L160.528 199.23L151.747 189.817L142.351 183.571L130.748 182.547L120.649 177.488L114.095 176.205L109.536 175.491L95.8599 170.923L108.122 164.938L103.343 153.387L105.684 142.615L103.918 132.419L102.995 125.428L100.868 114.307L95.9655 104.162L85.8398 98.1559L73.6636 102.108L65.3431 106.534L57.5845 109.985L54.5371 111.254L49.5865 114.307L40.7118 125.711L39.3904 132.535L35.4305 142.615L46.0583 154.162L57.5845 159.423L66.2002 162.291L83.1179 170.923L82.4838 174.285L75.6994 189.071L74.7425 199.23L73.8911 211.201L79 207L80.692 204.388" stroke="#F9F9F7" stroke-width="2.2" stroke-linecap="round" stroke-linejoin="round"/>
<path d="M392.048 454.001L380.879 441.493L368.394 431.406L359.252 434.853L348.142 433.712L341.569 452.568L340.571 454.001L340.753 454.617L344.074 478.367L345.914 482.309L355.817 494.909L368.394 494.994L380.023 493.96L394.061 482.309L394.665 480.321L391.273 459.387L392.048 454.001Z" stroke="#F9F9F7" stroke-width="1.5" stroke-linecap="round" stroke-linejoin="round"/>
<path d="M261.515 1.07538L264.927 10.6473L267.961 16.7712L270.854 29.3832L271.357 41.6767L283.628 55.4746L291.285 37.0549L296.343 29.3832L300.677 18.1558L311.883 7.81595L314.363 3.56011L314.84 1.07538" stroke="#F9F9F7" stroke-width="1.5" stroke-linecap="round" stroke-linejoin="round"/>
<path d="M210.446 1.0759L217.026 11.1853L227.117 16.999L237.857 11.8359L248.82 1.0759" stroke="#F9F9F7" stroke-width="1.5" stroke-linecap="round" stroke-linejoin="round"/>
<path d="M231.381 227.538L234.312 220.329L227.117 210.185L224.212 224.628L224.103 227.538L224.3 230.36L227.117 233.763L229.489 229.915L231.381 227.538Z" stroke="#F9F9F7" stroke-width="1.5" stroke-linecap="round" stroke-linejoin="round"/>
<path d="M537.926 330.4L532.032 334.865L511.115 339.324L509.671 339.9L508.47 339.567L489.907 332.262L481.415 330.556L468.95 324.951L463.795 323.117L453.16 318.916L448.595 317.036L447.528 312.462L447.832 307.124L453.16 293.276L456.42 287.42L456.669 284.154L456.796 280.512L453.16 273.605L445.204 263.817L429.561 260.511L424.905 258.374L419.401 261.361L408.322 267.541L396.649 273.473L382.996 269.525L379.12 255.846L383.799 242.973L396.649 236.698L410.694 241.775L411.369 242.286L424.905 251.176L430.251 250.49L444.473 247.143L453.16 246.272L463.812 238.211L470.41 227.539L472.109 218.215L481.415 207.895L493.932 214.999L493.344 227.539L500.238 236.989L509.671 242.155L517.068 248.436L526.504 255.846L530.951 262.834L537.926 276.426" stroke="#F9F9F7" stroke-width="1.5" stroke-linecap="round" stroke-linejoin="round"/>
<path d="M537.926 420.436L526.283 409.05L525.761 397.385L520.135 386.901L509.671 383.46L496.414 382.359L492.765 380.447L481.415 378.215L475.575 391.534L474.232 397.385L475.648 403.164L481.415 414.201L488.892 418.202L499.339 425.693L505.401 429.971L509.671 430.93L515.55 431.583L532.991 430.637L537.926 431.435" stroke="#F9F9F7" stroke-width="1.5" stroke-linecap="round" stroke-linejoin="round"/>
<path d="M510.819 199.23L510.669 198.23L509.671 196.335L505.583 195.135L498.35 199.23L499.836 209.083L509.671 204.248L510.96 200.522L510.819 199.23Z" stroke="#F9F9F7" stroke-width="1.5" stroke-linecap="round" stroke-linejoin="round"/>
<path d="M491.447 510.616L487.171 504.85L481.416 501.323L476.279 505.47L473.408 510.616L471.96 520.089L481.416 533.69L489.797 519.013L491.447 510.616Z" stroke="#F9F9F7" stroke-width="1.5" stroke-linecap="round" stroke-linejoin="round"/>
<path d="M371.646 284.154L378.198 274.332L368.394 280.924L366.631 282.388L363.681 284.154L367.343 285.207L368.394 285.097L369.27 285.032L371.646 284.154Z" stroke="#F9F9F7" stroke-width="1.5" stroke-linecap="round" stroke-linejoin="round"/>
<path d="M385.51 454L377.429 444.949L368.394 437.65L356.536 442.121L348.261 454L351.692 465.575L352.325 470.1L358.024 482.308L362.592 488.121L368.394 488.16L373.759 487.683L380.235 482.308L384.067 469.703L383.636 467.038L385.51 454Z" stroke="#F9F9F7" stroke-width="1.5" stroke-linecap="round" stroke-linejoin="round"/>
<path d="M340.138 398.645L340.866 398.114L341.103 397.385L341.113 396.408L348.307 377.261L348.348 369.077L344.995 364.212L340.138 360.605L328.48 352.449L319.465 340.769L320.91 331.726L323.017 323.616L324.419 312.462L325.601 298.718L325.227 297.522L328.165 284.154L320.638 275.383L311.883 262.696L308.336 259.399L306.314 255.846L306.477 250.43L302.205 237.234L302.348 227.538L300.471 216.105L299.913 211.222L297.693 199.23L294.029 188.81L283.628 172.662L274.504 190.09L267.974 199.23L263.61 207.484L255.372 215.378L246.222 218.371L242.493 227.538L235.673 236.11L227.117 249.985L216.96 237.714L216.249 227.538L216.642 217.044L218.485 207.878L218.931 199.23L219.159 191.258L227.117 191.939L236.404 180.227L236.432 170.923L238.235 159.784L235.278 150.791L240.362 142.615L245.015 132.239L255.372 129.238L259.495 118.437L260.397 114.307L258.732 110.941L255.372 104.046L244.688 103.603L235.027 106.382L227.117 105.71L223.074 110.257L220.398 114.307L216.436 125.008L215.015 130.49L208.597 142.615L206.066 149.833L208.69 161.076L207.323 170.923L207.533 179.61L198.861 180.392L191.463 191.818L186.613 199.23L181.592 210.237L170.606 218.529L161.839 208.013L153.47 199.23L148.098 193.472L142.351 189.651L131.865 188.726L122.061 191.25L114.095 189.69L102.808 187.922L97.2775 187.772L85.8398 185.332L81.4711 194.854L81.0588 199.23L80.692 204.388" stroke="#F9F9F7" stroke-width="2.2" stroke-linecap="round" stroke-linejoin="round"/>
<path d="M270.717 1.07591L274.114 10.6075L274.733 20.4728L276.778 29.3837L277.047 35.9765L283.628 43.376L287.734 33.4979L290.447 29.3837L294.746 18.245L295.178 12.648L308.729 1.07591" stroke="#F9F9F7" stroke-width="1.5" stroke-linecap="round" stroke-linejoin="round"/>
<path d="M217.985 1.07557L221.589 6.61324L227.117 9.79785L233 6.96958L239.005 1.07557" stroke="#F9F9F7" stroke-width="1.5" stroke-linecap="round" stroke-linejoin="round"/>
<path d="M95.4124 114.307L92.2899 107.845L85.8399 104.019L78.0837 106.536L63.475 114.307L60.8042 117.533L57.5845 119.728L47.074 132.085L42.9373 142.615L49.9639 150.25L57.5845 153.728L70.4675 158.016L75.5404 160.604L85.8399 165.083L98.0815 154.879L100.747 142.615L98.543 129.888L97.6825 126.172L95.4124 114.307Z" stroke="#F9F9F7" stroke-width="1.5" stroke-linecap="round" stroke-linejoin="round"/>
<path d="M514.247 255.846L511.682 253.832L509.671 252.124L501.476 247.636L492.39 244.852L484.357 230.485L482.207 227.538L482.246 226.706L481.416 226.235L480.798 226.92L480.685 227.538L479.497 229.461L471.876 246.289L456.867 255.846L456.434 259.127L463.929 273.365L463.553 284.154L462.816 293.828L453.16 311.172L452.802 312.103L452.781 312.462L452.853 312.769L453.16 312.896L453.875 313.178L473.672 320.219L481.416 323.701L495.448 326.521L495.625 326.534L509.671 330.432L522.494 325.309L537.914 312.462L537.912 312.447L531.677 290.415L531.077 284.154L523.497 270.302L522.3 268.499L514.247 255.846Z" stroke="#F9F9F7" stroke-width="1.5" stroke-linecap="round" stroke-linejoin="round"/>
<path d="M518.641 397.385L515.504 391.541L509.671 389.622L501.222 388.921L485.228 393.565L481.415 392.816L480.023 395.99L479.703 397.385L480.041 398.762L481.415 401.393L490.004 405.99L497.494 409.584L509.671 417.851L519.062 406.793L518.641 397.385Z" stroke="#F9F9F7" stroke-width="1.5" stroke-linecap="round" stroke-linejoin="round"/>
<path d="M484.261 510.616L483.048 508.981L481.416 507.981L479.959 509.157L479.144 510.616L478.734 513.303L481.416 517.161L483.793 512.998L484.261 510.616Z" stroke="#F9F9F7" stroke-width="1.5" stroke-linecap="round" stroke-linejoin="round"/>
<path d="M415.894 255.846L404.931 247.549L396.649 244.555L389.072 248.255L386.313 255.846L388.599 263.911L396.649 266.239L403.532 262.741L415.894 255.846Z" stroke="#F9F9F7" stroke-width="1.5" stroke-linecap="round" stroke-linejoin="round"/>
<path d="M378.973 454.001L373.978 448.407L368.394 443.895L361.065 446.658L355.951 454.001L358.8 463.613L368.394 480.001L377.641 463.265L378.973 454.001Z" stroke="#F9F9F7" stroke-width="1.5" stroke-linecap="round" stroke-linejoin="round"/>
<path d="M279.918 1.07547L280.894 3.81385L282.424 28.1777L282.701 29.3833L282.737 30.2753L283.628 31.2764L284.183 29.9399L284.55 29.3833L285.132 27.8763L286.946 4.40009L290.839 1.07547" stroke="#F9F9F7" stroke-width="1.5" stroke-linecap="round" stroke-linejoin="round"/>
<path d="M255.485 114.307L255.448 114.231L255.372 114.076L255.132 114.066L254.295 114.307L254.901 114.779L255.372 114.643L255.465 114.4L255.485 114.307Z" stroke="#F9F9F7" stroke-width="1.5" stroke-linecap="round" stroke-linejoin="round"/>
<path d="M213 238.5L213.5 242.238L216.5 248L220.5 256.5L232.848 261.587L232.927 255.846L241.79 242.238L246.668 236.258L253.606 227.538L254.118 226.281L255.372 225.87L268.963 212.846L276.162 199.23L279.277 194.871L283.628 186.559L288.588 194.26L290.335 199.23L291.863 207.481L294.101 217.045L295.824 227.538L295.646 239.579L293.233 246.223L292.942 255.846L299.82 267.931L311.883 279.144L313.927 282.106L315.684 284.153L314.998 287.275L320.258 304.071L319.536 312.461L318.68 319.271L313.52 339.129L313.258 340.769L317.947 346.844L324.527 356.41L331.814 360.737L340.138 366.561L341.581 367.632L342.577 369.077L342.565 371.508L340.138 377.965L331.554 388.784" stroke="#F9F9F7" stroke-width="1.5" stroke-linecap="round" stroke-linejoin="round"/>
<path d="M225.524 1.07528L226.153 2.0412L227.117 2.59668L228.143 2.10338L229.191 1.07528" stroke="#F9F9F7" stroke-width="1.5" stroke-linecap="round" stroke-linejoin="round"/>
<path d="M232.167 170.922L233.145 164.883L227.117 146.552L217.695 161.483L216.385 170.922L216.638 181.421L227.117 182.317L232.152 175.967L232.167 170.922Z" stroke="#F9F9F7" stroke-width="1.5" stroke-linecap="round" stroke-linejoin="round"/>
<path d="M208.128 199.23L208.402 189.671L198.862 190.532L195.445 195.808L193.206 199.23L188.446 209.665L187.576 216.232L174.9 223.236L170.606 226.477L158.228 211.631L146.412 199.23L144.45 197.127L142.351 195.731L138.521 195.393L123.619 199.23L115.583 200.721L114.095 200.795L112.035 201.294L87.5953 200.989L85.8399 201.845L78.6738 220.358L78.4228 227.538L78.9885 234.402L85.8399 241.602L94.7181 246.951L107.399 255.846L109.769 260.18L114.095 269.104L118.984 279.256L119.894 284.154L129.845 296.682L142.351 309.619L155.4 297.227L162.765 284.154L163.97 277.505L170.606 263.243L178.202 263.456L197.207 255.846L198.022 255.005L198.862 255.209L209.112 237.807L208.395 227.538L208.766 217.615L207.673 208.058L208.128 199.23Z" stroke="#F9F9F7" stroke-width="2" stroke-linecap="round" stroke-linejoin="round"/>
<path d="M89.9572 114.307L88.6141 111.528L85.8398 109.882L82.5036 110.965L76.22 114.307L67.7706 124.512L57.5844 131.458L52.4606 137.482L50.444 142.615L53.8694 146.337L57.5844 148.032L65.6821 150.728L75.3808 153.093L85.8398 157.642L94.027 150.817L95.8096 142.615L94.3357 134.103L90.9336 119.41L89.9572 114.307Z" stroke="#F9F9F7" stroke-width="1.5" stroke-linecap="round" stroke-linejoin="round"/>
<path d="M511.52 397.385L510.874 396.18L509.671 395.784L507.929 395.639L501.919 397.385L507.16 399.9L509.671 401.604L511.607 399.325L511.52 397.385Z" stroke="#F9F9F7" stroke-width="1.5" stroke-linecap="round" stroke-linejoin="round"/>
<path d="M520.54 284.154L516.691 277.121L509.671 266.545L501.707 263.825L482.96 257.393L481.416 256.865L470.808 273.527L470.438 284.154L469.53 296.061L471.806 302.835L469.885 312.462L478.395 315.488L481.416 316.847L486.89 317.947L503.026 319.119L509.671 320.963L515.737 318.539L523.032 312.462L521.435 300.676L521.696 296.201L520.54 284.154Z" stroke="#F9F9F7" stroke-width="1.5" stroke-linecap="round" stroke-linejoin="round"/>
<path d="M402.501 255.846L399.168 253.323L396.649 252.413L394.345 253.538L393.506 255.846L394.201 258.299L396.649 259.007L398.742 257.943L402.501 255.846Z" stroke="#F9F9F7" stroke-width="1.5" stroke-linecap="round" stroke-linejoin="round"/>
<path d="M372.435 454L370.527 451.863L368.394 450.14L365.594 451.196L363.641 454L364.729 457.672L368.394 463.933L371.926 457.539L372.435 454Z" stroke="#F9F9F7" stroke-width="1.5" stroke-linecap="round" stroke-linejoin="round"/>
<path d="M314.915 309.424L314.653 312.462L314.344 314.927L311.883 324.395L303.983 320.376L294.662 323.516L283.628 321.932L271.57 324.542L266.825 323.936L255.372 330.282L246.5 322.5L232.999 312.462L235.776 303.786L238.517 295.575L242.028 284.154L242.389 271.147L241.837 269.407L242.024 255.846L247.294 247.753L255.372 237.852L265.803 237.989L269.266 227.538L276.685 220.583L283.628 201.841L288.498 222.658L289.299 227.538L289.217 233.138L283.628 248.522L276.501 248.706L278.786 255.846L278.716 260.767L283.628 268.321L288.389 279.384L293.698 284.154L303.403 292.65L311.883 299.743L314.915 309.424Z" stroke="#F9F9F7" stroke-width="1.5" stroke-linecap="round" stroke-linejoin="round"/>
<path d="M227.903 170.923L228.055 169.983L227.117 167.13L225.651 169.454L225.447 170.923L225.486 172.557L227.117 172.696L227.901 171.708L227.903 170.923Z" stroke="#F9F9F7" stroke-width="1.5" stroke-linecap="round" stroke-linejoin="round"/>
<path d="M200.54 227.538L200.606 225.791L198.861 210.538L196.874 225.547L193.27 227.538L194.948 231.459L198.861 232.412L200.667 229.347L200.54 227.538Z" stroke="#F9F9F7" stroke-width="1.5" stroke-linecap="round" stroke-linejoin="round"/>
<path d="M165.194 227.538L154.734 215.132L142.351 202.175L139.21 202.377L120.669 205.817L114.095 206.144L104.991 208.351L94.817 208.224L85.8399 212.602L81.674 223.365L81.5281 227.538L81.857 231.529L85.8399 235.714L98.3884 243.274L108.921 250.662L114.095 254.19L115.415 254.524L116.911 255.846L118.177 259.935L124.716 273.514L126.692 284.154L133.631 292.89L142.351 301.91L151.45 293.27L156.585 284.154L158.74 272.266L162.689 263.778L165.039 255.846L165.951 251.182L164.448 233.707L165.194 227.538Z" stroke="#F9F9F7" stroke-width="1.8" stroke-linecap="round" stroke-linejoin="round"/>
<path d="M90.8726 142.615L90.1286 138.318L85.8399 119.797L75.9326 132.689L58.8754 142.615L80.5604 147.904L85.8399 150.2L89.9727 146.755L90.8726 142.615Z" stroke="#F9F9F7" stroke-width="1.5" stroke-linecap="round" stroke-linejoin="round"/>
<path d="M510.003 284.154L509.885 283.939L509.671 283.616L508.857 283.338L488.986 276.569L481.416 273.978L477.46 280.191L477.322 284.154L476.984 288.594L481.416 301.781L494.103 299.751L499.582 302.354L509.671 290.82L510.038 284.521L510.003 284.154Z" stroke="#F9F9F7" stroke-width="1.5" stroke-linecap="round" stroke-linejoin="round"/>
<path d="M299.993 312.462L291.057 305.019L283.628 298.535L270.171 298.981L267.424 300.388L255.372 301.475L252.88 309.965L252.081 312.462L252.851 314.988L255.372 315.083L257.057 314.15L279.127 316.971L283.628 315.997L287.746 316.588L299.993 312.462Z" stroke="#F9F9F7" stroke-width="1.5" stroke-linecap="round" stroke-linejoin="round"/>
<path d="M262.83 255.846L261.019 250.188L255.372 250.114L252.799 253.268L251.12 255.846L251.061 260.166L255.372 273.742L262.725 263.212L262.83 255.846Z" stroke="#F9F9F7" stroke-width="1.5" stroke-linecap="round" stroke-linejoin="round"/>
<path d="M158.949 227.539L151.348 218.524L142.351 209.109L131.812 209.789L125.756 210.913L114.095 211.493L101.2 214.62L93.9682 219.395L85.8399 223.359L84.6743 226.371L84.6334 227.539L84.7254 228.655L85.8399 229.826L91.568 233.277L102.222 239.433L114.095 247.527L120.721 249.208L128.237 255.846L131.578 266.64L131.464 273.248L133.491 284.154L137.417 289.097L142.351 294.201L147.499 289.312L150.405 284.154L152.192 274.295L152.057 265.571L154.938 255.846L157.505 242.721L157.342 240.827L158.949 227.539Z" stroke="#F9F9F7" stroke-width="1.8" stroke-linecap="round" stroke-linejoin="round"/>
<path d="M85.9353 142.615L85.9212 142.533L85.8398 142.182L85.6519 142.427L85.3284 142.615L85.7397 142.715L85.8398 142.759L85.9182 142.693L85.9353 142.615Z" stroke="#F9F9F7" stroke-width="1.5" stroke-linecap="round" stroke-linejoin="round"/>
<path d="M152.704 227.538L147.963 221.916L142.351 216.043L131.571 216.738L125.331 216.282L114.095 216.841L105.499 218.925L92.4559 227.538L106.18 235.468L114.095 240.864L126.027 243.892L139.562 255.846L140.222 257.978L139.818 281.616L140.289 284.154L141.203 285.304L142.351 286.491L143.549 285.354L144.225 284.154L144.641 281.86L144.268 257.767L144.838 255.846L145.444 252.747L151.585 236.789L152.704 227.538Z" stroke="#F9F9F7" stroke-linecap="round" stroke-linejoin="round"/>
<path d="M146.458 227.539L144.577 225.308L142.351 222.978L138.074 223.254L119.713 221.911L114.095 222.19L109.797 223.232L103.276 227.539L110.138 231.504L114.095 234.202L123.002 236.462L134.881 235.022L142.351 240.729L146.014 231.209L146.458 227.539Z" stroke="#F9F9F7" stroke-width="1.2" stroke-linecap="round" stroke-linejoin="round"/>
<path d="M-1 202L5 205L11 206L21 212L26.5 213.5L39.5 203.5L42 194.5V183V175L31 172.5L25.5 167L24 164.5L17.5 163L7.5 173.5L2 177.5H-1.5L-3 177" stroke="#F9F9F7"/>
</g>
<defs>
<clipPath id="clip0_81_10">
<rect width="539" height="540" fill="white" transform="matrix(-1 0 0 -1 539 540)"/>
</clipPath>
</defs>
</svg>
