<svg width="502" height="458" viewBox="0 0 502 458" fill="none" xmlns="http://www.w3.org/2000/svg">
<path d="M281.801 299.789L282.697 307.147L290.054 313.057L292.335 302.071L292.377 299.789L291.857 297.987L290.054 293.067L284.351 294.087L281.801 299.789Z" stroke="#7699D4" stroke-width="1.2"/>
<path d="M444.632 405.053L443.303 409.699L447.949 418.818L450.384 407.488L449.559 405.053L449.487 403.515L449.674 380.462L449.601 378.737L449.39 377.296L447.949 376.152L445.636 376.424L440.969 378.737L443.153 383.533L443.546 400.649L444.632 405.053Z" stroke="#7699D4" stroke-width="1.2"/>
<path d="M329.42 418.318L316.37 416.374L306.017 415.405L299.457 414.455L290.054 413.489L284.696 410.41L282.135 405.052L273.916 394.875L273.598 388.597L270.336 378.737L270.72 371.755L269.983 358.666L270.418 352.421L273.74 342.419L270.554 332.92L283.248 332.911L290.054 328.82L291.94 327.991L292.907 326.105L292.986 323.174L296.502 306.238L296.621 299.789L295.15 294.694L290.054 280.787L281.148 282.38L274.049 273.474L266.727 270.485L263.738 270.128L261.385 271.12L261.937 273.474L259.929 277.283L263.738 290.826L269.143 294.385L266.726 299.789L267.14 303.191L263.738 307.679L261.132 302.396L260.184 299.789L244.977 292.235L237.423 294.643L230.542 292.909L217.562 293.334L211.107 289.708L207.721 296.404L207.068 299.789L205.958 304.938L204.88 319.879L202.938 326.105L200.034 337.178L206.674 347.989L193.531 343.681L184.791 348.641L181.422 349.052L161.008 349.888L158.475 350.155L157.217 351.163L156.46 352.421L156.343 354.554L154.909 375.17L154.718 378.737L150.536 386.676L149.35 395.927L139.716 397.496L132.159 401.666L124.692 397.586L115.553 395.343L111.505 384.398L107.905 378.737L107.086 377.494L105.844 377.122L104.529 377.422L101.869 378.737L93.3498 391.231L92.8706 392.08L91.7328 392.848L79.5278 402.21L76.5653 402.09L57.8777 400.387L53.212 400.216L51.1122 402.953L50.428 405.052L46.7509 411.514L44.4806 422.637L34.1209 424.144L26.8962 427.949L24.7592 429.231L23.2477 431.368L22.2105 436.054L20.4387 451.227L18.5659 457.684" stroke="#7699D4" stroke-width="1.2"/>
<path d="M234.804 247.158L235.575 249.006L237.423 249.148L239.991 249.726L241.095 247.158L239.709 244.871L237.423 243.935L235.783 245.518L234.804 247.158Z" stroke="#7699D4" stroke-width="1.2"/>
<path d="M329.74 417.999L332.166 405.052L337.892 400.259L342.686 398.493L351.349 396.389L360.059 396.11L369.002 392.263L377.556 387.291L384.977 378.737L388.517 371.936L395.317 356.779L401.979 372.075L413.278 378.737L408.476 391.894L407.161 405.052L411.597 415.089L421.633 423.337L433.194 416.614L436.502 405.052L433.559 393.126L429.59 386.694L425.968 378.737L440.666 371.454L447.949 370.598L452.487 374.199L453.151 378.737L453.382 384.17L453.255 399.746L453.507 405.052L456.353 413.456L458.081 417.999" stroke="#7699D4" stroke-width="1.2"/>
<path d="M405.143 326.105L415.016 332.723L421.633 331.203L424.461 328.934L425.252 326.105L423.815 323.924L421.633 321.006L417.413 321.885L405.143 326.105Z" stroke="#7699D4" stroke-width="1.2"/>
<path d="M481.923 423.71L474.265 426.216L461.707 417.611L457.454 405.053L457.024 395.978L457.09 387.878L456.7 378.737L455.583 371.102L447.949 365.043L435.696 366.484L432.108 368.261L421.633 370.752L411.034 363.02L404.513 352.421L410.933 341.721L421.633 339.263L428.934 333.406L430.975 326.105L427.265 320.474L421.633 312.942L410.739 315.211L403.837 317.585L395.317 319.809L390.484 321.272L389.467 326.105L387.187 334.236L386.177 343.281L382.041 352.421L377.851 361.27L369.001 377.561L368.276 378.011L368.306 378.737L352.181 388.232L342.686 390.538L332.078 394.445L319.408 405.053L318.928 407.611L316.37 407.23L314.379 407.044L300.634 405.053L291.315 403.792L290.054 404.065L278.14 390.651L274.199 378.737L274.807 367.668L274.558 363.241L275.312 352.421L278.987 341.354L290.054 334.702L296.024 332.076L299.088 326.105L299.336 316.823L300.669 310.405L300.864 299.79L298.442 291.401L292.926 276.345L291.99 273.474L292.119 271.409L290.054 267.495L282.558 265.978L274.517 262.695L263.738 261.409L255.25 264.986L257.242 273.474L250.401 286.452L237.422 290.589L225.122 287.489L223.349 287.547L211.107 280.672L204.686 293.369L203.447 299.79L201.343 309.553L200.886 315.885L197.698 326.105L195.016 336.331L184.791 342.134L175.621 343.251L167.305 343.592L158.475 344.522L154.089 348.035L151.452 352.421L151.041 359.855L150.297 370.559L149.858 378.737L143.752 390.33L132.159 396.727L120.526 390.37L113.13 378.737L110.235 374.346L105.843 373.031L101.198 374.091L91.7992 378.737L86.8238 386.033L79.5277 391.63L67.1375 391.127L65.6236 391.149L53.2119 390.695L46.9779 398.819L44.9467 405.053L38.3998 416.556L26.8961 422.616L21.4252 425.898L17.5559 431.368L14.9009 443.364L14.6577 445.446L11.1084 457.684" stroke="#7699D4" stroke-width="1.2"/>
<path d="M157.319 141.895L157.691 142.679L158.475 143.673L160.03 143.45L160.462 141.895L160.085 140.285L158.475 136.371L157.479 140.898L157.319 141.895Z" stroke="#7699D4" stroke-width="1.2"/>
<path d="M182.087 220.842L182.524 223.109L184.791 230.717L188.119 224.17L188.16 220.842L187.689 217.944L186.855 196.59L186.584 194.526L186.37 192.947L184.791 186.721L182.718 192.453L182.938 194.526L182.907 196.41L182.129 218.179L182.087 220.842Z" stroke="#7699D4" stroke-width="1.2"/>
<path d="M228.674 247.158L231.248 253.332L237.423 253.807L246.004 255.739L249.69 247.158L245.062 239.519L237.423 236.391L231.944 241.679L228.674 247.158Z" stroke="#7699D4" stroke-width="1.2"/>
<path d="M261.459 141.894L262.56 143.073L263.738 143.108L264.382 142.538L264.546 141.894L264.497 141.136L263.738 134.97L261.934 140.089L261.459 141.894Z" stroke="#7699D4" stroke-width="1.2"/>
<path d="M415.074 405.052L417.085 409.601L421.633 413.339L426.873 410.292L428.372 405.052L427.038 399.647L421.633 390.888L415.67 399.089L415.074 405.052Z" stroke="#7699D4" stroke-width="1.2"/>
<path d="M500.581 344.164L494.643 346.483L489.077 352.421L492.385 360.617L491.119 369.275L492.788 378.737L492.044 387.273L491.577 396.049L490.733 405.053L486.466 417.254L474.265 421.247L464.656 414.662L461.401 405.053L460.793 392.209L460.798 391.586L460.251 378.737L458.68 368.006L447.949 359.488L439.94 360.43L427.37 358.158L421.633 359.522L417.528 356.527L415.001 352.421L417.489 348.276L421.633 347.324L433.407 337.879L436.699 326.105L430.715 317.024L421.633 304.878L415.206 306.217L403.181 307.653L395.318 309.706L382.729 313.517L380.082 326.105L377.655 334.758L369.002 349.651L364.231 347.65L351.766 343.341L342.686 338.426L337.574 347.309L336.285 352.421L336.55 358.557L342.686 366.352L350.704 370.719L351.034 378.737L345.78 381.831L342.686 382.582L336.598 384.824L324.323 386.69L316.37 392.673L308.489 397.172L299.194 395.914L290.054 397.895L281.043 387.748L278.062 378.737L278.687 367.369L279.469 363.007L280.206 352.421L282.661 345.028L290.054 340.584L300.11 336.16L305.269 326.105L305.559 315.294L304.897 311.262L305.108 299.79L301.735 288.109L300.027 283.447L296.778 273.474L297.225 266.303L290.054 252.709L285.437 251.775L270.019 253.439L263.739 252.689L254.179 256.718L258.286 247.158L250.414 234.167L237.423 228.847L228.105 237.84L222.545 247.158L226.922 257.659L237.423 258.466L249.673 261.224L252.547 273.474L247.327 283.378L237.423 286.534L226.991 283.906L212.671 273.474L214.382 270.199L211.107 270.886L209.49 271.857L209.847 273.474L209.226 275.355L201.652 290.335L199.827 299.79L197.161 312.16L195.935 314.962L192.459 326.105L190.866 332.18L184.791 335.627L173.949 336.947L170.04 337.67L158.475 338.889L150.961 344.907L146.443 352.421L145.74 365.157L145.685 365.947L145 378.737L140.57 387.147L132.16 391.788L123.72 387.176L118.355 378.737L113.384 371.197L105.844 368.939L97.8672 370.76L81.7294 378.737L80.8369 380.046L79.5281 381.05L77.3055 380.96L55.7415 381.266L53.2123 381.174L42.844 394.684L39.4659 405.053L34.907 413.063L26.8965 417.283L18.0918 422.564L11.8647 431.368L9.81969 440.607L4.90567 453.359L3.65137 457.684" stroke="#7699D4" stroke-width="1.2"/>
<path d="M151.938 141.895L154.043 146.327L158.475 151.949L167.266 150.685L169.706 141.895L167.576 132.794L161.906 119.01L160.834 115.579L160.655 113.399L159.026 89.8143L158.982 89.2632L158.739 88.9997L158.475 88.8462L157.981 88.769L157.546 89.2632L158.058 89.6804L156.771 113.875L157.336 115.579L157.089 116.965L152.842 136.261L151.938 141.895Z" stroke="#7699D4" stroke-width="1.2"/>
<path d="M177.995 220.842L179.092 226.541L184.791 245.662L193.156 229.207L193.258 220.842L192.074 213.559L191.597 201.332L190.703 194.526L189.999 189.319L184.791 168.789L177.955 187.69L178.681 194.526L178.579 200.738L178.1 214.151L177.995 220.842Z" stroke="#7699D4" stroke-width="1.2"/>
<path d="M250.44 141.895L256.861 148.772L263.739 148.974L267.495 145.651L268.447 141.895L268.162 137.471L265.713 117.553L265.571 115.579L265.445 113.872L263.739 106.203L258.998 110.838L258.395 115.579L256.071 123.247L253.209 131.365L250.44 141.895Z" stroke="#7699D4" stroke-width="1.2"/>
<path d="M356.148 299.789L364.137 304.654L369.002 304.312L379.125 309.913L374.258 299.789L371.108 297.684L372.097 276.568L371.004 273.473L371.361 271.114L369.002 268.618L364.95 269.421L364.741 273.473L362.587 279.888L364.123 294.91L356.148 299.789Z" stroke="#7699D4" stroke-width="1.2"/>
<path d="M394.825 220.842L394.701 221.458L395.317 222.952L396.122 221.647L396.039 220.842L396.044 220.115L395.317 207.826L394.939 220.464L394.825 220.842Z" stroke="#7699D4" stroke-width="1.2"/>
<path d="M500.58 250.938L499.034 271.927L499.145 273.473L499.569 274.485L500.58 274.995" stroke="#7699D4" stroke-width="1.2"/>
<path d="M119.459 36.6316L122.81 45.9816L128.527 59.3147L129.971 62.9474L130.513 64.5946L132.16 82.2044L143.209 73.9966L137.476 62.9474L148.782 53.2541L158.476 45.9322L162.528 40.6839L162.654 36.6316L164.361 30.7466" stroke="#7699D4" stroke-width="1.2"/>
<path d="M500.581 336.457L489.101 340.941L478.341 352.421L481.1 359.256L486.022 366.98L488.095 378.737L486.988 391.459L486.861 392.456L485.68 405.052L482.722 413.509L474.265 416.277L467.604 411.713L465.349 405.052L464.905 395.693L464.228 388.773L463.801 378.737L462.007 366.479L465.884 360.802L455.281 359.752L447.949 353.933L446.235 354.135L436.752 352.421L444.228 348.699L440.277 333.777L442.422 326.105L434.165 313.573L430.454 308.61L423.984 299.789L424.618 296.804L424.54 276.38L425.623 273.473L425.854 269.252L421.633 262.072L418.173 270.013L419.377 273.473L417.448 277.659L417.349 295.505L395.628 299.479L395.317 299.662L394.518 298.99L379.703 289.088L379.923 284.395L376.067 273.473L377.327 265.148L369.002 256.339L357.551 258.608L356.646 247.158L347.674 242.17L342.686 238.294L334.393 238.865L327.581 247.158L336.595 253.248L342.686 258.912L354.577 261.582L353.964 273.473L351.13 281.917L342.686 288.86L337.809 294.912L334.525 299.789L333.277 309.198L334.296 317.715L332.271 326.105L327.508 337.243L327.254 341.536L324.51 352.421L324.878 360.929L316.37 374.244L314.602 376.968L314.703 378.737L300.728 389.41L290.054 391.724L283.945 384.845L281.924 378.737L282.348 371.03L284.728 357.747L285.099 352.421L286.335 348.701L290.054 346.465L300.687 341.788L306.607 342.658L306.264 336.211L311.45 326.105L311.578 321.313L309.22 306.939L309.352 299.789L306.502 289.922L305.204 284.64L301.566 273.473L302.331 261.196L300.364 257.467L303.186 247.158L296.56 240.652L290.054 240.932L280.329 237.432L271.948 238.949L268.93 226.033L265.489 220.842L265.056 219.524L263.738 218.558L262.298 219.401L245.277 220.842L238.203 221.622L237.423 221.303L224.266 234.001L216.415 247.158L220.209 256.26L211.107 258.169L201.543 263.909L203.655 273.473L199.983 284.597L198.617 287.299L196.207 299.789L194.183 309.181L188.32 322.577L187.219 326.105L186.714 328.028L184.791 329.12L181.358 329.538L164.944 332.574L158.475 333.256L147.833 341.778L141.435 352.421L140.949 361.21L140.592 370.304L140.14 378.737L137.387 383.964L132.16 386.848L126.914 383.982L123.579 378.737L116.532 368.048L105.844 364.848L94.5361 367.429L87.2188 371.046L79.5279 373.772L75.148 374.357L57.4502 374.499L53.2121 374.951L49.8859 375.41L45.0601 378.737L37.8964 389.737L37.4101 394.539L33.9846 405.052L31.4137 409.57L26.8964 411.949L14.7579 419.23L6.17292 431.368L5.15942 435.947L0.580566 447.829" stroke="#7699D4" stroke-width="1.2"/>
<path d="M156.93 299.789L157.155 301.11L158.475 303.807L160.636 301.95L160.255 299.789L159.965 298.299L158.475 295.562L157.317 298.631L156.93 299.789Z" stroke="#7699D4" stroke-width="1.2"/>
<path d="M146.558 141.894L150.395 149.975L158.475 160.223L167.803 158.883L171.616 168.21L174.957 178.044L173.191 182.926L174.424 194.526L174.251 205.066L174.071 210.121L173.902 220.842L175.661 229.972L179.081 241.447L180.394 247.158L180.646 251.302L184.791 253.159L193.548 255.915L198.202 247.158L198.646 234.696L198.199 233.75L198.356 220.842L196.459 209.174L196.338 206.073L194.822 194.526L193.627 185.69L190.689 174.108L189.705 168.21L189.422 163.579L184.791 152.291L176.705 149.981L178.949 141.894L177.165 134.269L175.947 124.423L173.183 115.579L172.142 102.93L172.055 101.999L171.033 89.2628L165.004 82.7339L158.475 78.9311L146.233 77.02L135.463 89.2628L148.138 99.6004L147.853 104.956L151.371 115.579L149.835 124.219L148.205 131.624L146.558 141.894Z" stroke="#7699D4" stroke-width="1.2"/>
<path d="M220.354 273.473L230.229 280.667L237.423 282.48L244.252 280.303L247.852 273.473L245.87 265.026L237.423 263.124L226.212 262.263L220.354 273.473Z" stroke="#7699D4" stroke-width="1.2"/>
<path d="M237.404 89.2631L237.399 89.2867L237.423 89.369L246.897 106.104L245.692 115.579L243.769 121.925L240.133 139.184L239.421 141.895L251.163 154.47L263.738 154.841L270.607 148.763L272.348 141.895L271.828 133.805L270.407 122.247L269.927 115.579L269.501 109.816L265.269 90.7932L265.119 89.2631L264.882 88.1192L263.738 80.9403L255.452 71.2339L256.963 62.9473L245.155 55.2153L237.423 38.1055L226.14 51.6643L227.304 62.9473L229.99 70.3798L237.393 89.2331L237.404 89.2631Z" stroke="#7699D4" stroke-width="1.2"/>
<path d="M362.236 326.105L366.466 328.64L369.002 329.704L370.324 327.427L370.695 326.105L371.146 323.96L369.002 322.774L365.889 322.993L362.236 326.105Z" stroke="#7699D4" stroke-width="1.2"/>
<path d="M367.105 115.579L367.29 117.29L369.001 127.274L369.802 116.379L369.859 115.579L369.731 114.849L369.001 112.933L367.718 114.295L367.105 115.579Z" stroke="#7699D4" stroke-width="1.2"/>
<path d="M389.628 220.842L388.193 227.967L395.317 245.24L404.617 230.142L403.659 220.842L403.723 212.437L403.125 202.334L403.193 194.526L400.181 189.663L395.317 187.873L392.178 191.387L392.241 194.526L391.486 198.358L390.943 216.468L389.628 220.842Z" stroke="#7699D4" stroke-width="1.2"/>
<path d="M500.58 231.909L495.189 241.766L493.649 247.158L494.27 253.469L493.33 266.223L493.85 273.474L495.838 278.217L500.58 280.606" stroke="#7699D4" stroke-width="1.2"/>
<path d="M500.581 187.498L495.089 189.035L492.831 194.526L495.303 199.804L500.581 208.846" stroke="#7699D4" stroke-width="1.2"/>
<path d="M0.580566 431.082L9.73672 414.209L22.9894 408.959L26.8964 406.616L27.9205 406.077L28.5034 405.052L29.28 402.669L31.2614 383.102L34.1042 378.737L45.4155 370.94L53.2121 369.865L63.146 368.803L69.5429 368.752L79.5279 367.419L90.6007 363.494L95.0426 363.222L105.844 360.756L117.741 364.319L121.661 362.919L122.31 368.887L128.803 378.737L130.108 380.788L132.16 381.909L134.204 380.781L135.281 378.737L135.458 375.438L136.203 356.464L136.426 352.421L142.858 341.722L144.361 338.306L150.856 333.724L158.475 327.623L159.848 327.478L167.271 326.105L174.717 316.031L184.791 320.855L191.204 306.202L192.586 299.789L194.45 290.13L194.318 283.001L197.463 273.473L195.171 263.094L184.791 259.827L176.041 255.908L175.508 247.158L172.736 235.102L172.229 233.404L169.81 220.842L169.991 209.326L169.978 206.029L170.166 194.526L169.044 183.958L158.475 168.54L158.226 168.46L158.186 168.21L157.4 167.135L146.746 153.624L141.178 141.895L142.9 131.154L143.407 126.826L145.406 115.579L142.11 105.628L132.16 96.5499L129.388 92.0342L128.971 89.2629L128.019 85.1225L126.476 68.6302L124.609 62.9471L119.626 50.4138L119.251 49.5396L114.625 36.6313" stroke="#7699D4" stroke-width="1.2"/>
<path d="M0.580566 329.955L2.80958 328.334L4.71423 326.105L3.3152 323.371L0.580566 324.349" stroke="#7699D4" stroke-width="1.2"/>
<path d="M0.580566 144.96L2.61323 143.927L3.46861 141.895L3.1396 139.335L2.31052 117.309L2.12128 115.579L1.85844 114.301L0.580566 110.906" stroke="#7699D4" stroke-width="1.2"/>
<path d="M22.1182 299.789L20.9927 305.693L26.8965 309.429L31.3457 304.239L37.4308 299.789L35.4769 291.209L26.8965 292.469L23.0694 295.962L22.1182 299.789Z" stroke="#7699D4" stroke-width="1.2"/>
<path d="M46.1106 273.473L44.7573 281.929L53.2124 283.745L59.0855 279.347L61.4758 273.473L58.362 268.324L53.2124 259.087L48.347 268.608L46.1106 273.473Z" stroke="#7699D4" stroke-width="1.2"/>
<path d="M150.173 299.789L151.384 306.881L158.475 321.373L170.082 311.395L168.037 299.789L166.478 291.787L158.475 277.085L152.252 293.566L150.173 299.789Z" stroke="#7699D4" stroke-width="1.2"/>
<path d="M228.038 273.473L233.467 277.429L237.423 278.425L241.178 277.229L243.158 273.473L242.068 268.829L237.423 267.783L231.259 267.309L228.038 273.473Z" stroke="#7699D4" stroke-width="1.2"/>
<path d="M285.787 378.737L286.848 381.943L290.054 385.554L295.657 384.339L302.992 378.737L302.288 366.503L291.772 354.138L291.08 352.421L290.186 352.29L290.054 352.347L290.008 352.375L289.993 352.421L289.988 352.487L286.009 374.692L285.787 378.737Z" stroke="#7699D4" stroke-width="1.2"/>
<path d="M313.595 299.789L313.543 302.616L316.37 319.849L322.708 306.127L323.548 299.789L331.249 288.352L342.686 274.159L343.062 273.85L343.188 273.473L343.216 272.944L342.686 272.825L333.449 264.236L329.405 260.439L316.37 251.139L306.942 264.045L306.354 273.473L308.815 281.028L312.469 295.888L313.595 299.789Z" stroke="#7699D4" stroke-width="1.2"/>
<path d="M355.393 141.895L363.105 147.791L369.001 149.821L373.744 146.637L374.504 141.895L374.931 135.965L375.92 122.497L376.416 115.579L375.309 109.272L369.001 92.7017L357.905 104.482L352.605 115.579L353.804 126.697L354.022 130.558L355.393 141.895Z" stroke="#7699D4" stroke-width="1.2"/>
<path d="M356.48 22.8376L369.001 33.3682L370.751 34.882L371.588 36.6317L371.701 39.3315L375.735 56.2137L375.92 62.9475L375.154 69.1L369.001 85.8725L364.919 85.1814L352.517 79.432L342.685 78.6382L337.404 68.229L336.857 62.9475L337.098 57.3604L341.926 37.3913L341.974 36.6317L341.561 35.5076L335.116 17.8853L332.324 10.3159" stroke="#7699D4" stroke-width="1.2"/>
<path d="M381.13 273.474L384.832 283.959L395.318 292.774L407.455 285.611L413.049 273.474L408.473 260.318L395.318 253.63L382.995 261.151L381.13 273.474Z" stroke="#7699D4" stroke-width="1.2"/>
<path d="M500.58 328.751L496.24 330.446L480.123 331.964L474.265 338.586L464.643 335.727L449.467 326.105L448.271 325.783L447.949 325.783L437.799 309.939L430.355 299.789L432.706 288.716L432.69 284.531L436.813 273.474L437.391 262.915L447.949 249.234L448.747 247.956L449.227 247.158L448.899 246.208L447.949 244.325L445.439 244.648L429.476 239.315L421.633 239.738L412.246 230.229L411.279 220.842L411.357 210.566L411.827 204.332L411.912 194.526L405.566 184.278L395.317 180.507L388.702 187.911L388.835 194.526L387.243 202.6L386.948 212.473L384.431 220.842L381.844 233.684L369.002 245.097L363.784 241.94L353.577 236.266L342.686 227.803L335.211 228.317L327.19 220.842L319.77 217.442L316.37 217.285L312.403 216.875L308.126 220.842L299.759 230.547L290.054 230.965L282.61 228.286L277.677 220.842L274.233 210.348L263.738 202.658L252.269 209.373L248.579 209.685L237.423 213.081L232.23 215.649L227.297 220.842L219.005 228.74L211.107 245L203.36 228.589L203.454 220.842L201.968 211.704L200.353 205.28L198.941 194.526L197.255 182.063L196.783 180.202L194.783 168.211L194.207 158.795L189.001 146.105L188.491 141.895L189.921 136.764L186.031 116.819L187.701 115.579L185.688 114.682L184.791 107.756L183.211 90.8432L183.084 89.2631L171.27 76.4688L158.475 69.0167L153.225 68.1972L150.501 62.9473L154.795 59.2667L158.475 56.4865L167.126 45.2823L167.394 36.6315L171.039 24.0682L170.86 22.7006L184.02 11.0873L184.791 10.3555L184.931 10.4558L203.987 17.4356L202.445 27.9699L205.501 36.6315L205.641 42.0976L211.107 47.5782L219.657 54.3968L220.54 62.9473L225.021 75.3489L225.999 77.8395L230.321 89.2631L228.408 98.2781L231.752 109.908L226.37 115.579L231.216 121.786L228.517 132.989L230.4 141.895L231.332 147.985L231.23 162.017L231.946 168.211L233.361 172.272L237.423 175.407L244.191 174.979L247.89 168.211L256.007 160.48L263.738 160.707L273.719 151.875L276.25 141.895L275.494 130.14L275.1 126.941L274.284 115.579L273.557 105.76L271.646 97.1712L270.874 89.2631L269.65 83.3516L266.903 66.1119L266.298 62.9473L265.564 61.1221L263.738 60.1748L251.812 51.0209L250.324 50.0463L249.9 49.109L242.22 36.6315L247.342 26.7118L248.865 21.7585" stroke="#7699D4" stroke-width="1.2"/>
<path d="M469.296 405.052L470.553 408.764L474.265 411.308L478.978 409.765L480.626 405.052L481.284 398.033L482.672 387.143L483.404 378.737L482.033 370.968L474.265 358.777L466.166 370.637L467.351 378.737L467.633 385.368L469.049 399.836L469.296 405.052Z" stroke="#7699D4" stroke-width="1.2"/>
<path d="M500.581 178.999L488.448 182.394L483.46 194.526L488.921 206.186L493.121 213.382L497.21 220.842L494.654 226.769L489.54 236.117L486.388 247.158L487.659 260.08L487.626 260.519L488.555 273.474L492.106 281.948L500.581 286.218" stroke="#7699D4" stroke-width="1.2"/>
<path d="M0.580566 317.613L13.7086 312.917L16.2114 299.789L18.3385 291.232L26.8964 283.42L35.5692 282.146L36.9574 273.474L42.0762 262.338L46.3024 254.068L49.7102 247.158L50.4352 244.381L53.2121 229.42L56.4868 243.883L56.7933 247.158L61.5435 255.489L64.9989 261.687L72.1259 273.474L67.0459 285.956L67.0249 287.286L64.3857 288.616L53.2121 296.984L49.6391 296.216L50.4527 299.789L36.8456 309.739L26.8964 321.346L13.9335 313.142L20.5652 326.105L11.357 336.882L0.580566 344.72" stroke="#7699D4" stroke-width="1.2"/>
<path d="M0.580566 149.159L5.39706 146.711L7.42391 141.894L6.64432 135.831L6.08939 121.087L5.48676 115.579L4.6498 111.509L0.580566 100.698" stroke="#7699D4" stroke-width="1.2"/>
<path d="M0.580566 414.695L3.97236 408.444L12.5356 405.052L19.2789 397.435L21.6389 383.994L23.7474 378.737L23.6339 375.474L26.8964 373.725L35.211 370.422L40.9451 366.47L53.2121 364.778L64.3757 363.584L69.5518 362.397L79.5279 361.065L85.9101 358.803L100.344 357.92L105.844 356.665L111.901 358.479L128.87 352.421L129.796 350.058L132.16 350.052L139.476 333.421L149.847 326.105L146.177 313.807L145.612 312.653L143.416 299.789L147.187 288.501L149.456 282.492L152.673 273.474L154.224 269.222L158.475 267.039L171.409 260.092L170.622 247.158L168.351 237.282L167.445 229.812L165.718 220.842L165.833 213.484L165.79 201.84L165.909 194.526L165.195 187.806L158.475 178.003L151.074 175.611L149.898 168.21L142.405 157.965L139.086 148.821L135.798 141.895L136.492 137.562L138.342 121.761L139.441 115.579L137.629 110.109L132.16 105.119L126.129 95.2932L125.221 89.263L123.15 80.2537L122.441 72.6662L119.247 62.9472L115.434 53.3568L111.997 42.7846L109.792 36.6314L109.081 33.3945" stroke="#7699D4" stroke-width="1.2"/>
<path d="M72.0296 62.9473L72.7884 69.6867L79.5277 82.1459L86.3574 69.777L90.431 62.9473L88.3577 54.1174L79.5277 50.3267L70.2334 53.653L72.0296 62.9473Z" stroke="#7699D4" stroke-width="1.2"/>
<path d="M104.679 273.474L105.189 274.129L105.844 274.238L106.142 273.772L106.138 273.474L106.158 273.16L105.844 270.402L105.33 272.96L104.679 273.474Z" stroke="#7699D4" stroke-width="1.2"/>
<path d="M127.181 220.842L128.029 224.972L132.159 225.289L135.19 223.873L137.499 220.842L136.688 216.313L132.159 206.369L128.229 216.912L127.181 220.842Z" stroke="#7699D4" stroke-width="1.2"/>
<path d="M175.818 299.789L177.162 307.418L184.791 311.071L188.226 303.224L188.966 299.789L189.964 294.616L189.663 278.345L191.27 273.474L190.098 268.166L184.791 266.496L172.153 260.835L169.914 273.474L173.819 284.446L173.648 288.646L175.818 299.789Z" stroke="#7699D4" stroke-width="1.2"/>
<path d="M169.713 62.9473L180.109 67.6296L184.791 72.8797L193.474 80.5798L193.576 89.2631L199.206 101.164L211.107 109.468L221.114 99.2703L223.238 89.2631L219.908 80.4617L215.285 67.1261L213.776 62.9473L213.526 60.5281L211.107 58.599L200.138 47.6007L199.856 36.6315L195.928 25.4946L184.791 17.5166L174.981 26.8216L172.135 36.6315L171.73 49.6922L172.117 50.2731L169.713 62.9473Z" stroke="#7699D4" stroke-width="1.2"/>
<path d="M235.721 273.474L236.706 274.191L237.423 274.371L238.104 274.155L238.463 273.474L238.265 272.631L237.423 272.442L236.305 272.356L235.721 273.474Z" stroke="#7699D4" stroke-width="1.2"/>
<path d="M208.552 220.842L208.521 223.428L211.107 228.907L213.744 223.479L216.512 220.842L226.699 210.119L237.423 204.815L245.311 202.414L256.32 194.526L248.74 183.209L237.423 183.924L228.554 177.08L225.464 168.21L223.975 155.342L223.76 154.547L221.822 141.895L219.952 133.05L211.107 123.293L201.285 132.072L198.546 141.895L199.904 153.098L199.128 156.231L199.861 168.21L201.468 177.849L201.801 185.22L203.06 194.526L203.994 201.639L208.056 217.791L208.552 220.842Z" stroke="#7699D4" stroke-width="1.2"/>
<path d="M289.649 378.737L289.75 379.041L290.054 379.383L290.585 379.268L291.281 378.737L291.214 377.577L290.054 376.213L289.671 378.353L289.649 378.737Z" stroke="#7699D4" stroke-width="1.2"/>
<path d="M326.66 0.0258789L327.106 10.3157L331.304 21.6977L333.352 27.2976L336.779 36.6314L336.378 42.9387L333.711 53.9725L333.323 62.9472L334.202 71.4311L342.686 88.1516L343.714 88.2346L345.932 89.263L344.381 90.9582L342.686 96.368L340.235 113.128L339.31 115.579L339.598 118.667L340.38 139.589L340.574 141.895L341.244 143.337L342.686 145.854L354.244 153.453L356.057 154.839L369.001 159.296L379.413 152.306L381.083 141.895L382.019 128.877L382.038 128.616L382.973 115.579L380.886 103.694L379.322 99.5832L376.744 89.263L378.595 79.6693L380.508 74.454L381.942 62.9472L381.595 50.3533L381.241 48.8713L380.731 36.6314L376.934 28.6988L369.001 21.8361L362.744 16.5734" stroke="#7699D4" stroke-width="1.2"/>
<path d="M311.142 273.474L312.426 277.417L316.37 293.456L324.223 281.326L330.419 273.474L323.174 266.67L316.37 261.815L311.448 268.552L311.142 273.474Z" stroke="#7699D4" stroke-width="1.2"/>
<path d="M386.193 273.473L388.574 280.217L395.317 285.886L403.123 281.279L406.72 273.473L403.778 265.013L395.317 260.712L387.392 265.549L386.193 273.473Z" stroke="#7699D4" stroke-width="1.2"/>
<path d="M473.243 405.053L473.502 405.816L474.265 406.339L475.234 406.022L475.572 405.053L475.708 403.61L478.355 382.827L478.711 378.737L478.044 374.957L474.265 369.025L470.324 374.796L470.9 378.737L471.038 381.964L473.192 403.98L473.243 405.053Z" stroke="#7699D4" stroke-width="1.2"/>
<path d="M500.581 317.778L492.197 317.722L481.38 318.99L474.265 318.929L467.073 318.914L457.672 316.382L447.949 316.37L441.475 306.264L436.727 299.79L438.692 290.532L447.949 273.545L448.003 273.528L448.023 273.474L448.144 273.279L458.114 257.323L464.224 247.158L460.042 235.065L457.876 230.769L453.527 220.842L454.605 214.186L447.949 209.161L438.977 211.87L436.105 220.842L426.367 225.576L421.633 225.831L419.155 223.32L418.9 220.842L418.921 218.129L420.623 195.537L420.632 194.526L419.003 191.896L416.652 173.193L403.118 176.011L395.318 173.141L385.227 184.436L385.429 194.526L383.002 206.842L382.953 208.477L379.235 220.842L377.519 229.359L369.002 236.928L358.98 230.864L346.528 220.842L344.664 218.864L342.686 214.902L336.039 214.195L327.109 210.104L316.37 209.607L303.842 208.314L290.331 220.842L290.203 220.991L290.054 220.997L289.941 220.956L289.865 220.842L289.773 220.561L290.054 219.125L299.943 204.415L292.73 194.526L291.576 193.005L290.054 191.076L283.993 188.465L272.324 185.942L263.739 177.776L256.113 175.836L260.281 168.211L262.052 166.524L263.739 166.574L276.832 154.988L280.152 141.895L279.471 131.311L279.406 126.228L278.641 115.579L277.729 103.253L277.824 101.494L276.628 89.2633L274.418 78.5841L273.478 72.687L271.615 62.9475L269.356 57.3299L263.739 54.4146L253.678 46.6926L247.485 36.6317L253.02 25.9131L263.739 16.7621L268.704 15.2808" stroke="#7699D4" stroke-width="1.2"/>
<path d="M500.581 170.5L497.402 171.389L493.989 168.21L482.565 159.91L474.265 157.093L465.459 159.404L455.353 168.21L459.782 180.044L459.955 182.521L472.992 194.526L473.46 195.331L474.265 194.969L482 213.107L486.24 220.842L482.631 229.209L481.069 240.353L479.126 247.158L479.657 252.55L482.658 265.081L483.26 273.474L488.375 285.679L500.581 291.829" stroke="#7699D4" stroke-width="1.2"/>
<path d="M0.580566 358.73L12.7783 364.619L14.0792 352.421L21.8125 347.337L26.8964 341.089L31.9814 331.19L31.943 326.105L41.9139 314.807L53.2121 306.038L62.407 308.984L73.5646 305.753L76.4703 323.048L78.5006 326.105L78.3589 327.274L79.5279 331.944L89.9149 342.034L102.168 348.746L105.844 351.053L107.204 351.06L106.671 352.421L106.061 352.639L105.844 352.574L105.646 352.619L81.2194 354.113L79.5279 354.712L76.8839 355.065L59.7799 358.989L53.2121 359.691L44.7793 360.854L31.6588 357.184L26.8964 359.075L14.0976 365.938L14.5428 378.737L10.5462 388.703L0.580566 399.436" stroke="#7699D4" stroke-width="1.2"/>
<path d="M0.580566 153.357L8.18088 149.495L11.3792 141.894L10.149 132.326L9.86826 124.866L8.85225 115.579L7.44115 108.718L0.580566 90.4907" stroke="#7699D4" stroke-width="1.2"/>
<path d="M65.4287 50.7309L67.7896 62.9474L68.9775 73.4979L75.1219 84.8572L76.239 89.2632L77.3256 91.4655L79.5279 94.4691L81.3762 91.1115L81.537 89.2632L84.1386 84.6525L90.2198 73.6393L96.597 62.9474L93.7595 50.8632L105.844 39.4966L111.597 57.1937L113.885 62.9474L117.82 74.924L118.551 76.5564L121.471 89.2632L122.87 98.5523L132.16 113.688L133.148 114.59L133.476 115.579L133.277 116.697L132.16 126.244L127.635 137.37L112.52 135.219L105.844 137.542L101.554 137.605L97.1534 141.895L98.4051 149.333L105.844 160.72L117.089 153.14L122.299 151.756L132.16 147.716L137.618 162.753L141.609 168.211L143.396 179.447L132.16 185.147L125.044 187.411L123.91 194.526L120.107 206.579L119.507 208.189L116.13 220.842L118.791 233.79L105.844 235.361L98.846 240.16L95.9906 247.158L90.8306 258.461L79.5279 268.358L71.4447 255.241L66.836 247.158L65.6701 234.7L65.2603 232.89L63.821 220.842L64.1833 209.871L53.2121 199.897L43.9626 211.593L46.0027 220.842L43.8298 230.224L42.6477 236.593L39.8896 247.158L35.598 255.86L28.5769 271.793L27.8044 273.474L27.6791 274.257L26.8964 274.371L16.6056 283.764L13.3676 286.261L13.5212 286.849L10.3047 299.79L8.74771 307.957L0.580566 310.878" stroke="#7699D4" stroke-width="1.2"/>
<path d="M24.0615 194.526L25.6617 195.761L26.8962 196.513L31.3534 198.984L38.9419 194.526L29.1589 192.264L26.8962 193.154L25.8266 193.457L24.0615 194.526Z" stroke="#7699D4" stroke-width="1.2"/>
<path d="M100.237 299.789L102.741 302.892L105.844 302.442L116.755 315.193L121.037 326.105L124.183 334.081L132.159 334.062L134.591 328.536L138.037 326.105L136.686 321.578L137.585 305.215L136.659 299.789L138.916 293.032L141.964 283.278L145.461 273.473L148.939 263.937L158.475 259.041L166.206 254.889L165.736 247.158L164.378 241.255L162.377 224.743L161.625 220.842L161.676 217.641L161.601 197.651L161.652 194.526L161.347 191.655L158.475 187.465L148.043 184.094L144.221 194.526L147.415 205.587L147.36 209.727L149.351 220.842L141.918 230.601L132.159 235.159L119.163 234.161L115.937 247.158L115.108 256.422L115.904 263.413L115.287 273.473L115.403 283.033L105.844 297.98L103.672 297.618L100.237 299.789Z" stroke="#7699D4" stroke-width="1.2"/>
<path d="M183.6 299.789L183.778 300.803L184.791 301.288L185.247 300.246L185.346 299.789L185.478 299.102L185.007 273.69L185.078 273.474L185.027 273.238L184.791 273.164L184.231 272.914L184.132 273.474L184.305 273.96L183.312 298.31L183.6 299.789Z" stroke="#7699D4" stroke-width="1.2"/>
<path d="M207.178 194.526L207.634 197.999L211.107 211.805L219.398 202.817L233.421 198.528L237.423 196.549L238.973 196.077L241.138 194.526L239.647 192.301L237.423 192.442L228.292 185.395L222.927 182.706L223.191 180.295L218.981 168.21L218.165 161.153L213.631 144.419L213.245 141.895L212.871 140.13L211.107 138.184L209.147 139.935L208.601 141.895L208.872 144.13L204.537 161.64L204.939 168.21L205.82 173.497L206.564 189.983L207.178 194.526Z" stroke="#7699D4" stroke-width="1.2"/>
<path d="M203.812 89.2631L206.155 94.2156L211.107 97.671L215.272 93.4275L216.155 89.2631L214.77 85.6005L211.107 75.0342L203.725 81.8811L203.812 89.2631Z" stroke="#7699D4" stroke-width="1.2"/>
<path d="M273.661 20.2376L263.738 23.198L256.492 29.3847L252.75 36.6313L256.937 43.4332L263.738 48.6539L273.148 53.5373L276.932 62.9471L279.039 73.9621L280.38 79.5888L282.383 89.2629L283.066 96.2515L282.433 107.957L282.997 115.579L283.47 122.163L283.64 135.48L284.053 141.894L282.014 149.934L285.769 163.925L279.63 168.21L284.923 173.342L290.054 175.552L298.42 186.161L304.766 194.526L309.661 201.236L316.37 201.928L324.131 202.287L340.22 196.992L342.686 197.254L350.54 212.987L357.941 220.842L364.069 225.774L369.002 228.759L373.193 225.034L374.038 220.842L376.203 213.64L379.879 205.403L382.022 194.526L381.767 181.761L369.002 168.611L368.293 168.919L363.722 168.21L345.258 165.638L342.686 163.947L334.654 149.926L330.925 141.894L329.844 129.053L329.822 128.443L328.623 115.579L332.478 105.37L333.488 98.4609L335.962 89.2629L334.031 80.6085L331 74.6333L329.79 62.9471L330.324 50.5849L330.831 48.4863L331.584 36.6313L327.498 25.5035L325.111 19.0563L321.887 10.3155L321.658 5.02783" stroke="#7699D4" stroke-width="1.2"/>
<path d="M315.93 273.474L316.038 273.806L316.37 275.157L317.032 274.135L317.554 273.474L316.943 272.901L316.37 272.492L315.956 273.059L315.93 273.474Z" stroke="#7699D4" stroke-width="1.2"/>
<path d="M391.257 273.474L392.316 276.475L395.318 278.998L398.792 276.948L400.393 273.474L399.083 269.708L395.318 267.794L391.79 269.947L391.257 273.474Z" stroke="#7699D4" stroke-width="1.2"/>
<path d="M500.581 149.928L495.607 146.868L476.389 144.018L474.265 143.298L472.362 143.797L451.966 141.894L448.366 141.478L447.949 141.473L447.562 141.507L446.907 141.894L430.119 150.381L421.633 151.938L410.61 157.187L404.572 158.955L395.317 162.388L386.199 151.013L387.661 141.894L388.175 134.752L389.083 121.813L389.53 115.579L388.298 108.559L387.92 96.6605L386.072 89.2628L387.567 81.5128L386.917 71.3478L387.963 62.947L387.755 55.3848L390.091 41.8579L389.873 36.6312L384.875 26.1888L383.825 21.8081" stroke="#7699D4" stroke-width="1.2"/>
<path d="M500.58 297.44L495.846 295.055L476.764 297.29L480.633 279.842L477.964 273.473L477.717 270.021L474.265 255.608L467.599 266.807L463.471 273.473L459.324 284.848L447.949 288.443L443.947 295.787L443.097 299.789L445.15 302.588L447.949 306.957L455.126 306.966L471.425 302.628L474.265 302.635L477.135 302.659L495.308 305.062L500.58 305.097" stroke="#7699D4" stroke-width="1.2"/>
<path d="M472.524 220.842L473.055 222.052L474.265 226.553L474.967 221.544L475.27 220.842L474.914 220.193L474.265 218.671L472.767 219.344L472.524 220.842Z" stroke="#7699D4" stroke-width="1.2"/>
<path d="M0.580566 385.79L3.97638 382.133L5.33825 378.737L5.1783 374.139L0.580566 371.919" stroke="#7699D4" stroke-width="1.2"/>
<path d="M0.580566 304.143L3.78678 302.996L4.39801 299.79L5.66072 294.709L0.580566 275.261" stroke="#7699D4" stroke-width="1.2"/>
<path d="M0.580566 157.556L10.9647 152.279L15.3345 141.895L13.6538 128.821L13.6471 128.645L12.2177 115.579L10.2325 105.927L6.00035 94.6828L4.51787 89.2631L3.73878 86.1049L0.580566 82.7788" stroke="#7699D4" stroke-width="1.2"/>
<path d="M61.8752 54.2842L63.5495 62.9473L64.861 74.5961L63.9643 78.5109L66.6904 89.263L70.9318 97.8591L79.5279 109.583L86.7421 96.4772L87.3699 89.263L94.0338 77.4531L98.2091 70.5819L102.763 62.9473L101.817 58.9209L105.844 55.1337L107.761 61.0302L108.523 62.9473L109.834 66.9377L115.501 79.6055L117.721 89.263L119.612 101.811L121.55 104.969L125.302 115.579L117.063 126.798L105.844 130.702L94.813 130.864L83.4985 141.895L84.3018 146.669L80.6954 167.043L81.1707 168.21L81.3161 169.999L79.5279 169.519L78.5676 169.171L78.0537 168.21L62.3185 159.104L53.2121 160.409L48.6567 163.655L46.083 168.21L39.2981 180.612L26.8964 185.49L19.8552 187.485L8.23651 194.526L18.7701 202.652L26.8964 207.606L35.4125 212.326L37.2909 220.842L35.3363 229.282L31.19 242.864L30.069 247.158L29.0211 249.283L26.8964 254.104L17.7496 264.327L1.98222 272.072L0.580566 272.923" stroke="#7699D4" stroke-width="1.2"/>
<path d="M41.6295 352.421L50.6801 354.953L53.212 354.604L55.1839 354.393L63.7798 352.421L67.4036 340.297L66.9897 338.643L68.5097 326.105L62.4053 316.912L53.212 313.966L46.3774 319.271L40.3457 326.105L40.4422 338.875L41.3414 340.55L41.6295 352.421Z" stroke="#7699D4" stroke-width="1.2"/>
<path d="M76.8785 247.158L77.8405 248.845L79.5278 251.583L81.887 249.517L82.9641 247.158L85.3329 241.353L84.826 226.14L99.6617 220.842L88.5608 211.809L79.5278 215.799L76.7327 218.047L76.6404 220.842L76.9485 223.421L76.605 244.235L76.8785 247.158Z" stroke="#7699D4" stroke-width="1.2"/>
<path d="M98.2888 194.526L95.4736 204.897L105.844 216.814L109.644 198.327L110.843 194.526L111.791 188.579L105.844 185.611L98.639 187.322L98.2888 194.526Z" stroke="#7699D4" stroke-width="1.2"/>
<path d="M128.002 168.21L129.107 171.262L132.159 170.292L133.54 169.591L133.321 168.21L132.83 167.54L132.159 165.692L130.373 166.424L128.002 168.21Z" stroke="#7699D4" stroke-width="1.2"/>
<path d="M124.436 273.474L124.528 281.105L132.16 292.328L136.648 277.962L138.249 273.474L141.745 263.888L137.51 252.508L150.489 255.144L158.475 251.044L161.004 249.686L160.85 247.158L160.406 245.227L158.475 229.301L151.956 240.638L136.153 243.164L132.16 245.029L129.854 244.852L129.282 247.158L128.999 250.318L124.882 266.196L124.436 273.474Z" stroke="#7699D4" stroke-width="1.2"/>
<path d="M210.016 168.21L210.172 169.145L211.107 189.862L213.243 170.347L212.499 168.21L212.354 166.963L211.107 162.358L209.945 167.049L210.016 168.21Z" stroke="#7699D4" stroke-width="1.2"/>
<path d="M258.015 36.6313L260.195 40.1742L263.738 42.8935L276.756 49.6494L277.068 49.6169L277 49.893L282.25 62.9471L283.503 69.4985L287.637 86.8454L288.137 89.2629L288.308 91.0092L287.137 112.662L287.353 115.579L287.534 118.099L287.81 139.65L287.954 141.894L287.241 144.708L290.054 155.19L296.637 161.627L296.617 168.21L305.303 179.277L316.37 193.943L329.406 181.246L334.129 168.21L327.912 156.668L325.527 151.051L321.275 141.894L320.894 137.37L318.096 117.305L317.935 115.579L318.885 113.063L325.809 98.7025L328.349 89.2629L326.164 79.4689L327.397 73.9745L326.255 62.9471L326.702 52.6152L325.79 46.0514L326.388 36.6313L323.698 29.3035L316.842 10.7877L316.668 10.3155L316.655 10.0298L316.37 9.72963L315.447 9.39258L312.717 10.3155L294.802 15.063L290.054 17.8714L280.62 27.1972L273.711 26.6588L263.738 29.6342L259.964 32.8567L258.015 36.6313Z" stroke="#7699D4" stroke-width="1.2"/>
<path d="M348.751 194.526L356.283 207.245L369.002 220.557L377.033 202.558L378.616 194.526L378.427 185.1L369.002 175.391L356.304 180.908L355.214 180.738L355.271 181.941L348.751 194.526Z" stroke="#7699D4" stroke-width="1.2"/>
<path d="M394.239 141.895L394.033 143.179L395.317 144.781L397.423 144L401.312 141.895L401.956 135.256L395.317 126.562L394.311 140.889L394.239 141.895Z" stroke="#7699D4" stroke-width="1.2"/>
<path d="M393.984 62.9473L393.794 64.4701L395.317 88.2542L404.468 72.0981L404.328 62.9473L401.267 56.9978L395.317 53.6372L393.946 61.5765L393.984 62.9473Z" stroke="#7699D4" stroke-width="1.2"/>
<path d="M439.159 27.8413L428.016 36.6313L434.177 49.1753L434.123 50.4573L435.398 50.3961L447.949 56.5053L452.076 58.8205L457.75 62.9471L464.062 73.1505L474.265 83.0534L476.084 87.4443L476.186 89.2629L477.193 92.1907L474.265 112.608L472.906 114.22L452.156 111.372L447.949 112.598L443.982 111.612L435.174 115.579L444.747 118.781L447.949 118.5L450.902 118.531L473.394 116.45L474.265 116.461L475.698 117.011L491.72 124.44L500.581 127.066" stroke="#7699D4" stroke-width="1.2"/>
<path d="M0.580566 75.4077L7.32884 82.5146L8.99357 89.2629L12.1613 100.844L13.0239 103.135L15.5832 115.579L16.6988 125.776L18.1676 133.166L19.2898 141.894L13.7632 155.028L13.7763 155.09L13.7076 155.083L0.580566 161.754" stroke="#7699D4" stroke-width="1.2"/>
<path d="M53.2121 56.7295L58.3218 57.8374L59.3093 62.947L60.0828 69.8177L56.347 86.128L57.1418 89.2628L60.9693 97.02L64.1214 104.669L71.5636 115.579L70.4016 124.705L69.9639 132.33L68.534 141.894L61.2619 149.944L53.2121 151.098L43.2195 158.217L37.574 168.21L33.7981 175.112L26.8964 177.827L13.8836 181.513L13.1467 181.96L0.580566 187.912" stroke="#7699D4" stroke-width="1.2"/>
<path d="M0.580566 201.533L11.6402 209.782L21.4076 215.353L26.8964 218.699L28.2751 219.463L28.5792 220.842L28.2627 222.208L26.8964 226.684L19.5526 239.814L17.4302 247.158L9.34032 255.917L0.580566 261.238" stroke="#7699D4" stroke-width="1.2"/>
<path d="M48.7485 326.105L48.782 330.535L53.212 338.789L57.9452 330.839L58.519 326.105L56.4013 322.916L53.212 321.894L50.841 323.734L48.7485 326.105Z" stroke="#7699D4" stroke-width="1.2"/>
<path d="M88.2773 115.579L97.4366 123.986L105.844 123.863L111.989 121.725L116.502 115.579L113.718 107.705L115.413 98.8321L113.971 89.2632L112.452 82.6549L105.844 67.8833L97.7628 81.1821L93.203 89.2632L92.1082 101.843L90.6932 104.414L88.2773 115.579Z" stroke="#7699D4" stroke-width="1.2"/>
<path d="M287.567 62.9471L287.966 65.035L290.054 73.796L297.307 82.0098L304.203 89.2629L308.034 97.5986L316.37 99.8381L319.81 92.7031L320.736 89.2629L319.939 85.6935L323.455 70.0324L322.722 62.9471L323.008 56.3087L320.905 41.1664L321.193 36.6313L319.898 33.1035L316.37 23.5757L306.978 27.2396L293.072 36.6313L291.835 38.4122L290.054 42.0135L285.894 58.7869L287.567 62.9471Z" stroke="#7699D4" stroke-width="1.2"/>
<path d="M309.068 168.21L312.279 172.301L316.37 177.722L321.188 173.029L322.934 168.21L320.636 163.944L316.37 153.896L309.09 160.931L309.068 168.21Z" stroke="#7699D4" stroke-width="1.2"/>
<path d="M355.925 194.526L360.789 202.739L369.002 211.335L374.188 199.713L375.21 194.526L375.088 188.44L369.002 182.17L360.388 185.913L355.925 194.526Z" stroke="#7699D4" stroke-width="1.2"/>
<path d="M500.581 110.751L488.266 101.578L484.03 89.263L483.511 80.0172L477.979 66.6617L477.557 62.9472L476.398 60.8143L474.265 59.434L462.753 51.4353L460.847 50.0492L447.949 42.813L443.791 40.7892L441.749 36.6314L445.215 33.8974L447.949 32.715L460.219 22.5859" stroke="#7699D4" stroke-width="1.2"/>
<path d="M0.580566 249.552L2.07037 248.648L3.44624 247.158L4.61113 243.127L6.85189 227.113L9.62625 220.842L3.86598 217.557L0.580566 215.106" stroke="#7699D4" stroke-width="1.2"/>
<path d="M0.580566 175.1L5.25557 172.886L24.1712 170.936L26.8964 170.164L28.2981 169.612L29.065 168.211L31.8812 163.226L35.9542 150.953L52.8861 141.895L53.0478 141.731L53.2121 141.136L57.7801 120.147L58.3617 115.579L56.2734 112.518L53.2121 105.089L49.0919 93.3835L48.8967 89.2633L49.1013 85.1525L53.2121 74.1759L55.3047 65.0401L55.0691 62.9476L54.7683 61.3914L53.2121 61.0539L49.6972 59.4326" stroke="#7699D4" stroke-width="1.2"/>
<path d="M0.580566 68.0371L10.9189 78.9248L13.4693 89.2632L16.3532 99.8064L16.8907 105.573L18.9487 115.579L19.7324 122.743L22.7065 137.705L23.2451 141.895L20.5923 148.199L24.2317 165.546L5.17087 163.62L0.580566 165.953" stroke="#7699D4" stroke-width="1.2"/>
<path d="M102.78 115.579L104.377 117.045L105.844 117.024L106.915 116.651L107.702 115.579L107.217 114.206L110.997 94.4166L110.22 89.2631L109.403 85.7041L105.844 77.7485L101.491 84.9109L99.0356 89.2631L98.3867 96.72L103.325 113.06L102.78 115.579Z" stroke="#7699D4" stroke-width="1.2"/>
<path d="M363.1 194.526L365.295 198.233L369.002 202.113L371.342 196.867L371.804 194.526L371.749 191.779L369.002 188.949L365.114 190.638L363.1 194.526Z" stroke="#7699D4" stroke-width="1.2"/>
<path d="M464.11 36.6318L470.816 40.0805L474.265 42.4767L486.693 50.5195L493.446 62.9476L494.174 69.3535L491.356 80.039L491.874 89.2634L494.102 95.7415L500.58 100.567" stroke="#7699D4" stroke-width="1.2"/>
<path d="M22.314 115.579L22.7658 119.709L26.8962 140.488L39.2876 127.97L45.0703 115.579L44.3019 106.669L42.09 100.385L41.5631 89.2629L42.1152 78.1661L44.5835 71.5756L45.3974 62.9471L31.8532 57.99L26.8962 54.721L17.3715 53.4224L5.5459 62.9471L15.5657 74.2775L15.0134 77.3801L17.9448 89.2629L19.8674 96.2916L21.1275 109.81L22.314 115.579Z" stroke="#7699D4" stroke-width="1.2"/>
<path d="M104.869 89.2629L104.776 90.3309L105.844 93.8649L106.582 90.0011L106.471 89.2629L106.354 88.7532L105.844 87.6138L105.221 88.6396L104.869 89.2629Z" stroke="#7699D4" stroke-width="1.2"/>
<path d="M500.58 84.8867L499.667 88.3495L499.718 89.2629L499.939 89.9044L500.58 90.3822" stroke="#7699D4" stroke-width="1.2"/>
<path d="M25.6798 115.579L25.7997 116.675L26.8964 122.193L30.1867 118.869L31.7221 115.579L31.339 111.136L34.5946 96.9611L34.2299 89.2629L34.6139 81.5454L31.0979 67.1485L31.4942 62.9471L28.1283 61.7152L26.8964 60.9028L24.5294 60.5801L21.5907 62.9471L24.0807 65.7628L20.9551 83.3215L22.4207 89.2629L23.382 92.7773L25.3647 114.047L25.6798 115.579Z" stroke="#7699D4" stroke-width="1.2"/>
</svg>
