<svg width="539" height="539" viewBox="0 0 539 539" fill="none" xmlns="http://www.w3.org/2000/svg">
<g clip-path="url(#clip0_81_166)">
<path d="M303.022 368.394L303.983 376.294L311.883 382.639L314.332 370.843L314.378 368.394L313.819 366.458L311.883 361.176L305.76 362.271L303.022 368.394Z" stroke="#F9F9F7" stroke-linecap="round" stroke-linejoin="round"/>
<path d="M318.806 375.317L318.934 368.394L317.354 362.923L311.883 347.991L302.32 349.701L294.698 340.138L286.837 336.929L283.628 336.546L281.1 337.611L281.693 340.138L279.538 344.228L283.628 358.769L289.431 362.591L286.836 368.394L287.28 372.046L283.628 376.865L280.829 371.192L279.812 368.394L263.483 360.282L255.372 362.868L247.985 361.006L234.048 361.462L227.117 357.57L223.482 364.759L222.78 368.394L221.589 373.921L220.432 389.964L218.346 396.649L215.228 408.538L222.358 420.145L208.246 415.52L198.861 420.846L195.244 421.287L173.326 422.185L170.606 422.471L169.255 423.553L168.443 424.904L168.316 427.194L166.777 449.331L166.572 453.16L162.082 461.684L160.808 471.617L150.464 473.301L142.351 477.779L134.333 473.398L124.52 470.99L120.173 459.238L116.309 453.16L115.429 451.826L114.095 451.426L112.684 451.748L109.828 453.16L100.681 466.574L100.166 467.486L98.9444 468.311L85.8399 478.363L82.659 478.234L62.594 476.406L57.5845 476.223L55.3299 479.161L54.5953 481.415L50.6472 488.352L48.2095 500.296L37.0863 501.913L29.3291 506L27.0345 507.376L25.4116 509.671L24.298 514.702L22.3956 530.992L20.3848 537.926" stroke="#F9F9F7" stroke-linecap="round" stroke-linejoin="round"/>
<path d="M252.561 311.883L253.388 313.868L255.372 314.02L258.13 314.641L259.315 311.883L257.827 309.428L255.372 308.423L253.611 310.122L252.561 311.883Z" stroke="#F9F9F7" stroke-width="2" stroke-linecap="round" stroke-linejoin="round"/>
<path d="M321.85 386.683L323.281 379.792L323.49 368.394L320.89 359.388L314.967 343.222L313.962 340.139L314.1 337.922L311.883 333.719L303.835 332.09L295.201 328.566L283.628 327.185L274.514 331.025L276.653 340.139L269.308 354.074L255.372 358.515L242.166 355.188L240.262 355.25L227.117 347.867L220.224 361.501L218.893 368.394L216.634 378.877L216.143 385.676L212.72 396.65L209.841 407.629L198.862 413.86L189.015 415.059L180.087 415.425L170.606 416.424L165.897 420.195L163.065 424.905L162.624 432.887L161.825 444.379L161.355 453.161L154.798 465.608L142.351 472.476L129.86 465.651L121.919 453.161L118.81 448.446L114.095 447.034L109.107 448.173L99.016 453.161L93.674 460.994L85.8401 467.004L72.5367 466.464L70.9112 466.487L57.5847 466L50.8912 474.722L48.7103 481.416L41.6809 493.767L29.3293 500.274L23.4552 503.797L19.3007 509.671L16.4499 522.551L16.1888 524.786L12.3779 537.927" stroke="#F9F9F7" stroke-width="1.3" stroke-linecap="round" stroke-linejoin="round"/>
<path d="M109.893 29.3293L111.809 31.6156L114.095 35.5178L122.142 37.376L125.12 29.3293L117.453 25.9714L114.095 22.6572L110.208 25.4427L109.893 29.3293Z" stroke="#F9F9F7" stroke-width="2" stroke-linecap="round" stroke-linejoin="round"/>
<path d="M139.093 85.8402L139.953 88.2382L142.351 93.8306L146.673 90.1627L152.506 85.8402L151.765 76.4258L152.522 67.756L151.935 57.5848L147.446 52.4898L142.351 45.877L133.958 49.1926L135.663 57.5848L137.398 62.5374L138.176 81.6658L139.093 85.8402Z" stroke="#F9F9F7" stroke-width="2" stroke-linecap="round" stroke-linejoin="round"/>
<path d="M169.364 198.862L169.764 199.704L170.606 200.772L172.276 200.532L172.739 198.862L172.335 197.133L170.606 192.931L169.536 197.792L169.364 198.862Z" stroke="#F9F9F7" stroke-width="2" stroke-linecap="round" stroke-linejoin="round"/>
<path d="M195.958 283.627L196.427 286.062L198.862 294.231L202.435 287.201L202.479 283.627L201.973 280.516L201.078 257.588L200.787 255.372L200.557 253.676L198.862 246.991L196.635 253.146L196.872 255.372L196.839 257.395L196.003 280.769L195.958 283.627Z" stroke="#F9F9F7" stroke-width="2" stroke-linecap="round" stroke-linejoin="round"/>
<path d="M245.979 311.883L248.743 318.512L255.372 319.022L264.586 321.096L268.544 311.883L263.574 303.681L255.372 300.322L249.489 306L245.979 311.883Z" stroke="#F9F9F7" stroke-width="2" stroke-linecap="round" stroke-linejoin="round"/>
<path d="M281.18 198.861L282.362 200.127L283.628 200.164L284.319 199.553L284.494 198.861L284.442 198.047L283.628 191.427L281.69 196.923L281.18 198.861Z" stroke="#F9F9F7" stroke-width="2" stroke-linecap="round" stroke-linejoin="round"/>
<path d="M28.2017 1.07324L28.3553 2.0472L29.3293 7.10195L30.4437 2.18766L30.276 1.07324" stroke="#F9F9F7" stroke-linecap="round" stroke-linejoin="round"/>
<path d="M328.53 385.041L327.82 380.712L328.046 368.394L324.425 355.852L322.591 350.846L319.103 340.138L319.582 332.439L311.883 317.844L306.926 316.84L290.371 318.627L283.628 317.822L273.363 322.147L277.773 311.883L269.321 297.934L255.372 292.223L245.367 301.878L239.397 311.883L244.097 323.158L255.372 324.024L268.525 326.986L271.611 340.138L266.006 350.773L255.372 354.162L244.171 351.339L228.796 340.138L230.633 336.623L227.117 337.36L225.381 338.402L225.764 340.138L225.097 342.158L216.965 358.242L215.006 368.394L212.143 381.676L210.826 384.684L207.094 396.649L205.384 403.171L198.861 406.873L187.22 408.29L183.023 409.067L170.606 410.375L162.538 416.836L157.687 424.905L156.932 438.579L156.873 439.427L156.137 453.16L151.381 462.19L142.351 467.173L133.289 462.222L127.528 453.16L122.191 445.064L114.095 442.64L105.531 444.596L88.2034 453.16L87.2451 454.565L85.8398 455.643L83.4534 455.546L60.3 455.876L57.5844 455.776L46.452 470.283L42.8248 481.415L37.9299 490.016L29.329 494.547L19.8754 500.217L13.1893 509.671L10.9936 519.591L5.71736 533.283L4.37061 537.926" stroke="#F9F9F7" stroke-width="1.3" stroke-linecap="round" stroke-linejoin="round"/>
<path d="M104.141 29.3287L108.679 34.7445L114.095 43.9884L125.14 46.5389L127.383 57.5841L131.267 68.6674L131.525 75.0143L133.903 85.8394L136.132 92.058L142.35 106.56L153.56 97.0487L168.684 85.8394L168.52 83.7536L164.171 64.0189L163.8 57.5841L153.753 46.1818L142.35 31.3829L138.955 32.7246L140.211 29.3287L122.049 21.3743L114.095 13.5234L104.888 20.1219L104.141 29.3287Z" stroke="#F9F9F7" stroke-width="2" stroke-linecap="round" stroke-linejoin="round"/>
<path d="M163.587 198.862L165.847 203.621L170.606 209.656L180.044 208.3L182.664 198.862L180.378 189.09L174.29 174.29L173.139 170.606L172.946 168.266L171.198 142.943L171.15 142.351L170.889 142.068L170.606 141.903L170.075 141.82L169.609 142.351L170.158 142.799L168.777 168.777L169.382 170.606L169.118 172.094L164.557 192.813L163.587 198.862Z" stroke="#F9F9F7" stroke-width="2" stroke-linecap="round" stroke-linejoin="round"/>
<path d="M191.564 283.628L192.743 289.747L198.862 310.277L207.843 292.609L207.952 283.628L206.681 275.808L206.169 262.68L205.209 255.373L204.453 249.781L198.862 227.738L191.521 248.032L192.301 255.373L192.192 262.042L191.677 276.443L191.564 283.628Z" stroke="#F9F9F7" stroke-width="1.5" stroke-linecap="round" stroke-linejoin="round"/>
<path d="M251.771 114.095L252.727 116.74L255.372 123.477L261.254 119.977L262.327 114.095L258.124 111.343L255.372 105.254L251.357 110.079L251.771 114.095Z" stroke="#F9F9F7" stroke-width="2" stroke-linecap="round" stroke-linejoin="round"/>
<path d="M269.349 198.861L276.243 206.245L283.627 206.463L287.66 202.894L288.683 198.861L288.377 194.111L285.747 172.726L285.595 170.606L285.46 168.774L283.627 160.539L278.537 165.516L277.89 170.606L275.394 178.839L272.321 187.555L269.349 198.861Z" stroke="#F9F9F7" stroke-width="2" stroke-linecap="round" stroke-linejoin="round"/>
<path d="M24.3472 1.07324L25.026 5.37614L29.3289 27.7079L34.2524 5.99671L33.5113 1.07324" stroke="#F9F9F7" stroke-width="1.3" stroke-linecap="round" stroke-linejoin="round"/>
<path d="M85.4114 1.07324L85.3569 1.55635L85.84 2.48333L99.498 15.6707L98.3895 29.3286L105.55 37.8741L114.095 52.4596L118.259 53.4209L119.104 57.584L121.806 65.2947L126.081 73.8539L128.714 85.8394L132.312 95.8785L138.45 110.194L140.001 114.095L140.582 115.863L142.351 134.771L154.214 125.958L148.059 114.095L160.198 103.687L170.606 95.8256L174.957 90.1904L175.092 85.8394L176.925 79.5207L174.581 61.559L179.085 57.584L174.761 53.429L170.606 52.2233L159.837 40.0978L151.402 29.3286L147.469 24.211L142.351 24.884L132.258 19.2355L126.646 16.7779L114.095 4.39028L102.387 12.7816L92.6173 1.07324" stroke="#F9F9F7" stroke-width="2" stroke-linecap="round" stroke-linejoin="round"/>
<path d="M334.993 391.504L332.462 376.071L332.603 368.394L329.544 357.799L328.149 352.128L324.243 340.139L325.065 326.957L322.953 322.953L325.982 311.883L318.868 304.899L311.883 305.199L301.441 301.441L292.442 303.069L289.201 289.201L285.507 283.628L285.043 282.213L283.628 281.176L282.081 282.081L263.806 283.628L256.211 284.466L255.372 284.123L241.246 297.757L232.816 311.883L236.89 321.656L227.117 323.706L216.848 329.87L219.115 340.139L215.174 352.082L213.706 354.984L211.119 368.394L208.945 378.478L202.65 392.861L201.468 396.649L200.927 398.715L198.862 399.887L195.176 400.335L177.552 403.595L170.606 404.327L159.179 413.478L152.309 424.905L151.788 434.342L151.405 444.106L150.92 453.16L147.963 458.773L142.351 461.87L136.719 458.792L133.138 453.16L125.572 441.684L114.095 438.248L101.954 441.019L94.0976 444.903L85.8399 447.83L81.1372 448.457L62.135 448.61L57.5845 449.096L54.0131 449.589L48.8316 453.16L41.1399 464.971L40.6178 470.127L36.9398 481.416L34.1794 486.266L29.3291 488.821L16.296 496.638L7.07827 509.671L5.99006 514.587L1.07373 527.345M381.162 327.371L384.354 324.178L383.383 311.883L373.749 306.528L368.394 302.366L359.49 302.979L352.176 311.883L361.854 318.423L368.394 324.504L381.162 327.371Z" stroke="#F9F9F7" stroke-width="2.2" stroke-linecap="round" stroke-linejoin="round"/>
<path d="M168.946 368.394L169.188 369.811L170.606 372.708L172.926 370.714L172.517 368.394L172.206 366.794L170.606 363.855L169.362 367.15L168.946 368.394Z" stroke="#F9F9F7" stroke-width="2" stroke-linecap="round" stroke-linejoin="round"/>
<path d="M157.811 198.861L161.93 207.537L170.606 218.541L180.621 217.102L184.715 227.116L188.302 237.675L186.407 242.917L187.73 255.372L187.545 266.688L187.351 272.117L187.17 283.627L189.058 293.43L192.73 305.752L194.14 311.883L194.411 316.333L198.861 318.326L208.264 321.285L213.261 311.883L213.737 298.503L213.257 297.487L213.426 283.627L211.39 271.099L211.26 267.77L209.631 255.372L208.348 245.885L205.194 233.449L204.138 227.116L203.833 222.144L198.861 210.024L190.179 207.543L192.589 198.861L190.674 190.673L189.365 180.102L186.397 170.606L185.28 157.025L185.187 156.025L184.09 142.35L177.616 135.34L170.606 131.257L157.461 129.205L145.898 142.35L159.507 153.45L159.201 159.2L162.978 170.606L161.329 179.883L159.579 187.834L157.811 198.861Z" stroke="#F9F9F7" stroke-width="1.2" stroke-linecap="round" stroke-linejoin="round"/>
<path d="M235.164 57.5842L237.844 68.3116L227.843 85.1139L249.486 79.9531L255.372 83.503L261.468 63.6794L269.401 57.5842L265.797 47.1602L255.372 48.4255L246.436 48.6476L235.164 57.5842Z" stroke="#F9F9F7" stroke-width="2" stroke-linecap="round" stroke-linejoin="round"/>
<path d="M237.045 340.139L247.648 347.863L255.372 349.809L262.705 347.472L266.571 340.139L264.442 331.069L255.372 329.027L243.335 328.102L237.045 340.139Z" stroke="#F9F9F7" stroke-width="2" stroke-linecap="round" stroke-linejoin="round"/>
<path d="M255.352 142.351L255.347 142.376L255.372 142.465L265.546 160.433L264.251 170.606L262.186 177.42L258.283 195.951L257.518 198.862L270.125 212.364L283.628 212.762L291.002 206.237L292.872 198.862L292.314 190.176L290.787 177.766L290.273 170.606L289.815 164.419L285.271 143.994L285.11 142.351L284.856 141.123L283.628 133.415L274.73 122.993L276.353 114.096L263.674 105.794L255.372 87.4229L243.258 101.981L244.509 114.096L247.392 122.076L255.34 142.319L255.352 142.351Z" stroke="#F9F9F7" stroke-width="2" stroke-linecap="round" stroke-linejoin="round"/>
<path d="M276.694 29.3292L274.357 38.5993L283.628 40.6508L287.247 32.9482L287.871 29.3292L287.569 25.3879L283.628 13.4834L279.56 25.2621L276.694 29.3292Z" stroke="#F9F9F7" stroke-width="2" stroke-linecap="round" stroke-linejoin="round"/>
<path d="M365.93 114.095L366.161 116.328L368.394 120.728L375.609 121.31L393.918 116.826L396.649 117.289L397.506 114.952L397.613 114.095L397.587 113.157L396.649 109.232L390.536 107.982L379.253 103.236L368.394 101.965L366.032 111.734L365.93 114.095Z" stroke="#F9F9F7" stroke-width="2" stroke-linecap="round" stroke-linejoin="round"/>
<path d="M362.872 57.5845L364.36 61.6182L368.394 72.6469L375.784 64.9743L375.382 57.5845L373.594 52.3842L368.394 44.501L362.622 51.8129L362.872 57.5845Z" stroke="#F9F9F7" stroke-width="2" stroke-linecap="round" stroke-linejoin="round"/>
<path d="M394.614 170.606L394.812 172.444L396.649 183.164L397.508 171.465L397.57 170.606L397.432 169.823L396.649 167.766L395.271 169.228L394.614 170.606Z" stroke="#F9F9F7" stroke-width="2" stroke-linecap="round" stroke-linejoin="round"/>
<path d="M1.07373 509.364L10.9047 491.246L25.1343 485.61L29.3291 483.094L30.4288 482.515L31.0546 481.415L31.8885 478.856L34.0159 457.846L37.0682 453.16L49.2132 444.788L57.5845 443.634L68.2505 442.494L75.1189 442.439L85.8399 441.008L97.7288 436.793L102.498 436.501L114.095 433.854L126.87 437.679L131.078 436.177L131.775 442.584L138.747 453.16L140.148 455.363L142.351 456.566L144.546 455.355L145.702 453.16L145.892 449.618L146.692 429.245L146.932 424.904L153.838 413.417L155.451 409.749L162.425 404.83L170.606 398.278L172.08 398.123L180.05 396.649L188.045 385.832L198.862 391.011L205.747 375.279L207.231 368.393L209.233 358.022L209.091 350.367L212.467 340.138L210.006 328.994L198.862 325.486L189.466 321.278L188.894 311.883L185.918 298.939L185.374 297.115L182.776 283.627L182.97 271.263L182.957 267.723L183.159 255.372L181.953 244.025L170.606 227.471L170.339 227.384L170.296 227.116L169.452 225.962L158.013 211.455L152.034 198.861L153.883 187.329L154.427 182.682L156.573 170.606L153.035 159.921L142.351 150.174L139.375 145.326L138.927 142.35L137.905 137.905L136.249 120.197L134.244 114.095L128.894 100.638L128.491 99.6991L123.524 85.8394L121.826 78.1089L114.095 62.6309L112.235 59.4446L112.371 57.584L109.36 52.8491L102.42 41.0036L92.6374 29.3286L93.2378 21.9308L85.8399 14.7877L81.1412 5.77196L81.671 1.07324" stroke="#F9F9F7" stroke-width="1.2" stroke-linecap="round" stroke-linejoin="round"/>
<path d="M1.07373 400.783L3.46703 399.042L5.51206 396.649L4.00992 393.713L1.07373 394.763" stroke="#F9F9F7" stroke-width="2" stroke-linecap="round" stroke-linejoin="round"/>
<path d="M1.07373 202.153L3.25621 201.044L4.17463 198.862L3.82138 196.114L2.9312 172.464L2.728 170.606L2.44579 169.234L1.07373 165.589" stroke="#F9F9F7" stroke-linecap="round" stroke-linejoin="round"/>
<path d="M24.1987 368.393L22.9902 374.732L29.3292 378.744L34.1064 373.171L40.6399 368.393L38.542 359.181L29.3292 360.534L25.22 364.284L24.1987 368.393Z" stroke="#F9F9F7" stroke-width="1.5" stroke-linecap="round" stroke-linejoin="round"/>
<path d="M36.7472 1.07324L38.0616 9.80575L34.897 23.7607L37.0742 29.3286L39.8983 39.8978L39.1413 47.7718L46.9193 57.584L37.3502 65.6052L29.3291 62.8576L26.6676 60.2455L25.0125 57.584L25.734 53.989L24.9724 33.6853L25.5573 29.3286L24.7979 24.7975L21.6972 8.70507L20.4932 1.07324" stroke="#F9F9F7" stroke-linecap="round" stroke-linejoin="round"/>
<path d="M49.9594 340.139L48.5063 349.217L57.5846 351.168L63.8906 346.445L66.4571 340.139L63.1138 334.61L57.5846 324.692L52.3607 334.915L49.9594 340.139Z" stroke="#F9F9F7" stroke-width="1.5" stroke-linecap="round" stroke-linejoin="round"/>
<path d="M52.6639 85.8402L55.5253 87.8995L57.5846 88.8494L61.4269 89.6825L62.7189 85.8402L60.8062 82.6186L57.5846 68.8164L49.8579 78.1135L52.6639 85.8402Z" stroke="#F9F9F7" stroke-width="1.3" stroke-linecap="round" stroke-linejoin="round"/>
<path d="M82.3419 114.095L82.6959 117.239L85.8399 123.051L89.0262 117.281L90.9266 114.095L89.9593 109.976L85.8399 108.207L81.5039 109.759L82.3419 114.095Z" stroke="#F9F9F7" stroke-width="2" stroke-linecap="round" stroke-linejoin="round"/>
<path d="M161.691 368.394L162.992 376.009L170.606 391.568L183.068 380.856L180.872 368.394L179.198 359.802L170.606 344.017L163.924 361.712L161.691 368.394Z" stroke="#F9F9F7" stroke-width="1.5" stroke-linecap="round" stroke-linejoin="round"/>
<path d="M167.059 1.07324L163.505 8.17423L170.606 11.9844L176.045 6.51263L175.804 1.07324" stroke="#F9F9F7" stroke-width="1.2" stroke-linecap="round" stroke-linejoin="round"/>
<path d="M245.295 340.138L251.125 344.385L255.372 345.455L259.404 344.17L261.53 340.138L260.359 335.151L255.372 334.028L248.754 333.52L245.295 340.138Z" stroke="#F9F9F7" stroke-width="2" stroke-linecap="round" stroke-linejoin="round"/>
<path d="M280.398 1.07324L277.654 7.04729L273.468 19.169L266.307 29.3286L264.106 38.0625L255.372 39.1227L245.329 39.3722L231.1 29.3286L228.169 28.2768L227.117 28.1626L225.82 28.0316L221.552 29.3286L212.59 43.0574L198.861 57.3634L196.151 54.8736L184.506 43.684L170.606 39.6502L165.751 34.1837L161.948 29.3286L153.431 18.2482L142.351 19.7054L130.404 13.0197L118.344 1.07324" stroke="#F9F9F7" stroke-width="2" stroke-linecap="round" stroke-linejoin="round"/>
<path d="M336.967 1.07324L337.604 3.60722L340.138 11.4807L345.867 6.80179L345.137 1.07324" stroke="#F9F9F7" stroke-width="2" stroke-linecap="round" stroke-linejoin="round"/>
<path d="M337.159 368.394L337.103 371.429L340.138 389.932L346.943 375.199L347.845 368.394L356.113 356.114L368.394 340.874L368.798 340.542L368.933 340.139L368.962 339.57L368.394 339.442L358.476 330.221L354.134 326.143L340.138 316.158L330.015 330.015L329.384 340.139L332.027 348.25L335.95 364.205L337.159 368.394Z" stroke="#F9F9F7" stroke-width="1.3" stroke-linecap="round" stroke-linejoin="round"/>
<path d="M382.038 198.862L390.319 205.193L396.649 207.372L401.741 203.954L402.558 198.862L403.016 192.495L404.078 178.035L404.61 170.606L403.421 163.834L396.649 146.043L384.735 158.692L379.045 170.606L380.332 182.544L380.566 186.69L382.038 198.862Z" stroke="#F9F9F7" stroke-width="2" stroke-linecap="round" stroke-linejoin="round"/>
<path d="M362.136 114.096L362.723 119.767L368.394 130.943L378.95 131.795L392.267 137.968L396.649 138.71L403.255 120.702L404.078 114.096L403.879 106.866L399.548 88.7391L399.427 85.8403L398.528 83.9616L396.649 82.3363L383.205 71.0295L382.473 57.5849L378.872 47.1071L368.394 31.2236L356.765 45.956L357.269 57.5849L360.267 65.7122L367.187 84.6333L367.63 85.8403L367.578 86.6559L362.395 108.097L362.136 114.096Z" stroke="#F9F9F7" stroke-width="2" stroke-linecap="round" stroke-linejoin="round"/>
<path d="M540 219L530.947 216.351L519.673 214.741L497.125 212.056H477.262L462.23 219.572L447.735 223.867L431.629 230.846L424.904 240.319L417.802 248.269L417.944 255.372L416.236 264.041L415.918 274.641L413.216 283.627L410.438 297.416L396.649 309.67L391.047 306.28L380.088 300.188L368.394 291.101L360.368 291.653L351.756 283.627L343.789 279.977L340.138 279.808L335.879 279.368L331.286 283.627L322.303 294.048L311.883 294.496L303.891 291.62L298.593 283.627L294.895 272.359L283.627 264.103L271.313 271.313L267.351 271.648L255.372 275.294L249.797 278.052L244.5 283.627L235.597 292.107L227.117 309.566L218.798 291.946L218.9 283.627L217.305 273.815L215.57 266.918L214.054 255.372L212.244 241.99L211.737 239.992L209.59 227.116L208.971 217.007L203.382 203.382L202.834 198.861L204.37 193.352L200.193 171.937L201.985 170.606L199.824 169.643L198.861 162.206L197.165 144.047L197.029 142.35L184.343 128.613L170.606 120.612L164.969 119.732L162.044 114.095L166.654 110.143L170.606 107.158L179.894 95.1278L180.182 85.8394L184.095 72.3501L183.904 70.8817L198.033 58.4124L198.861 57.6267L199.012 57.7344L219.472 65.2287L217.817 76.5394L221.097 85.8394L221.248 91.7084L227.117 97.5929L236.297 104.914L237.245 114.095L242.056 127.41L243.106 130.085L247.747 142.35L245.693 152.03L249.283 164.517L243.505 170.606L248.708 177.27L245.81 189.299L247.832 198.861L248.833 205.4L248.723 220.467L249.492 227.116L251.011 231.477L255.372 234.843L262.639 234.383L266.612 227.116L275.327 218.816L283.627 219.06L294.344 209.577L297.061 198.861L296.249 186.239L295.827 182.805L294.95 170.606L294.17 160.063L292.118 150.841L291.289 142.35L289.975 136.003L287.025 117.493L286.375 114.095L285.587 112.135L283.627 111.118L270.822 101.289L269.224 100.243L268.769 99.2365L260.523 85.8394L266.023 75.1885L267.658 69.8702L283.555 57.6568L283.627 57.5947L283.636 57.5922L283.644 57.584L283.651 57.5609L292.668 38.369L294.229 29.3286L293.473 19.4834L289.234 6.67949L288.537 1.07324" stroke="#F9F9F7" stroke-width="1.5" stroke-linecap="round" stroke-linejoin="round"/>
<path d="M1.07373 387.532L15.1694 382.49L17.8566 368.394L20.1405 359.205L29.3291 350.818L38.6412 349.451L40.1317 340.139L45.6278 328.182L50.1655 319.302L53.8245 311.883L54.6029 308.901L57.5845 292.838L61.1006 308.367L61.4296 311.883L66.53 320.829L70.2401 327.483L77.8923 340.139L72.4379 353.541L72.4154 354.969L69.5816 356.397L57.5845 365.382L53.7481 364.558L54.6218 368.394L40.0117 379.077L29.3291 391.539L15.4108 382.731L22.5314 396.649L12.6444 408.22L1.07373 416.636" stroke="#F9F9F7" stroke-width="1.3" stroke-linecap="round" stroke-linejoin="round"/>
<path d="M1.07373 206.661L6.24522 204.033L8.42146 198.861L7.58442 192.351L6.98859 176.521L6.34154 170.606L5.44289 166.237L1.07373 154.629" stroke="#F9F9F7" stroke-width="1.3" stroke-linecap="round" stroke-linejoin="round"/>
<path d="M16.6392 1.07324L18.3684 12.034L19.8801 19.8796L21.4636 29.3286L20.244 38.4139L20.637 48.8918L18.8926 57.584L22.8943 64.019L29.3292 70.3345L40.8781 74.2905L45.0722 85.8394L52.3482 91.0759L57.5846 93.4913L67.3548 95.6097L70.6401 85.8394L65.7765 77.6476L62.1618 62.1612L60.4464 57.584L61.4272 53.7414L57.5846 49.5469L48.0329 38.8803L45.4808 29.3286L40.9404 17.7175L41.8707 13.6148L39.9831 1.07324" stroke="#F9F9F7" stroke-width="2.2" stroke-linecap="round" stroke-linejoin="round"/>
<path d="M77.9307 1.07324L76.9256 9.98756L85.8399 27.0922L86.9778 28.1908L86.8854 29.3286L92.2911 35.7799L99.3906 44.0334L108.006 57.584L107.525 64.154L114.095 75.4054L117.571 82.364L118.334 85.8394L120.702 92.4461L124.393 103.798L128.487 114.095L131.915 124.53L132.677 132.677L134.9 142.35L135.876 148.825L142.351 159.375L148.224 164.733L150.169 170.606L148.989 177.244L147.003 194.209L146.257 198.861L149.787 206.298L153.351 216.116L161.396 227.116L162.66 235.063L170.606 237.631L177.821 248.157L178.588 255.372L178.46 263.225L178.506 275.727L178.382 283.627L180.237 293.259L181.21 301.279L183.648 311.883L184.493 325.77L170.606 333.229L166.041 335.573L164.376 340.138L160.922 349.822L158.486 356.274L154.437 368.393L156.795 382.205L157.401 383.444L161.342 396.649L150.206 404.504L142.351 422.361L139.813 422.367L138.819 424.904L120.6 431.408L114.095 429.461L108.191 430.809L92.6924 431.757L85.8399 434.186L75.1285 435.616L69.5709 436.891L57.5845 438.172L44.4133 439.988L38.2567 444.232L29.3291 447.778L25.8262 449.657L25.9481 453.16L23.6842 458.805L21.1502 473.236L13.9099 481.415L4.71552 485.057L1.07373 491.768" stroke="#F9F9F7" stroke-width="1.5" stroke-linecap="round" stroke-linejoin="round"/>
<path d="M77.789 114.096L78.6037 121.332L85.8397 134.709L93.1728 121.429L97.5466 114.096L95.3205 104.615L85.8397 100.545L75.8604 104.116L77.789 114.096Z" stroke="#F9F9F7" stroke-width="2" stroke-linecap="round" stroke-linejoin="round"/>
<path d="M112.844 340.138L113.392 340.842L114.095 340.959L114.415 340.458L114.411 340.138L114.432 339.801L114.095 336.84L113.544 339.587L112.844 340.138Z" stroke="#F9F9F7" stroke-width="2" stroke-linecap="round" stroke-linejoin="round"/>
<path d="M137.005 283.628L137.916 288.062L142.35 288.403L145.605 286.882L148.084 283.628L147.213 278.766L142.35 268.088L138.131 279.408L137.005 283.628Z" stroke="#F9F9F7" stroke-width="2" stroke-linecap="round" stroke-linejoin="round"/>
<path d="M125.017 1.07324L133.725 9.69931L142.351 14.5268L154.241 12.9631L160.192 1.07324" stroke="#F9F9F7" stroke-linecap="round" stroke-linejoin="round"/>
<path d="M189.227 368.394L190.67 376.586L198.862 380.508L202.549 372.082L203.344 368.394L204.416 362.84L204.092 345.369L205.819 340.139L204.56 334.44L198.862 332.647L185.292 326.569L182.888 340.139L187.081 351.92L186.897 356.43L189.227 368.394Z" stroke="#F9F9F7" stroke-width="2" stroke-linecap="round" stroke-linejoin="round"/>
<path d="M182.672 114.096L193.834 119.123L198.862 124.76L208.185 133.028L208.295 142.351L214.339 155.129L227.117 164.045L237.862 153.096L240.142 142.351L236.567 132.901L231.604 118.582L229.983 114.096L229.715 111.498L227.117 109.427L215.339 97.6178L215.038 85.8402L210.819 73.8825L198.862 65.3164L188.329 75.3072L185.274 85.8402L184.838 99.8636L185.253 100.487L182.672 114.096Z" stroke="#F9F9F7" stroke-width="2" stroke-linecap="round" stroke-linejoin="round"/>
<path d="M253.545 340.138L254.602 340.909L255.372 341.103L256.104 340.87L256.489 340.138L256.277 339.234L255.372 339.031L254.172 338.938L253.545 340.138Z" stroke="#F9F9F7" stroke-width="2" stroke-linecap="round" stroke-linejoin="round"/>
<path d="M224.373 283.628L224.34 286.405L227.117 292.287L229.948 286.459L232.92 283.628L243.858 272.114L255.372 266.419L263.841 263.841L275.663 255.372L267.524 243.221L255.372 243.989L245.849 236.64L242.532 227.117L240.933 213.3L240.702 212.446L238.622 198.861L236.614 189.364L227.117 178.889L216.57 188.315L213.63 198.861L215.088 210.89L214.255 214.255L215.042 227.117L216.768 237.466L217.125 245.38L218.476 255.372L219.479 263.01L223.841 280.352L224.373 283.628Z" stroke="#F9F9F7" stroke-width="2" stroke-linecap="round" stroke-linejoin="round"/>
<path d="M273.629 1.07324L267.883 13.5836L257.231 27.4702L255.921 29.3286L255.811 29.7668L255.372 29.82L254.869 29.8325L254.155 29.3286L234.257 22.1884L227.117 21.4129L218.312 20.5237L203.019 25.1716L198.862 24.0637L186.422 13.5133L185.87 1.07324" stroke="#F9F9F7" stroke-width="2.2" stroke-linecap="round" stroke-linejoin="round"/>
<path d="M325.912 1.07324L328.773 12.4384L331.395 20.5855L333.857 29.3286L336.04 33.4271L340.138 34.9238L351.187 46.5359L351.665 57.584L356.173 69.805L358.372 75.8176L362.052 85.8394L361.622 92.6116L358.758 104.459L358.341 114.095L359.285 123.204L368.394 141.157L369.498 141.246L371.88 142.35L370.214 144.17L368.394 149.979L365.763 167.975L364.769 170.606L365.078 173.921L365.918 196.386L366.127 198.861L366.846 200.409L368.394 203.112L380.804 211.271L382.751 212.76L396.649 217.545L407.828 210.04L409.621 198.861L410.626 184.884L410.647 184.603L411.651 170.606L409.41 157.845L407.73 153.431L404.962 142.35L406.95 132.049L409.004 126.45L410.543 114.095L410.171 100.573L409.791 98.9814L409.243 85.8394L405.166 77.3222L396.649 69.9536L389.93 64.303L389.565 57.584L385.854 46.7889L384.793 41.1853L378.211 29.3286L374.609 23.1134L368.394 9.01223L363.217 6.24988L362.558 1.07324" stroke="#F9F9F7" stroke-width="2" stroke-linecap="round" stroke-linejoin="round"/>
<path d="M334.525 340.139L335.904 344.373L340.139 361.594L348.57 348.57L355.224 340.139L347.444 332.833L340.139 327.621L334.854 334.854L334.525 340.139Z" stroke="#F9F9F7" stroke-linecap="round" stroke-linejoin="round"/>
<path d="M454.586 1.07324L465.548 13.4607L466.944 15.5452L467.456 15.3696L481.415 18.5364L484.203 26.5416L484.597 29.3286L484.527 32.44L481.415 46.8267L472.161 48.33L464.726 57.584L455.769 60.1935L453.16 62.0694L450.462 60.2816L449.69 57.584L449.523 53.947L449.169 33.3193L448.975 29.3286L449.305 25.4731L452.276 1.95689L452.358 1.07324" stroke="#F9F9F7" stroke-width="2" stroke-linecap="round" stroke-linejoin="round"/>
<path d="M539 213.5L530.41 210.446L518.599 209.372L509.473 207.761H502.494L478.872 205.614L464.377 214.204L456.861 215.277L445.05 220.109L427.334 227.088L424.905 232.41L414.07 244.537L414.287 255.372L411.681 268.596L411.628 270.351L407.636 283.627L405.794 292.772L396.649 300.899L385.889 294.388L372.518 283.627L370.517 281.504L368.394 277.25L361.257 276.49L351.668 272.097L340.138 271.564L326.686 270.175L312.18 283.627L312.042 283.786L311.883 283.793L311.761 283.749L311.68 283.627L311.581 283.325L311.883 281.783L322.5 265.989L314.756 255.372L313.517 253.738L311.883 251.667L305.375 248.864L292.845 246.154L283.628 237.387L275.44 235.304L279.916 227.116L281.817 225.306L283.628 225.359L297.686 212.919L301.25 198.861L300.519 187.497L300.449 182.039L299.628 170.606L298.649 157.371L298.751 155.482L297.467 142.35L295.094 130.884L294.085 124.552L292.085 114.095L289.659 108.063L283.628 104.933L272.825 96.6418L266.176 85.8394L272.119 74.3308L283.628 64.5053L288.958 62.9148L294.318 57.584L298.265 43.9661L298.229 42.983L300.586 29.3286L299.647 17.0922L300.269 12.6874L298.826 1.07324" stroke="#F9F9F7" stroke-width="2.4" stroke-linecap="round" stroke-linejoin="round"/>
<path d="M1.07373 431.679L14.1705 438.002L15.5672 424.905L23.8706 419.446L29.3291 412.737L34.789 402.109L34.7477 396.649L45.4535 384.518L57.5845 375.103L67.4571 378.267L79.437 374.797L82.557 393.366L84.7369 396.649L84.5847 397.905L85.8399 402.919L96.9925 413.752L110.149 420.959L114.095 423.436L115.556 423.444L114.984 424.905L114.329 425.139L114.095 425.069L113.883 425.117L87.6561 426.721L85.8399 427.365L83.001 427.744L64.6363 431.957L57.5845 432.71L48.5301 433.959L34.4426 430.018L29.3291 432.049L15.587 439.418L16.0651 453.16L11.7738 463.86L1.07373 475.385" stroke="#F9F9F7" stroke-width="2" stroke-linecap="round" stroke-linejoin="round"/>
<path d="M1.07373 211.169L9.23423 207.022L12.6683 198.861L11.3475 188.588L11.046 180.578L9.95508 170.606L8.43998 163.24L1.07373 143.669" stroke="#F9F9F7" stroke-width="1.3" stroke-linecap="round" stroke-linejoin="round"/>
<path d="M12.785 1.07324L14.9787 14.9782L15.0308 15.3716L17.3697 29.3286L15.5153 43.1425L15.5398 43.7947L12.7724 57.584L19.1208 67.7924L29.3291 77.8114L35.3088 79.8597L37.4804 85.8394L49.171 94.253L57.5845 98.1339L70.7015 100.978L73.2365 114.095L74.5119 125.423L81.1091 137.619L82.3086 142.35L83.4753 144.715L85.8399 147.94L87.8244 144.335L87.9971 142.35L90.7905 137.4L97.3198 125.575L104.167 114.095L101.12 101.12L114.095 88.9155L120.273 107.917L122.729 114.095L126.955 126.954L127.739 128.707L130.874 142.35L132.377 152.324L142.351 168.575L143.412 169.544L143.764 170.606L143.551 171.806L142.351 182.057L137.493 194.003L121.263 191.693L114.095 194.187L109.489 194.255L104.764 198.861L106.108 206.848L114.095 219.074L126.169 210.935L131.763 209.449L142.351 205.111L148.211 221.256L152.497 227.116L154.415 239.181L142.351 245.301L134.711 247.732L133.493 255.372L129.41 268.313L128.765 270.042L125.14 283.627L127.997 297.529L114.095 299.216L106.582 304.369L103.516 311.883L97.9756 324.018L85.8399 334.645L77.1609 320.562L72.2125 311.883L70.9607 298.506L70.5207 296.563L68.9753 283.627L69.3643 271.847L57.5845 261.139L47.6532 273.696L49.8437 283.627L47.5107 293.701L46.2414 300.539L43.2801 311.883L38.6722 321.226L31.1335 338.334L30.3041 340.138L30.1696 340.978L29.3291 341.102L18.2799 351.187L14.8032 353.868L14.9682 354.499L11.5146 368.393L9.84284 377.163L1.07373 380.299" stroke="#F9F9F7" stroke-width="2.2" stroke-linecap="round" stroke-linejoin="round"/>
<path d="M26.2856 255.372L28.0038 256.697L29.3293 257.505L34.115 260.158L42.2627 255.372L31.7588 252.942L29.3293 253.898L28.1808 254.223L26.2856 255.372Z" stroke="#F9F9F7" stroke-width="2" stroke-linecap="round" stroke-linejoin="round"/>
<path d="M74.1905 1.07324L72.71 14.2032L74.882 18.3707L67.4629 29.3286L77.2785 37.8901L85.8399 34.0499L96.7225 46.7015L103.642 57.584L102.816 68.8634L110.811 82.5549L109.398 85.8394L98.1785 98.178L85.8399 92.881L74.8738 96.8056L78.5612 85.8394L70.7467 72.6773L70.1587 70.1582L65.4464 57.584L68.1407 47.0279L57.5846 35.5048L54.6668 32.2464L53.8871 29.3286L51.5129 23.257L45.0981 13.5597L43.2188 1.07324" stroke="#F9F9F7" stroke-linecap="round" stroke-linejoin="round"/>
<path d="M108.076 368.394L110.764 371.725L114.095 371.242L125.811 384.934L130.409 396.649L133.786 405.214L142.351 405.193L144.961 399.26L148.661 396.649L147.211 391.789L148.176 374.22L147.181 368.394L149.606 361.139L152.878 350.666L156.632 340.139L160.367 329.9L170.606 324.643L178.907 320.184L178.402 311.883L176.944 305.545L174.795 287.817L173.988 283.628L174.042 280.192L173.962 258.728L174.017 255.372L173.689 252.289L170.606 247.792L159.405 244.172L155.301 255.372L158.73 267.248L158.672 271.694L160.81 283.628L152.829 294.106L142.351 299L128.396 297.929L124.933 311.883L124.043 321.831L124.897 329.337L124.234 340.139L124.359 350.403L114.095 366.451L111.764 366.063L108.076 368.394Z" stroke="#F9F9F7" stroke-width="2" stroke-linecap="round" stroke-linejoin="round"/>
<path d="M131.689 1.07324L137.045 6.37892L142.351 9.3482L149.664 8.38639L153.324 1.07324" stroke="#F9F9F7" stroke-linecap="round" stroke-linejoin="round"/>
<path d="M197.582 368.394L197.774 369.482L198.861 370.002L199.351 368.884L199.457 368.394L199.599 367.656L199.093 340.37L199.17 340.138L199.114 339.886L198.861 339.806L198.26 339.537L198.153 340.138L198.339 340.661L197.272 366.805L197.582 368.394Z" stroke="#F9F9F7" stroke-width="2" stroke-linecap="round" stroke-linejoin="round"/>
<path d="M190.364 85.8397L190.092 94.6094L198.861 107.789L209.243 96.2215L208.977 85.8397L206.339 78.3618L198.861 73.0049L192.275 79.2528L190.364 85.8397Z" stroke="#F9F9F7" stroke-width="2" stroke-linecap="round" stroke-linejoin="round"/>
<path d="M195.936 1.07324L196.06 3.87502L198.862 6.2512L205.921 8.13272L214.774 13.4166L227.117 14.6632L240.346 16.1L243.15 17.1064L255.372 19.2078L263.244 8.94525L266.86 1.07324" stroke="#F9F9F7" stroke-width="1.2" stroke-linecap="round" stroke-linejoin="round"/>
<path d="M222.899 255.372L223.389 259.101L227.117 273.925L236.019 264.275L251.075 259.669L255.372 257.544L257.037 257.037L259.361 255.372L257.761 252.983L255.372 253.134L245.569 245.568L239.809 242.681L240.092 240.092L235.572 227.117L234.695 219.539L229.827 201.572L229.412 198.861L229.012 196.967L227.117 194.877L225.013 196.757L224.426 198.861L224.717 201.261L220.062 220.062L220.494 227.117L221.441 232.793L222.239 250.494L222.899 255.372Z" stroke="#F9F9F7" stroke-width="2" stroke-linecap="round" stroke-linejoin="round"/>
<path d="M219.284 142.351L221.8 147.668L227.117 151.379L231.588 146.822L232.537 142.351L231.05 138.418L227.117 127.073L219.191 134.425L219.284 142.351Z" stroke="#F9F9F7" stroke-width="2" stroke-linecap="round" stroke-linejoin="round"/>
<path d="M309.114 1.07324L309.42 3.53588L306.532 23.9781L306.943 29.3286L305.912 35.2992L306.54 52.2411L304.991 57.584L294.281 68.2374L283.627 71.416L275.847 78.0587L271.829 85.8394L276.324 93.1427L283.627 98.7482L293.731 103.991L297.794 114.095L300.056 125.922L301.496 131.963L303.646 142.35L304.379 149.854L303.7 162.422L304.305 170.606L304.813 177.675L304.996 191.974L305.439 198.861L303.25 207.494L307.282 222.515L300.691 227.116L306.373 232.626L311.883 234.999L320.865 246.39L327.679 255.372L332.934 262.576L340.138 263.319L348.472 263.705L365.746 258.019L368.394 258.301L376.827 275.194L384.773 283.627L391.353 288.923L396.649 292.127L401.15 288.128L402.056 283.627L404.381 275.895L408.328 267.051L410.629 255.372L410.355 241.666L396.649 227.547L395.888 227.878L390.98 227.116L371.156 224.354L368.394 222.539L359.77 207.485L355.766 198.861L354.606 185.073L354.581 184.418L353.294 170.606L357.433 159.645L358.518 152.226L361.174 142.35L359.101 133.058L355.846 126.642L354.547 114.095L355.12 100.821L355.665 98.5682L356.473 85.8394L352.086 73.8914L349.523 66.969L346.062 57.584L345.816 51.9066L340.138 45.9394L327.971 41.4959L321.491 29.3286L319.38 21.8314L315.858 5.04875L314.858 1.07324" stroke="#F9F9F7" stroke-width="1.3" stroke-linecap="round" stroke-linejoin="round"/>
<path d="M339.666 340.138L339.782 340.495L340.138 341.946L340.849 340.849L341.409 340.138L340.754 339.523L340.138 339.084L339.693 339.693L339.666 340.138Z" stroke="#F9F9F7" stroke-linecap="round" stroke-linejoin="round"/>
<path d="M438.638 1.07324L437.48 13.6486L437.314 16.9196L436.254 29.3286L436.834 41.2582L437.149 45.3395L437.71 57.584L441.151 69.5933L453.16 77.5524L464.777 69.2009L471.863 67.1365L481.415 63.0051L484.385 60.5537L485.412 57.584L485.548 53.4511L489.103 37.0159L489.276 29.3286L488.301 22.4426L481.415 2.66421L480.119 2.37001L478.971 1.07324" stroke="#F9F9F7" stroke-width="2" stroke-linecap="round" stroke-linejoin="round"/>
<path d="M454.586 1.07324L465.548 13.4607L466.944 15.5452L467.457 15.3696L481.416 18.5364L484.203 26.5416L484.597 29.3286L484.527 32.44L481.416 46.8267L472.162 48.33L464.727 57.584L455.77 60.1935L453.16 62.0694L450.463 60.2816L449.69 57.584L449.523 53.947L449.17 33.3193L448.976 29.3286L449.305 25.4731L452.277 1.95689L452.358 1.07324" stroke="#F9F9F7" stroke-width="1.3" stroke-linecap="round" stroke-linejoin="round"/>
<path d="M438.638 1.07324L437.48 13.6486L437.314 16.9196L436.254 29.3286L436.834 41.2582L437.149 45.3395L437.71 57.584L441.151 69.5933L453.16 77.5524L464.777 69.2009L471.863 67.1365L481.415 63.0051L484.385 60.5537L485.412 57.584L485.548 53.4511L489.103 37.0159L489.276 29.3286L488.301 22.4426L481.415 2.66421L480.119 2.37001L478.971 1.07324" stroke="#F9F9F7" stroke-width="2.2" stroke-linecap="round" stroke-linejoin="round"/>
<path d="M539.5 208L532.587 204.201L511.951 201.141L509.671 200.368L507.628 200.904L485.729 198.861L481.863 198.414L481.415 198.409L481 198.445L480.296 198.861L462.272 207.973L453.16 209.645L441.325 215.281L434.842 217.179L424.905 220.865L415.114 208.652L416.684 198.861L417.235 191.192L418.211 177.299L418.691 170.606L417.368 163.069L416.962 150.293L414.978 142.35L416.583 134.029L415.885 123.115L417.008 114.095L416.785 105.975L419.293 91.4513L419.059 85.8394L413.693 74.6273L412.565 69.9238L396.675 57.584L396.671 57.5623L396.649 57.5383L392.156 33.8214L389.663 29.3286L381.858 15.864L380.813 13.4927L374.778 1.07324" stroke="#F9F9F7" stroke-width="2" stroke-linecap="round" stroke-linejoin="round"/>
<path d="M1.07373 460.734L4.71983 456.807L6.18208 453.161L6.01035 448.224L1.07373 445.841" stroke="#F9F9F7" stroke-width="2" stroke-linecap="round" stroke-linejoin="round"/>
<path d="M1.07373 373.068L4.51626 371.836L5.17254 368.394L6.52832 362.939L1.07373 342.058" stroke="#F9F9F7" stroke-width="2" stroke-linecap="round" stroke-linejoin="round"/>
<path d="M1.07373 215.677L12.2232 210.011L16.9151 198.862L15.1105 184.825L15.1034 184.636L13.5686 170.606L11.4371 160.243L6.89298 148.17L5.30123 142.351L4.46472 138.96L1.07373 135.389" stroke="#F9F9F7" stroke-width="1.3" stroke-linecap="round" stroke-linejoin="round"/>
<path d="M8.93082 1.07324L10.4026 10.4021L11.5246 18.8778L13.2759 29.3286L11.8317 40.0866L8.05302 50.6048L6.65237 57.584L15.3473 71.5659L29.3291 85.2883L29.7396 85.429L29.8887 85.8394L45.9939 97.4301L57.5845 102.776L66.8861 104.793L68.6838 114.095L70.0919 126.602L69.1292 130.806L72.0562 142.35L76.6103 151.58L85.8399 164.168L93.5858 150.096L94.2599 142.35L101.415 129.67L105.898 122.292L110.787 114.095L109.772 109.772L114.095 105.705L116.154 112.036L116.972 114.095L118.38 118.379L124.465 131.981L126.848 142.35L128.878 155.823L130.959 159.214L134.987 170.606L126.142 182.652L114.095 186.844L102.252 187.017L90.1032 198.861L90.9657 203.987L87.0934 225.863L87.6037 227.116L87.7599 229.036L85.8399 228.522L84.8088 228.148L84.2571 227.116L67.362 217.339L57.5845 218.74L52.6933 222.225L49.9299 227.116L42.645 240.432L29.3291 245.67L21.769 247.812L9.29396 255.372L20.604 264.097L29.3291 269.416L38.473 274.483L40.4898 283.627L38.3912 292.689L33.9392 307.273L32.7357 311.883L31.6105 314.164L29.3291 319.341L19.5082 330.317L2.57869 338.633L1.07373 339.547" stroke="#F9F9F7" stroke-width="1.2" stroke-linecap="round" stroke-linejoin="round"/>
<path d="M45.1484 424.905L54.8662 427.623L57.5847 427.248L59.7019 427.022L68.9314 424.905L72.8222 411.887L72.3778 410.112L74.0099 396.649L67.4556 386.779L57.5847 383.615L50.2463 389.311L43.77 396.649L43.8736 410.361L44.8391 412.159L45.1484 424.905Z" stroke="#F9F9F7" stroke-width="1.5" stroke-linecap="round" stroke-linejoin="round"/>
<path d="M46.4546 1.07324L47.9107 10.7472L57.5847 25.3716L69.1466 12.6352L70.4503 1.07324" stroke="#F9F9F7" stroke-width="2" stroke-linecap="round" stroke-linejoin="round"/>
<path d="M82.9954 311.883L84.0283 313.695L85.8399 316.634L88.373 314.416L89.5295 311.883L92.0729 305.65L91.5286 289.316L107.458 283.627L95.5387 273.929L85.8399 278.213L82.8387 280.626L82.7396 283.627L83.0705 286.397L82.7017 308.745L82.9954 311.883Z" stroke="#F9F9F7" stroke-width="1.2" stroke-linecap="round" stroke-linejoin="round"/>
<path d="M113.813 249.1L110.055 250.173L109.518 256.079L106.297 265.205L112.739 272.184L114.35 259.3L117.034 251.247L113.813 249.1Z" stroke="#F9F9F7"/>
<path d="M111.665 258.227L109.518 264.669L110.592 265.742L111.665 258.227Z" stroke="#F9F9F7"/>
<path d="M70.4463 57.5845L74.6426 68.7817L85.8398 85.1146L98.3604 70.1051L99.2771 57.5845L94.0542 49.3701L85.8398 39.8203L73.5764 45.321L70.4463 57.5845Z" stroke="#F9F9F7" stroke-width="2" stroke-linecap="round" stroke-linejoin="round"/>
<path d="M105.984 255.372L102.961 266.506L114.095 279.302L118.176 259.452L119.463 255.372L120.481 248.986L114.095 245.8L106.36 247.636L105.984 255.372Z" stroke="#F9F9F7" stroke-width="2.3" stroke-linecap="round" stroke-linejoin="round"/>
<path d="M137.887 227.117L139.073 230.394L142.351 229.352L143.833 228.6L143.597 227.117L143.071 226.397L142.351 224.413L140.432 225.199L137.887 227.117Z" stroke="#F9F9F7" stroke-width="2" stroke-linecap="round" stroke-linejoin="round"/>
<path d="M138.361 1.07324L140.365 3.05853L142.351 4.16958L145.087 3.80969L146.457 1.07324" stroke="#F9F9F7" stroke-linecap="round" stroke-linejoin="round"/>
<path d="M134.057 340.139L134.157 348.333L142.351 360.383L147.17 344.958L148.889 340.139L152.643 329.847L148.095 317.628L162.031 320.459L170.606 316.056L173.321 314.598L173.155 311.884L172.679 309.811L170.606 292.711L163.606 304.883L146.639 307.595L142.351 309.598L139.875 309.408L139.261 311.884L138.957 315.277L134.536 332.325L134.057 340.139Z" stroke="#F9F9F7" stroke-width="2" stroke-linecap="round" stroke-linejoin="round"/>
<path d="M195.455 85.8401L195.346 89.3561L198.862 94.64L203.024 90.0025L202.917 85.8401L201.86 82.842L198.862 80.6943L196.221 83.1993L195.455 85.8401Z" stroke="#F9F9F7" stroke-width="2" stroke-linecap="round" stroke-linejoin="round"/>
<path d="M225.946 227.117L226.114 228.12L227.117 250.365L229.411 229.41L228.612 227.117L228.457 225.777L227.117 220.833L225.87 225.87L225.946 227.117Z" stroke="#F9F9F7" stroke-width="2" stroke-linecap="round" stroke-linejoin="round"/>
<path d="M210.495 1.07324L220.904 7.28612L227.117 7.91357L234.791 8.74701L249.016 7.4297L255.372 8.52259L258.606 4.30692L260.091 1.07324" stroke="#F9F9F7" stroke-width="1.2" stroke-linecap="round" stroke-linejoin="round"/>
<path d="M277.482 85.8401L279.824 89.6442L283.628 92.5639L297.606 99.8177L297.941 99.7828L297.867 100.079L303.504 114.095L304.849 121.13L309.288 139.755L309.825 142.351L310.008 144.226L308.751 167.474L308.983 170.606L309.178 173.312L309.474 196.452L309.629 198.862L308.863 201.882L311.883 213.137L318.951 220.049L318.93 227.117L328.256 239L340.139 254.746L354.136 241.114L359.207 227.117L352.531 214.724L349.97 208.693L345.405 198.862L344.997 194.004L341.992 172.46L341.82 170.606L342.839 167.906L350.274 152.486L353 142.351L350.655 131.835L351.979 125.936L350.753 114.095L351.232 103.002L350.253 95.9545L350.896 85.8401L348.007 77.9722L340.646 58.0917L340.459 57.5847L340.445 57.278L340.139 56.9556L339.148 56.5938L336.217 57.5847L316.981 62.6821L311.883 65.6975L301.754 75.7107L294.335 75.1326L283.628 78.3273L279.575 81.7873L277.482 85.8401Z" stroke="#F9F9F7" stroke-width="1.3" stroke-linecap="round" stroke-linejoin="round"/>
<path d="M374.906 255.372L382.994 269.028L396.649 283.321L405.273 263.996L406.973 255.372L406.77 245.252L396.649 234.826L383.016 240.75L381.845 240.568L381.907 241.859L374.906 255.372Z" stroke="#F9F9F7" stroke-width="2" stroke-linecap="round" stroke-linejoin="round"/>
<path d="M423.747 198.862L423.526 200.241L424.905 201.961L427.165 201.122L431.342 198.862L432.033 191.734L424.905 182.399L423.825 197.781L423.747 198.862Z" stroke="#F9F9F7" stroke-width="2" stroke-linecap="round" stroke-linejoin="round"/>
<path d="M423.473 114.095L423.27 115.73L424.905 141.267L434.73 123.92L434.579 114.095L431.293 107.707L424.905 104.099L423.433 112.623L423.473 114.095Z" stroke="#F9F9F7" stroke-width="1.3" stroke-linecap="round" stroke-linejoin="round"/>
<path d="M423.085 57.5842L424.109 58.3796L424.905 61.6971L426.062 58.741L425.73 57.5842L425.694 56.795L424.905 46.5684L422.622 55.3012L423.085 57.5842Z" stroke="#F9F9F7" stroke-width="2" stroke-linecap="round" stroke-linejoin="round"/>
<path d="M424.918 1.07324L424.917 1.08561L424.905 1.32893L419.88 24.304L406.062 19.9164L396.649 22.7238L388.392 9.33087L384.379 1.07324" stroke="#F9F9F7" stroke-width="1.3" stroke-linecap="round" stroke-linejoin="round"/>
<path d="M487.487 1.07324L489.043 8.70111L492.4 18.3436L493.955 29.3286L493.679 41.5918L492.65 46.3498L492.278 57.584L489.488 65.6562L481.415 72.3197L471.978 76.4016L460.013 85.8394L466.629 99.308L466.57 100.684L467.939 100.619L481.415 107.178L485.846 109.664L491.938 114.095L498.715 125.05L509.671 135.683L511.623 140.398L511.733 142.35L512.814 145.494L509.671 167.416L508.212 169.147L485.933 166.088L481.415 165.5L477.156 166.346L467.698 170.606L477.977 174.044L481.415 173.743L484.586 173.776L508.736 171.541L509.671 171.553L511.209 172.144L514 169.147L517 150L521.5 158L535.5 170.5H539.5" stroke="#F9F9F7" stroke-width="2" stroke-linecap="round" stroke-linejoin="round"/>
<path d="M1.07373 127.475L8.31939 135.105L10.1068 142.351L13.508 154.785L14.4342 157.246L17.1822 170.606L18.3799 181.556L19.957 189.49L21.162 198.862L15.228 212.963L15.242 213.03L15.1683 213.023L1.07373 220.185" stroke="#F9F9F7" stroke-width="1.3" stroke-linecap="round" stroke-linejoin="round"/>
<path d="M1.07373 58.8574L10.4126 76.5007L19.9851 85.8395L23.9186 91.2501L29.3291 91.9878L42.651 100.773L45.1929 101.703L57.5845 107.419L63.0708 108.609L64.131 114.095L64.9616 121.472L60.9504 138.984L61.8038 142.35L65.9134 150.679L69.2978 158.892L77.2885 170.606L76.0409 180.405L75.5709 188.592L74.0357 198.861L66.2276 207.504L57.5845 208.743L46.8553 216.387L40.7937 227.117L36.7396 234.527L29.3291 237.442L15.3573 241.4L14.5661 241.88L1.07373 248.27" stroke="#F9F9F7" stroke-width="1.2" stroke-linecap="round" stroke-linejoin="round"/>
<path d="M5.07668 1.07324L5.82652 5.82603L8.01831 22.3841L9.18208 29.3286L8.22242 36.4773L1.07373 58.8572" stroke="#F9F9F7" stroke-width="1.3" stroke-linecap="round" stroke-linejoin="round"/>
<path d="M1.07373 262.896L12.9486 271.753L23.4358 277.734L29.3291 281.327L30.8095 282.147L31.136 283.628L30.7962 285.095L29.3291 289.901L21.4441 303.998L19.1652 311.883L10.4791 321.289L1.07373 327.001" stroke="#F9F9F7" stroke-width="2" stroke-linecap="round" stroke-linejoin="round"/>
<path d="M52.792 396.65L52.8279 401.406L57.5845 410.268L62.6665 401.732L63.2826 396.65L61.0088 393.225L57.5845 392.128L55.0387 394.104L52.792 396.65Z" stroke="#F9F9F7" stroke-width="2" stroke-linecap="round" stroke-linejoin="round"/>
<path d="M49.6899 1.07324L50.7227 7.93482L57.5843 18.3076L65.785 9.27393L66.7096 1.07324" stroke="#F9F9F7" stroke-width="1.3" stroke-linecap="round" stroke-linejoin="round"/>
<path d="M75.4463 57.585L78.2796 65.1452L85.8398 76.173L94.2936 66.0387L94.9125 57.585L91.3861 52.0387L85.8398 45.5908L77.5597 49.3048L75.4463 57.585Z" stroke="#F9F9F7" stroke-width="1.5" stroke-linecap="round" stroke-linejoin="round"/>
<path d="M95.2339 170.606L105.068 179.633L114.095 179.5L120.694 177.204L125.539 170.606L122.549 162.151L124.369 152.624L122.821 142.35L121.191 135.255L114.095 119.395L105.418 133.674L100.523 142.35L99.3471 155.858L97.8278 158.618L95.2339 170.606Z" stroke="#F9F9F7" stroke-width="2" stroke-linecap="round" stroke-linejoin="round"/>
<path d="M226.896 1.07324L227.034 1.15559L227.117 1.16391L227.219 1.17496L228.317 1.07324" stroke="#F9F9F7" stroke-width="2" stroke-linecap="round" stroke-linejoin="round"/>
<path d="M283.135 85.8397L283.323 86.1446L283.628 86.3786L284.748 86.96L295.499 85.8397L284.486 84.9814L283.628 85.2375L283.303 85.5148L283.135 85.8397Z" stroke="#F9F9F7" stroke-width="2" stroke-linecap="round" stroke-linejoin="round"/>
<path d="M309.213 114.096L309.641 116.337L311.883 125.744L319.671 134.563L327.075 142.351L331.188 151.301L340.138 153.706L343.832 146.045L344.826 142.351L343.971 138.518L347.746 121.703L346.958 114.096L347.266 106.968L345.008 90.7095L345.317 85.8401L343.926 82.0523L340.138 71.8223L330.055 75.7563L315.124 85.8401L313.795 87.7523L311.883 91.6191L307.416 109.629L309.213 114.096Z" stroke="#F9F9F7" stroke-linecap="round" stroke-linejoin="round"/>
<path d="M332.299 227.117L335.746 231.509L340.138 237.33L345.312 232.291L347.187 227.117L344.719 222.536L340.138 211.748L332.322 219.301L332.299 227.117Z" stroke="#F9F9F7" stroke-width="2" stroke-linecap="round" stroke-linejoin="round"/>
<path d="M382.609 255.373L387.831 264.19L396.649 273.42L402.218 260.941L403.315 255.373L403.184 248.837L396.649 242.105L387.401 246.124L382.609 255.373Z" stroke="#F9F9F7" stroke-linecap="round" stroke-linejoin="round"/>
<path d="M393.979 1.07324L394.853 2.86986L396.649 5.78377L400.277 4.70155L402.801 1.07324" stroke="#F9F9F7" stroke-linecap="round" stroke-linejoin="round"/>
<path d="M539 166L524.704 155.573L520.156 142.35L519.598 132.423L513.659 118.083L513.205 114.095L511.961 111.805L509.671 110.323L497.31 101.734L495.264 100.246L481.415 92.4766L476.951 90.3036L474.759 85.8394L478.48 82.9039L481.415 81.6343L494.59 70.7587L499.145 57.584L499.482 47.3948L498.38 40.6199L498.634 29.3286L496.815 16.4725L496.851 13.8936L494.234 1.07324" stroke="#F9F9F7" stroke-width="2" stroke-linecap="round" stroke-linejoin="round"/>
<path d="M1.07373 314.454L2.67334 313.483L4.15061 311.883L5.40137 307.555L7.80729 290.361L10.7861 283.628L4.6013 280.1L1.07373 277.469" stroke="#F9F9F7" stroke-width="2" stroke-linecap="round" stroke-linejoin="round"/>
<path d="M1.07373 234.514L6.09331 232.136L26.4031 230.043L29.3291 229.214L30.8342 228.622L31.6576 227.116L34.6814 221.764L39.0545 208.587L57.2345 198.861L57.4081 198.685L57.5845 198.046L62.4892 175.51L63.1136 170.606L60.8714 167.319L57.5845 159.342L53.1606 146.774L52.951 142.35L53.1707 137.936L57.5845 126.151L59.8313 116.342L59.5783 114.095L59.2554 112.424L57.5845 112.062L53.8105 110.321L38.6513 104.773L29.3291 98.6251L18.0776 97.091L9.89751 85.8395L5.4311 81.4821L1.07373 73.25" stroke="#F9F9F7" stroke-linecap="round" stroke-linejoin="round"/>
<path d="M1.07373 119.561L12.1741 131.251L14.9124 142.351L18.0088 153.671L18.586 159.863L20.7957 170.606L21.6372 178.298L24.8304 194.363L25.4088 198.862L22.5604 205.631L26.4681 224.256L6.00236 222.189L1.07373 224.693" stroke="#F9F9F7" stroke-width="2.3" stroke-linecap="round" stroke-linejoin="round"/>
<path d="M1.22254 1.07324L1.25042 1.24993L4.51207 25.8903L5.08827 29.3286L4.61313 32.868L1.07373 42.7201" stroke="#F9F9F7" stroke-width="1.3" stroke-linecap="round" stroke-linejoin="round"/>
<path d="M52.9258 1.07324L53.5352 5.1224L57.5844 11.2436L62.4238 5.91264L62.9695 1.07324" stroke="#F9F9F7" stroke-linecap="round" stroke-linejoin="round"/>
<path d="M80.4463 57.5845L81.9166 61.5077L85.8398 67.2304L90.2268 61.9714L90.5479 57.5845L88.718 54.7064L85.8398 51.3604L81.543 53.2877L80.4463 57.5845Z" stroke="#F9F9F7" stroke-width="1.3" stroke-linecap="round" stroke-linejoin="round"/>
<path d="M110.806 170.606L112.521 172.18L114.095 172.157L115.246 171.757L116.091 170.606L115.57 169.132L119.629 147.884L118.795 142.351L117.917 138.529L114.095 129.987L109.422 137.678L106.786 142.351L106.089 150.357L111.391 167.902L110.806 170.606Z" stroke="#F9F9F7" stroke-width="2" stroke-linecap="round" stroke-linejoin="round"/>
<path d="M323.194 114.096L331.159 123.075L340.138 132.503L343.513 117.47L343.164 114.096L343.3 110.934L340.138 88.1699L329.192 103.149L323.194 114.096Z" stroke="#F9F9F7" stroke-linecap="round" stroke-linejoin="round"/>
<path d="M390.312 255.372L392.669 259.352L396.649 263.518L399.163 257.885L399.658 255.372L399.599 252.422L396.649 249.384L392.475 251.198L390.312 255.372Z" stroke="#F9F9F7" stroke-linecap="round" stroke-linejoin="round"/>
<path d="M500.982 1.07324L502.454 8.28956L502.265 21.9228L503.313 29.3286L503.166 35.8331L506.128 54.0416L506.011 57.584L504.078 63.1773L505.465 81.634L498.768 85.8394L505.968 89.5423L509.671 92.1152L523.015 100.751L530.266 114.095L531.048 120.973L528.022 132.446L528.578 142.35L530.971 149.306L539.5 154.5" stroke="#F9F9F7" stroke-width="2" stroke-linecap="round" stroke-linejoin="round"/>
<path d="M527.25 1.07324L527.042 11.9571L526.625 18.0269L526.43 29.3286L529.698 37.5573L539 39" stroke="#F9F9F7" stroke-width="2" stroke-linecap="round" stroke-linejoin="round"/>
<path d="M24.4093 170.606L24.8944 175.04L29.3292 197.351L42.6339 183.91L48.8428 170.606L48.0178 161.039L45.6429 154.292L45.0771 142.35L45.6699 130.436L48.3201 123.359L49.194 114.095L34.6516 108.772L29.3292 105.263L19.1025 103.868L6.40527 114.095L17.1636 126.26L16.5706 129.592L19.718 142.35L21.7823 149.897L23.1353 164.412L24.4093 170.606Z" stroke="#F9F9F7" stroke-width="2" stroke-linecap="round" stroke-linejoin="round"/>
<path d="M56.1616 1.07324L56.3478 2.30999L57.5845 4.1796L59.0626 2.55135L59.2293 1.07324" stroke="#F9F9F7" stroke-linecap="round" stroke-linejoin="round"/>
<path d="M85.4463 57.585L85.5536 57.8712L85.8398 58.2888L86.1599 57.9051L86.1833 57.585L86.0498 57.375L85.8398 57.1309L85.5263 57.2715L85.4463 57.585Z" stroke="#F9F9F7" stroke-linecap="round" stroke-linejoin="round"/>
<path d="M113.049 142.351L112.949 143.498L114.095 147.292L114.888 143.143L114.769 142.351L114.643 141.803L114.095 140.58L113.426 141.682L113.049 142.351Z" stroke="#F9F9F7" stroke-width="2" stroke-linecap="round" stroke-linejoin="round"/>
<path d="M539 50L528.283 47.9414L520.851 57.5844L526.62 68.8909L539 77.5" stroke="#F9F9F7" stroke-width="2" stroke-linecap="round" stroke-linejoin="round"/>
<path d="M513.599 1.07324L513.525 4.9274L514.174 24.8257L514.096 29.3286L517.011 36.6692L509.671 41.6049L507.953 31.0462L507.992 29.3286L507.715 27.373L508.059 2.68558L507.73 1.07324" stroke="#F9F9F7" stroke-width="2" stroke-linecap="round" stroke-linejoin="round"/>
<path d="M28.0226 170.606L28.1514 171.784L29.329 177.707L32.8617 174.139L34.5103 170.606L34.099 165.836L37.5946 150.616L37.203 142.351L37.6152 134.064L33.8401 118.606L34.2656 114.095L30.6517 112.772L29.329 111.9L26.7875 111.554L23.6321 114.095L26.3057 117.118L22.9497 135.971L24.5234 142.351L25.5556 146.124L27.6844 168.961L28.0226 170.606Z" stroke="#F9F9F7" stroke-width="2" stroke-linecap="round" stroke-linejoin="round"/>
<path d="M482.094 119.181L459.009 111.129L450.419 108.444L442.367 112.202L439.145 126.697L427.335 147.098L462.23 165.888L477.262 159.445L481 158.5L484.778 159.445L502.494 162.666L504.641 141.192L491.22 130.992L482.094 119.181Z" stroke="#F9F9F7" stroke-width="2.2" stroke-linecap="round" stroke-linejoin="round"/>
<path d="M475.651 127.771L451.493 120.255L446.124 129.381L443.44 146.024L461.156 157.835L471.893 153.54H494.978L496.052 146.024L479.409 135.287L475.651 127.771Z" stroke="#F9F9F7" stroke-width="1.3" stroke-linecap="round" stroke-linejoin="round"/>
<path d="M449.883 130.992L447.735 144.413L461.156 153.003L471.357 148.171L491.757 149.782V148.171L476.725 138.508L471.893 129.918L453.104 124.013L449.883 130.992Z" stroke="#F9F9F7" stroke-width="1.3" stroke-linecap="round" stroke-linejoin="round"/>
<path d="M473.504 144.413L475.114 142.266L483.704 146.56L473.504 144.413Z" stroke="#F9F9F7" stroke-linecap="round" stroke-linejoin="round"/>
<path d="M453.64 56.9066L452.567 55.8329V28.9902L454.714 10.2004L456.861 8.58984L465.988 19.8637H469.209L479.409 22.0112L480.483 30.6008L477.799 43.4853H470.283L468.135 46.1695L462.23 54.7592L453.64 56.9066Z" stroke="#F9F9F7" stroke-linecap="round" stroke-linejoin="round"/>
<path d="M465.451 25.2318L457.935 17.7158L456.325 23.6212V38.6531V52.6112L460.62 51.0007L467.062 40.8005L475.651 40.2636V28.4529L465.451 25.2318Z" stroke="#F9F9F7" stroke-linecap="round" stroke-linejoin="round"/>
<path d="M121.329 368.818L130.455 358.081L133.676 355.934L142.803 372.039V395.124L136.36 397.271L130.455 378.481L121.329 368.818Z" stroke="#F9F9F7" stroke-width="2" stroke-linecap="round" stroke-linejoin="round"/>
<path d="M126.16 368.817L132.066 360.765L140.118 373.112V392.976L137.434 393.513L133.676 377.944L126.16 368.817Z" stroke="#F9F9F7" stroke-width="2" stroke-linecap="round" stroke-linejoin="round"/>
<path d="M540.5 177.5H537L536 177L528.5 171.5L521.5 165L517 176L510 177L488 179.5H478L467.5 187L473 197.5L480 193L505.5 195.5L508.5 194.5L511.5 195.5L531 197.5L539 202.5L541 203" stroke="#F9F9F7"/>
<path d="M474.5 190.5L473 188.5L472.5 187L479.5 182H489L516 178.5L518 184L515 189.5L504.5 192.5L493 191L479 189.5L474.5 190.5Z" stroke="#F9F9F7" stroke-width="0.8"/>
<path d="M480 184.5L476 187.5L489 188L504.5 190L513 188L515.5 184.5L514 181L488.5 185L480 184.5Z" stroke="#F9F9F7" stroke-width="1.2"/>
</g>
<defs>
<clipPath id="clip0_81_166">
<rect width="539" height="539" fill="white"/>
</clipPath>
</defs>
</svg>
