<svg width="140" height="150" viewBox="0 0 140 150" fill="none" xmlns="http://www.w3.org/2000/svg">
<path d="M10.3809 23.3115C10.3815 11.5842 22.7652 -0.7133 38.502 0.595703L38.5107 0.59668L38.5205 0.597656C45.7658 0.926443 50.6357 3.05859 53.6914 6.02832C56.7455 8.9967 58.0399 12.8518 58.04 16.7314C58.04 24.4527 51.5587 34.2954 38.3193 40.9033C31.6507 44.2317 26.6135 47.0781 23.2393 49.6885C19.8874 52.2816 18.0459 54.7407 18.0459 57.3193C18.0459 59.7083 18.5579 62.3437 20.3359 64.3848C22.1254 66.4389 25.1168 67.7998 29.8779 67.7998L109.864 67.7998C113.68 67.7998 116.473 66.2371 118.308 64.3184C120.122 62.4212 121.029 60.1414 121.029 58.6504C121.029 55.1867 119.875 52.6202 117.86 49.9951C115.876 47.4094 112.996 44.6985 109.564 41.0098C104.616 35.6902 101.625 31.9742 99.7969 28.4141C97.9823 24.8793 97.3007 21.4685 97.0352 16.7314C97.3674 12.1847 98.9609 8.17887 102.309 5.30078C105.671 2.41008 110.872 0.597656 118.53 0.597656H118.546C120.16 0.545689 122.436 1.10819 124.926 2.22461C127.405 3.33605 130.051 4.97661 132.4 7.03027C137.113 11.1502 140.534 16.8404 139.213 23.21C131.884 58.5334 124.535 91.8695 126.696 128.543C127.118 135.705 125.082 141.257 120.925 144.834C116.757 148.419 110.365 150.098 101.913 149.308C91.3759 148.322 86.3757 144.233 83.9727 139.915C81.5458 135.555 81.7031 130.862 81.7031 128.514C81.7032 120.07 87.2352 112.035 93.5479 105.383C96.6936 102.068 100.01 99.1205 102.882 96.6621C105.737 94.2178 108.19 92.2273 109.552 90.8682C110.858 89.5646 112.569 88.0251 113.847 86.334C115.129 84.6369 116.058 82.6838 115.69 80.5234C115.2 77.6436 113.001 76.3497 110.793 75.7959C108.593 75.2442 106.257 75.386 105.226 75.4473L105.169 75.4502C102.629 75.6006 96.843 76.5981 89.5645 78.0166C82.2692 79.4384 73.4333 81.2917 64.7666 83.168C47.4436 86.9182 30.7596 90.7666 28.4072 91.4375C25.9933 92.126 23.6103 93.7157 23.0557 96.3916C22.5029 99.059 23.8246 102.551 28.1914 106.91C32.5032 111.214 35.9775 115.511 38.3701 119.3C40.7772 123.111 42.0419 126.335 42.042 128.514C42.042 138.889 32.9311 149.298 20.5576 149.305C14.9243 148.972 9.23845 147.791 5.37207 144.88C3.4479 143.431 1.97527 141.554 1.1748 139.13C0.372919 136.701 0.234334 133.687 1.03809 129.949C8.22347 96.5363 10.38 55.2427 10.3809 23.3115Z" fill="#7699D4" stroke="#7699D4"/>
</svg>
