<svg width="162" height="162" viewBox="0 0 162 162" fill="none" xmlns="http://www.w3.org/2000/svg">
<circle cx="81" cy="81" r="81" transform="rotate(-180 81 81)" fill="#7699D4"/>
<path d="M41.2051 45.8525C41.2053 37.9802 49.5186 29.6816 60.1123 30.5645L60.1318 30.5664C65.0203 30.7888 68.2833 32.2289 70.3213 34.2139C72.3579 36.1976 73.2236 38.7754 73.2236 41.3779C73.2235 46.5447 68.8844 53.1925 59.9307 57.6709C55.4044 59.9348 51.974 61.8767 49.6709 63.6621C47.39 65.4304 46.085 67.1445 46.085 68.9775C46.085 70.621 46.4357 72.4579 47.6777 73.8867C48.9315 75.3288 51.0128 76.2637 54.2744 76.2637H108.551C111.188 76.2637 113.125 75.18 114.397 73.8467C115.649 72.535 116.288 70.9466 116.288 69.8818C116.288 67.4832 115.487 65.7047 114.104 63.8994C112.752 62.1335 110.782 60.2747 108.465 57.7783C105.108 54.1622 103.092 51.6487 101.862 49.249C100.647 46.8769 100.186 44.5859 100.006 41.3867C100.229 38.3262 101.298 35.6475 103.529 33.7256C105.772 31.7934 109.258 30.5665 114.431 30.5664H114.447C115.507 30.5322 117.026 30.9037 118.705 31.6582C120.373 32.4077 122.156 33.5148 123.737 34.9004C126.915 37.6841 129.189 41.5003 128.309 45.751C123.336 69.7663 118.343 92.4561 119.812 117.419C120.096 122.254 118.725 125.975 115.951 128.366C113.168 130.766 108.879 131.906 103.17 131.37C96.061 130.703 92.7219 127.945 91.1221 125.064C89.4986 122.141 89.6016 118.993 89.6016 117.39C89.6016 111.713 93.3167 106.288 97.5957 101.77C99.7247 99.5215 101.971 97.522 103.918 95.8516C105.849 94.1954 107.522 92.8333 108.452 91.9033C109.33 91.0256 110.506 89.9646 111.382 88.8027C112.262 87.635 112.922 86.2623 112.662 84.7295C112.314 82.6819 110.748 81.7699 109.22 81.3857C107.7 81.0039 106.092 81.103 105.394 81.1445L105.355 81.1465C103.619 81.2495 99.6805 81.9306 94.7451 82.8945C89.7932 83.8617 83.7956 85.1225 77.9141 86.3984C66.1626 88.9479 54.8363 91.5651 53.2324 92.0234C51.5679 92.4992 49.8811 93.61 49.4873 95.5137C49.0954 97.4087 50.0411 99.8371 53.0156 102.812C55.9347 105.733 58.2844 108.645 59.9004 111.209C61.5309 113.796 62.3682 115.956 62.3682 117.39C62.368 124.359 56.2554 131.36 47.9541 131.367C44.1421 131.141 40.3266 130.34 37.7432 128.391C36.4604 127.423 35.4821 126.173 34.9502 124.559C34.4169 122.94 34.3204 120.92 34.8613 118.399C39.7406 95.6626 41.2045 67.5702 41.2051 45.8525Z" fill="white" stroke="white"/>
</svg>
